SplineFontDB: 3.2
FontName: nasin-sitelen-pu-mono
FullName: nasin-sitelen-pu Mono
FamilyName: nasin-sitelen-pu
Weight: thin
Copyright: nasin en sitelen li tan jan Sonja. sitelen sin li tan jan Pensa. ilo li tan jan Ke Tami. kili Juli li open e pali ni.
UComments: "2023-3-13: Created with FontForge (http://fontforge.org)"
Version: 002.120
ItalicAngle: 0
UnderlinePosition: -100
UnderlineWidth: 50
Ascent: 800
Descent: 200
InvalidEm: 0
LayerCount: 2
Layer: 0 0 "Hinten" 1
Layer: 1 0 "Vorne" 0
XUID: [1021 645 -1917317362 23711]
FSType: 0
OS2Version: 0
OS2_WeightWidthSlopeOnly: 0
OS2_UseTypoMetrics: 1
CreationTime: 1678745775
ModificationTime: 1742556338
PfmFamily: 17
TTFWeight: 400
TTFWidth: 5
LineGap: 90
VLineGap: 0
OS2TypoAscent: 0
OS2TypoAOffset: 1
OS2TypoDescent: 0
OS2TypoDOffset: 1
OS2TypoLinegap: 90
OS2WinAscent: 0
OS2WinAOffset: 1
OS2WinDescent: 0
OS2WinDOffset: 1
HheadAscent: 0
HheadAOffset: 1
HheadDescent: 0
HheadDOffset: 1
OS2Vendor: 'PfEd'
Lookup: 4 0 1 "'liga' Standard-Ligaturen in Lateinisch Nachschlagetabelle 0" { "'liga' Standard-Ligaturen in Lateinisch Nachschlagetabelle 0 Subtabelle"  } ['liga' ('DFLT' <'dflt' 'latn' > 'latn' <'dflt' > ) ]
Lookup: 2 0 0 "'ccmp' Glyphen-Zusammensetzung/Zerlegung in Lateinisch Nachschlagetabelle 5" { "'ccmp' Glyphen-Zusammensetzung/Zerlegung in Lateinisch Nachschlagetabelle 5-1"  } ['ccmp' ('DFLT' <'dflt' 'latn' > 'latn' <'dflt' > ) ]
Lookup: 6 0 0 "'calt' Kontextuelle Alternativen in Lateinisch Nachschlagetabelle 7" { "'calt' Kontextuelle Alternativen in Lateinisch Nachschlagetabelle 7-1"  } ['calt' ('DFLT' <'dflt' 'latn' > 'latn' <'dflt' > ) ]
Lookup: 2 0 0 "Mehrfache Substitution in Lateinisch Nachschlagetabelle 6" { "Mehrfache Substitution in Lateinisch Nachschlagetabelle 6-1"  } ['cc0 ' ('DFLT' <'dflt' 'latn' > 'latn' <'dflt' > ) ]

StartChar: aTok
Encoding: 256 989440 0
Width: 845
VWidth: 946
Flags: W
HStem: -18.7959 41.9395<377.936 403.52>
VStem: 332.572 43.5293<23.6465 69.0718> 401.416 43.5186<271.782 608.487>
LayerCount: 2
Fore
SplineSet
392.170898438 67.228515625 m 4
 386.529296875 58.767578125 380.887695312 48.8955078125 378.067382812 39.0244140625 c 4
 376.799804688 37.1220703125 376.1015625 34.650390625 376.1015625 32.12109375 c 0
 376.1015625 29.0234375 377.1484375 25.83984375 379.477539062 23.5107421875 c 4
 380.2265625 23.2607421875 380.9765625 23.1435546875 381.717773438 23.1435546875 c 0
 385.163085938 23.1435546875 388.439453125 25.669921875 390.760742188 29.1513671875 c 4
 402.04296875 39.0244140625 409.09375 51.7158203125 413.32421875 64.408203125 c 4
 413.32421875 68.638671875 411.9140625 74.2802734375 407.68359375 75.6904296875 c 4
 402.04296875 74.2802734375 396.401367188 71.4599609375 392.170898438 67.228515625 c 4
383.708984375 112.357421875 m 4
 390.760742188 116.587890625 399.221679688 116.587890625 407.68359375 117.998046875 c 4
 416.14453125 117.998046875 424.606445312 116.587890625 430.247070312 110.947265625 c 4
 434.477539062 108.126953125 438.708984375 105.305664062 441.529296875 101.075195312 c 4
 441.529296875 98.2548828125 440.119140625 94.0244140625 440.119140625 91.2041015625 c 4
 445.760742188 84.1513671875 455.631835938 82.7412109375 459.86328125 75.6904296875 c 4
 465.50390625 68.638671875 471.14453125 61.587890625 475.375976562 53.126953125 c 4
 476.786132812 44.6650390625 482.426757812 37.6142578125 485.247070312 30.5615234375 c 4
 489.477539062 20.6904296875 496.529296875 13.638671875 500.760742188 5.177734375 c 4
 503.581054688 -0.462890625 509.221679688 -3.2841796875 512.04296875 -8.9248046875 c 4
 512.3125 -9.732421875 512.426757812 -10.541015625 512.426757812 -11.3388671875 c 0
 512.426757812 -14.7197265625 510.362304688 -17.9248046875 509.221679688 -20.20703125 c 4
 506.703125 -23.986328125 503.059570312 -28.8857421875 498.291015625 -28.8857421875 c 0
 497.719726562 -28.8857421875 497.1328125 -28.8154296875 496.529296875 -28.6640625 c 4
 482.426757812 -27.25390625 472.5546875 -17.3857421875 464.09375 -7.5146484375 c 4
 455.631835938 2.357421875 449.991210938 12.228515625 442.939453125 23.5107421875 c 4
 441.529296875 26.3310546875 438.708984375 30.5615234375 435.887695312 31.9716796875 c 4
 430.247070312 26.3310546875 427.426757812 17.8701171875 421.786132812 12.228515625 c 4
 413.32421875 0.947265625 403.453125 -7.5146484375 390.760742188 -14.5654296875 c 4
 387.939453125 -15.9755859375 385.119140625 -18.7958984375 380.887695312 -18.7958984375 c 4
 371.016601562 -18.7958984375 362.5546875 -15.9755859375 354.09375 -11.7451171875 c 4
 339.991210938 -3.2841796875 335.760742188 12.228515625 332.939453125 26.3310546875 c 4
 332.689453125 28.5791015625 332.572265625 30.826171875 332.572265625 33.06640625 c 4
 332.572265625 43.474609375 335.099609375 53.7138671875 338.581054688 62.998046875 c 4
 345.631835938 75.6904296875 351.2734375 88.3828125 361.14453125 99.6650390625 c 4
 366.786132812 106.715820312 375.247070312 109.537109375 383.708984375 112.357421875 c 4
413.32421875 628.510742188 m 4
 414.359375 628.76953125 415.34765625 628.885742188 416.295898438 628.885742188 c 0
 420.518554688 628.885742188 423.97265625 626.583007812 427.426757812 624.280273438 c 4
 434.477539062 621.459960938 441.529296875 615.818359375 442.939453125 608.767578125 c 4
 443.9375 602.783203125 444.934570312 596.095703125 444.934570312 589.698242188 c 0
 444.934570312 587.048828125 444.763671875 584.450195312 444.350585938 581.971679688 c 4
 442.939453125 566.459960938 444.350585938 552.357421875 442.939453125 538.254882812 c 4
 441.529296875 521.331054688 442.939453125 505.818359375 441.529296875 488.895507812 c 4
 440.119140625 480.434570312 441.529296875 470.561523438 440.119140625 462.100585938 c 4
 438.708984375 447.998046875 440.119140625 433.895507812 438.708984375 421.204101562 c 4
 438.708984375 407.100585938 438.708984375 394.408203125 438.708984375 380.305664062 c 4
 440.119140625 371.84375 440.471679688 363.3828125 440.471679688 354.920898438 c 4
 440.471679688 346.459960938 440.119140625 337.998046875 440.119140625 329.537109375 c 4
 440.119140625 319.8671875 443.227539062 309.16015625 443.227539062 299.1953125 c 0
 443.227539062 297.533203125 443.141601562 295.892578125 442.939453125 294.280273438 c 4
 442.939453125 287.509765625 444.745117188 281.643554688 444.745117188 275.95703125 c 0
 444.745117188 274.53515625 444.6328125 273.125976562 444.350585938 271.715820312 c 4
 441.529296875 266.075195312 437.298828125 263.254882812 434.477539062 260.434570312 c 4
 428.836914062 256.204101562 424.606445312 250.561523438 417.5546875 250.561523438 c 4
 411.9140625 250.561523438 406.2734375 253.3828125 403.453125 259.024414062 c 4
 400.631835938 263.254882812 399.221679688 267.485351562 399.221679688 271.715820312 c 4
 398.939453125 272.84375 398.827148438 274.028320312 398.827148438 275.247070312 c 0
 398.827148438 280.12109375 400.631835938 285.536132812 400.631835938 290.048828125 c 4
 399.221679688 302.741210938 397.811523438 315.434570312 397.811523438 328.126953125 c 4
 396.401367188 343.638671875 396.401367188 359.151367188 396.401367188 373.254882812 c 4
 396.401367188 383.596679688 395.774414062 393.938476562 395.774414062 404.280273438 c 4
 395.774414062 409.451171875 395.931640625 414.622070312 396.401367188 419.79296875 c 4
 397.811523438 431.075195312 396.401367188 442.357421875 399.221679688 453.638671875 c 4
 399.221679688 467.741210938 399.221679688 480.434570312 399.221679688 494.537109375 c 4
 400.631835938 502.998046875 399.221679688 511.459960938 400.631835938 519.920898438 c 4
 401.673828125 526.693359375 401.946289062 533.465820312 401.946289062 540.239257812 c 4
 401.946289062 547.64453125 401.62109375 555.05078125 401.62109375 562.45703125 c 4
 401.62109375 566.611328125 401.723632812 570.766601562 402.04296875 574.920898438 c 4
 402.04296875 584.323242188 401.416015625 594.3515625 401.416015625 604.588867188 c 4
 401.416015625 609.70703125 401.572265625 614.877929688 402.04296875 620.048828125 c 4
 402.04296875 624.948242188 406.297851562 628.784179688 411.112304688 628.784179688 c 0
 411.840820312 628.784179688 412.583007812 628.696289062 413.32421875 628.510742188 c 4
EndSplineSet
Validated: 33
MultipleSubs2: "Mehrfache Substitution in Lateinisch Nachschlagetabelle 5-1" aTok cartTok
Ligature2: "'liga' Synonyme Nachschlagetabelle 2-0" kinTok var1
LCarets2: 1 102
Ligature2: "'liga' Standard-Ligaturen in Lateinisch Nachschlagetabelle 1 Glyphen-Daten 1" a
Ligature2: "'liga' Standard-Ligaturen in Lateinisch Nachschlagetabelle 1 Glyphen-Daten 0" a space
EndChar

StartChar: akesiTok
Encoding: 257 989441 1
Width: 845
VWidth: 959
Flags: W
HStem: 115.961 47.9492<229.825 287.052 330.836 424.812> 124.423 47.9492<223.724 286.451> 162.5 46.5391<515.844 579.788> 248.525 53.1279<220.904 287.603> 258.396 45.1289<235.667 288.44 329.359 471.398> 379.68 43.0898<208.027 299.547 346.477 441.717> 389.835 34.3877<346.477 441.717> 406.474 42.8613<495.022 619.545> 558.043 51.5078<299.878 340.443 455.153 498.193>
VStem: 287.052 39.4873<163.91 255.576 303.724 378.49> 294.104 47.1338<558.982 600.757> 454.873 47.9482<567.445 599.544> 474.616 42.3076<209.039 268.27 319.039 388.425>
LayerCount: 2
Fore
SplineSet
419.616210938 135.705078125 m 0x8080
 415.384765625 134.294921875 409.744140625 132.883789062 405.513671875 131.473632812 c 0
 390.000976562 127.243164062 374.487304688 124.422851562 357.564453125 120.192382812 c 0
 349.103515625 118.782226562 339.231445312 117.372070312 330.76953125 115.9609375 c 1
 330.76953125 103.26953125 335.000976562 90.576171875 337.821289062 77.8837890625 c 0
 342.051757812 63.7822265625 347.693359375 49.6796875 357.564453125 38.396484375 c 0
 363.206054688 34.166015625 373.077148438 32.755859375 380.12890625 36.986328125 c 0
 391.411132812 39.8076171875 399.873046875 48.26953125 408.333984375 56.73046875 c 0
 421.026367188 69.4228515625 432.307617188 84.935546875 439.359375 100.44921875 c 0
 446.411132812 114.55078125 452.051757812 128.653320312 456.283203125 144.166015625 c 1
 443.590820312 142.755859375 432.307617188 138.525390625 419.616210938 135.705078125 c 0x8080
433.71875 264.0390625 m 0
 422.436523438 262.627929688 409.744140625 262.627929688 398.462890625 261.217773438 c 0
 384.359375 259.807617188 370.256835938 259.807617188 354.744140625 258.396484375 c 0
 346.283203125 258.396484375 336.411132812 258.396484375 326.5390625 258.396484375 c 1
 325.12890625 247.115234375 326.5390625 235.833007812 325.12890625 224.55078125 c 0
 323.71875 214.6796875 326.5390625 204.807617188 326.5390625 194.935546875 c 0
 326.5390625 183.653320312 326.5390625 173.782226562 326.5390625 163.91015625 c 1
 333.590820312 165.3203125 340.641601562 168.140625 347.693359375 168.140625 c 0
 354.744140625 168.140625 360.384765625 168.140625 366.026367188 169.55078125 c 0
 385.76953125 175.192382812 406.923828125 178.012695312 426.666992188 186.473632812 c 0
 440.76953125 192.115234375 456.283203125 192.115234375 470.384765625 197.755859375 c 1
 470.384765625 209.0390625 473.206054688 220.3203125 474.616210938 231.602539062 c 0
 474.616210938 239.123046875 475.243164062 247.271484375 475.243164062 255.62890625 c 0
 475.243164062 259.807617188 475.0859375 264.038085938 474.616210938 268.26953125 c 1x88c8
 461.923828125 265.44921875 447.821289062 265.44921875 433.71875 264.0390625 c 0
412.564453125 385.3203125 m 0
 401.283203125 383.91015625 390.000976562 383.91015625 377.307617188 382.5 c 0
 364.616210938 381.08984375 350.513671875 381.08984375 336.411132812 379.6796875 c 1x0480
 335.000976562 354.294921875 329.359375 328.91015625 329.359375 303.525390625 c 1
 340.641601562 303.525390625 350.513671875 303.525390625 360.384765625 303.525390625 c 0
 368.846679688 306.345703125 377.307617188 304.935546875 384.359375 304.935546875 c 0
 394.627929688 306.076171875 403.97265625 308.140625 413.142578125 308.140625 c 0
 415.306640625 308.140625 417.461914062 308.025390625 419.616210938 307.755859375 c 0
 428.077148438 306.345703125 436.5390625 310.576171875 445.000976562 310.576171875 c 0
 453.462890625 309.166015625 463.333984375 311.986328125 471.795898438 313.396484375 c 1
 468.974609375 338.782226562 464.744140625 365.576171875 456.283203125 389.55078125 c 0
 454.1171875 389.748046875 451.978515625 389.834960938 449.864257812 389.834960938 c 0x0a80
 436.831054688 389.834960938 424.698242188 386.533203125 412.564453125 385.3203125 c 0
395.641601562 495.3203125 m 0
 385.76953125 491.08984375 382.94921875 476.986328125 373.077148438 472.755859375 c 0
 368.846679688 469.935546875 363.206054688 469.935546875 358.974609375 468.525390625 c 0
 353.333984375 462.883789062 353.333984375 453.012695312 351.923828125 445.9609375 c 0
 351.923828125 438.91015625 349.103515625 431.859375 346.283203125 424.807617188 c 1
 350.4140625 424.39453125 354.423828125 424.22265625 358.34765625 424.22265625 c 0x0280
 367.8203125 424.22265625 376.794921875 425.220703125 385.76953125 426.217773438 c 0
 394.231445312 426.217773438 402.693359375 429.0390625 409.744140625 429.0390625 c 0
 421.026367188 430.44921875 432.307617188 431.859375 442.180664062 433.26953125 c 1
 440.76953125 441.73046875 436.5390625 450.192382812 432.307617188 460.063476562 c 0
 429.487304688 469.935546875 423.846679688 476.986328125 418.206054688 485.44921875 c 0
 413.974609375 492.5 404.103515625 496.73046875 395.641601562 495.3203125 c 0
380.12890625 536.217773438 m 0
 385.76953125 538.333984375 391.763671875 539.744140625 397.756835938 539.744140625 c 0
 403.750976562 539.744140625 409.744140625 538.333984375 415.384765625 534.807617188 c 0
 419.616210938 531.986328125 425.256835938 530.576171875 430.897460938 526.345703125 c 0
 436.5390625 523.525390625 439.359375 517.883789062 443.590820312 512.243164062 c 0
 450.641601562 505.192382812 454.873046875 495.3203125 460.513671875 486.859375 c 0
 466.154296875 474.166015625 470.384765625 462.883789062 476.026367188 450.192382812 c 0
 477.436523438 445.9609375 478.846679688 441.73046875 484.487304688 440.3203125 c 0
 486.22265625 440.127929688 487.930664062 440.040039062 489.620117188 440.040039062 c 0
 500.291015625 440.040039062 510.197265625 443.526367188 521.154296875 445.9609375 c 0
 533.54296875 448.026367188 545.176757812 449.334960938 557.16015625 449.334960938 c 0
 561.546875 449.334960938 565.979492188 449.16015625 570.513671875 448.782226562 c 0
 580.384765625 448.782226562 588.846679688 450.192382812 597.307617188 445.9609375 c 0
 612.821289062 440.3203125 626.923828125 433.26953125 635.384765625 419.166015625 c 0
 638.206054688 412.115234375 639.616210938 403.653320312 636.795898438 395.192382812 c 0
 632.564453125 389.55078125 626.923828125 386.73046875 619.873046875 386.73046875 c 0
 612.821289062 389.55078125 608.590820312 396.602539062 602.94921875 400.833007812 c 0
 593.078125 405.063476562 582.501953125 406.473632812 571.749023438 406.473632812 c 0
 560.995117188 406.473632812 550.064453125 405.063476562 539.487304688 403.653320312 c 0
 523.974609375 400.833007812 508.462890625 400.833007812 494.359375 395.192382812 c 1
 498.590820312 379.6796875 501.411132812 364.166015625 505.641601562 348.653320312 c 0
 507.051757812 338.782226562 508.462890625 328.91015625 512.693359375 319.0390625 c 1
 523.974609375 321.859375 536.666992188 320.44921875 547.94921875 323.26953125 c 0
 555.000976562 324.6796875 562.051757812 324.6796875 569.103515625 326.08984375 c 0
 577.564453125 327.5 586.026367188 327.5 594.487304688 326.08984375 c 0
 604.359375 326.08984375 612.821289062 320.44921875 619.873046875 314.807617188 c 0
 626.923828125 310.576171875 626.923828125 302.115234375 626.923828125 295.063476562 c 0
 624.103515625 289.422851562 619.873046875 283.782226562 615.641601562 278.140625 c 1
 610.000976562 279.55078125 602.94921875 282.372070312 595.897460938 280.9609375 c 0
 580.384765625 279.55078125 564.873046875 279.55078125 549.359375 276.73046875 c 0
 538.077148438 275.3203125 526.795898438 273.91015625 516.923828125 272.5 c 1
 516.923828125 258.396484375 516.923828125 244.294921875 516.923828125 231.602539062 c 0
 515.513671875 223.140625 515.513671875 216.08984375 515.513671875 209.0390625 c 1
 529.616210938 209.0390625 542.307617188 209.0390625 556.411132812 204.807617188 c 0
 569.103515625 200.576171875 580.384765625 192.115234375 590.256835938 182.243164062 c 0
 594.487304688 178.012695312 594.487304688 170.9609375 593.077148438 165.3203125 c 0
 591.666992188 158.26953125 584.616210938 155.44921875 580.384765625 151.217773438 c 1
 567.693359375 159.6796875 552.180664062 162.5 536.666992188 162.5 c 0x21c8
 526.795898438 161.08984375 516.923828125 161.08984375 507.051757812 156.859375 c 1
 502.821289062 149.807617188 501.411132812 139.935546875 497.180664062 131.473632812 c 0
 491.5390625 117.372070312 490.12890625 100.44921875 481.666992188 86.345703125 c 0
 476.026367188 76.4736328125 473.206054688 66.6025390625 466.154296875 58.140625 c 0
 457.693359375 46.859375 452.051757812 35.576171875 443.590820312 25.705078125 c 0
 430.897460938 13.0126953125 418.206054688 0.3203125 401.283203125 -5.3203125 c 0
 394.231445312 -8.140625 387.180664062 -9.55078125 378.71875 -9.55078125 c 0
 354.744140625 -8.140625 332.180664062 5.9609375 319.487304688 25.705078125 c 0
 306.795898438 41.2177734375 299.744140625 62.3720703125 295.513671875 82.115234375 c 0
 292.693359375 93.396484375 292.693359375 104.6796875 289.873046875 115.9609375 c 1x80c8
 271.5390625 118.782226562 254.616210938 121.602539062 236.283203125 124.422851562 c 0
 230.641601562 124.422851562 226.411132812 127.243164062 223.590820312 130.063476562 c 0
 219.359375 138.525390625 212.307617188 144.166015625 212.307617188 154.0390625 c 0
 212.307617188 162.5 219.359375 172.372070312 229.231445312 172.372070312 c 0x40c8
 241.923828125 172.372070312 253.206054688 170.9609375 264.487304688 166.73046875 c 0
 271.5390625 165.3203125 280.000976562 165.3203125 287.051757812 163.91015625 c 1
 287.051757812 177.072265625 286.424804688 190.234375 286.424804688 202.978515625 c 0
 286.424804688 209.3515625 286.58203125 215.619140625 287.051757812 221.73046875 c 0
 288.462890625 233.012695312 288.462890625 244.294921875 288.462890625 255.576171875 c 1
 270.12890625 254.166015625 251.795898438 252.755859375 234.873046875 248.525390625 c 0
 229.231445312 248.525390625 223.590820312 247.115234375 220.76953125 251.345703125 c 0
 213.71875 258.396484375 208.077148438 266.859375 206.666992188 276.73046875 c 0
 206.666992188 286.602539062 213.71875 297.883789062 225.000976562 297.883789062 c 0
 241.067382812 298.956054688 257.948242188 301.653320312 274.40625 301.653320312 c 0
 279.6171875 301.653320312 284.786132812 301.3828125 289.873046875 300.705078125 c 1
 292.693359375 306.345703125 292.693359375 313.396484375 292.693359375 319.0390625 c 0
 292.693359375 328.91015625 295.513671875 338.782226562 296.923828125 350.063476562 c 0
 298.333984375 359.935546875 299.744140625 369.807617188 299.744140625 379.6796875 c 1
 281.411132812 379.6796875 263.077148438 378.26953125 244.744140625 376.859375 c 0
 239.103515625 376.859375 233.462890625 375.44921875 227.821289062 376.859375 c 0
 223.590820312 378.26953125 222.180664062 381.08984375 219.359375 383.91015625 c 0
 212.307617188 389.55078125 209.487304688 396.602539062 206.666992188 405.063476562 c 0
 206.666992188 413.525390625 213.71875 420.576171875 220.76953125 424.807617188 c 0
 230.641601562 426.217773438 241.923828125 423.396484375 251.795898438 423.396484375 c 0
 264.958007812 423.396484375 277.494140625 422.76953125 290.23828125 422.76953125 c 0x94c8
 296.610351562 422.76953125 303.03515625 422.926757812 309.616210938 423.396484375 c 1
 315.256835938 444.55078125 320.897460938 465.705078125 329.359375 486.859375 c 0
 333.590820312 495.3203125 336.411132812 502.372070312 342.051757812 509.422851562 c 0
 346.283203125 515.063476562 351.923828125 519.294921875 357.564453125 524.935546875 c 0
 363.206054688 530.576171875 371.666992188 533.396484375 380.12890625 536.217773438 c 0
313.846679688 608.140625 m 0
 318.077148438 609.55078125 322.307617188 605.3203125 327.94921875 603.91015625 c 0
 335.395507812 600.71875 341.237304688 592.712890625 341.237304688 584.735351562 c 0
 341.237304688 582.13671875 340.6171875 579.541015625 339.231445312 577.115234375 c 0
 336.411132812 571.473632812 337.821289062 561.602539062 330.76953125 558.782226562 c 0
 326.5390625 557.372070312 322.307617188 554.55078125 316.666992188 555.9609375 c 0
 311.026367188 557.372070312 306.795898438 557.372070312 301.154296875 558.782226562 c 0
 296.923828125 563.012695312 292.693359375 568.653320312 294.103515625 575.705078125 c 0x00a0
 295.513671875 584.166015625 292.693359375 594.0390625 299.744140625 601.08984375 c 0
 302.564453125 606.73046875 308.206054688 606.73046875 313.846679688 608.140625 c 0
470.384765625 609.55078125 m 0
 480.256835938 609.55078125 490.12890625 605.3203125 498.590820312 599.6796875 c 0
 502.821289062 596.859375 501.411132812 589.807617188 502.821289062 585.576171875 c 0
 504.231445312 579.935546875 505.641601562 571.473632812 501.411132812 567.243164062 c 0
 494.669921875 561.250976562 485.541992188 558.04296875 476.561523438 558.04296875 c 0
 468.634765625 558.04296875 460.823242188 560.54296875 454.873046875 565.833007812 c 0x0090
 450.641601562 572.883789062 452.051757812 582.755859375 453.462890625 591.217773438 c 0
 457.693359375 598.26953125 460.513671875 608.140625 470.384765625 609.55078125 c 0
EndSplineSet
Validated: 33
MultipleSubs2: "Mehrfache Substitution in Lateinisch Nachschlagetabelle 5-1" akesiTok cartTok
LCarets2: 5 102 102 102 102 102
Ligature2: "'liga' Standard-Ligaturen in Lateinisch Nachschlagetabelle 1 Glyphen-Daten 1" a k e s i
Ligature2: "'liga' Standard-Ligaturen in Lateinisch Nachschlagetabelle 1 Glyphen-Daten 0" a k e s i space
EndChar

StartChar: alaTok
Encoding: 258 989442 2
Width: 845
VWidth: 952
Flags: W
VStem: 181.456 33.8467<582.522 613.404>
LayerCount: 2
Fore
SplineSet
189.918945312 613.537109375 m 0
 198.379882812 616.357421875 208.251953125 613.537109375 215.302734375 607.895507812 c 0
 223.764648438 596.614257812 232.225585938 585.33203125 236.456054688 571.229492188 c 0
 242.098632812 554.306640625 253.379882812 540.204101562 261.841796875 524.690429688 c 0
 267.482421875 510.587890625 277.354492188 499.306640625 287.225585938 486.614257812 c 0
 291.456054688 479.5625 299.918945312 473.921875 304.149414062 465.459960938 c 0
 312.611328125 452.767578125 323.892578125 442.895507812 332.354492188 430.204101562 c 0
 337.995117188 420.33203125 347.8671875 413.280273438 353.508789062 403.408203125 c 0
 360.559570312 394.947265625 366.200195312 383.665039062 373.251953125 376.614257812 c 0
 380.302734375 370.973632812 384.533203125 361.100585938 392.995117188 356.870117188 c 1
 402.8671875 368.15234375 408.508789062 383.665039062 418.379882812 394.947265625 c 0
 421.200195312 400.587890625 424.021484375 404.818359375 425.431640625 410.459960938 c 0
 436.712890625 433.024414062 452.225585938 452.767578125 464.918945312 475.33203125 c 0
 476.200195312 489.434570312 484.662109375 507.767578125 495.944335938 521.870117188 c 0
 510.045898438 543.024414062 524.149414062 565.587890625 539.662109375 586.7421875 c 0
 548.123046875 596.614257812 555.174804688 610.716796875 567.8671875 613.537109375 c 0
 576.329101562 616.357421875 581.969726562 609.306640625 587.611328125 605.075195312 c 0
 591.841796875 598.024414062 596.072265625 592.383789062 597.482421875 583.921875 c 0
 596.072265625 578.280273438 591.841796875 572.639648438 586.200195312 566.998046875 c 0
 576.329101562 557.126953125 569.27734375 544.434570312 560.815429688 531.7421875 c 0
 555.174804688 519.049804688 545.302734375 506.357421875 539.662109375 493.665039062 c 0
 532.611328125 485.204101562 526.969726562 475.33203125 521.329101562 465.459960938 c 0
 512.8671875 451.357421875 502.995117188 438.665039062 494.533203125 424.5625 c 0
 486.072265625 410.459960938 477.611328125 397.767578125 470.559570312 385.075195312 c 0
 464.918945312 375.204101562 456.456054688 365.33203125 452.225585938 355.459960938 c 0
 447.995117188 345.587890625 440.944335938 338.537109375 438.123046875 330.075195312 c 0
 435.302734375 324.434570312 429.662109375 318.793945312 428.251953125 311.7421875 c 0
 428.251953125 307.510742188 431.072265625 303.280273438 433.892578125 300.459960938 c 0
 439.533203125 293.408203125 445.174804688 284.947265625 452.225585938 277.895507812 c 0
 467.739257812 256.7421875 480.431640625 234.177734375 498.764648438 214.434570312 c 0
 504.405273438 208.793945312 507.225585938 200.33203125 512.8671875 194.690429688 c 0
 521.329101562 186.229492188 528.379882812 177.767578125 534.021484375 167.895507812 c 0
 549.533203125 146.7421875 565.045898438 125.587890625 580.559570312 104.434570312 c 0
 596.072265625 84.6904296875 611.584960938 64.947265625 629.918945312 46.6142578125 c 0
 634.149414062 42.3837890625 636.969726562 36.7421875 641.200195312 31.1005859375 c 0
 646.841796875 25.4599609375 655.302734375 22.6396484375 659.533203125 16.998046875 c 0
 662.354492188 9.947265625 662.354492188 2.8955078125 663.764648438 -2.7451171875 c 1
 658.123046875 -11.2060546875 648.251953125 -18.2578125 639.790039062 -12.6162109375 c 0
 628.508789062 -5.5654296875 615.815429688 -1.3349609375 607.354492188 8.537109375 c 0
 590.431640625 24.0498046875 574.918945312 42.3837890625 562.225585938 60.716796875 c 0
 555.174804688 71.998046875 543.892578125 80.4599609375 536.841796875 91.7421875 c 0
 525.559570312 108.665039062 511.456054688 124.177734375 500.174804688 142.510742188 c 0
 493.123046875 153.793945312 483.251953125 165.075195312 476.200195312 176.357421875 c 0
 459.27734375 197.510742188 442.354492188 217.254882812 426.841796875 238.408203125 c 0
 419.790039062 248.280273438 411.329101562 259.5625 402.8671875 268.024414062 c 1
 397.225585938 263.793945312 394.405273438 258.15234375 390.174804688 251.100585938 c 0
 383.123046875 238.408203125 374.662109375 227.126953125 367.611328125 214.434570312 c 0
 364.790039062 207.383789062 361.969726562 201.7421875 357.739257812 196.100585938 c 0
 347.8671875 181.998046875 339.405273438 167.895507812 332.354492188 155.204101562 c 0
 319.662109375 136.870117188 306.969726562 118.537109375 295.688476562 98.7939453125 c 0
 284.405273438 79.0498046875 268.892578125 63.537109375 260.431640625 43.7939453125 c 0
 253.379882812 32.5107421875 246.329101562 21.2294921875 236.456054688 14.177734375 c 0
 232.822265625 11.58203125 228.997070312 10.70703125 225.122070312 10.70703125 c 0
 218.469726562 10.70703125 211.668945312 13.287109375 205.431640625 14.177734375 c 1
 199.790039062 22.6396484375 194.149414062 32.5107421875 191.329101562 43.7939453125 c 0
 191.329101562 49.4345703125 195.559570312 50.8447265625 198.379882812 53.6650390625 c 0
 206.841796875 57.8955078125 209.662109375 69.177734375 215.302734375 76.2294921875 c 0
 225.174804688 91.7421875 236.456054688 107.254882812 247.739257812 122.767578125 c 0
 260.431640625 145.33203125 274.533203125 167.895507812 290.045898438 189.049804688 c 0
 295.688476562 200.33203125 304.149414062 210.204101562 309.790039062 221.485351562 c 0
 316.841796875 234.177734375 328.123046875 244.049804688 333.764648438 258.15234375 c 0
 343.635742188 277.895507812 357.739257812 294.818359375 367.611328125 314.5625 c 1
 359.149414062 330.075195312 346.456054688 342.767578125 335.174804688 358.280273438 c 0
 319.662109375 378.024414062 304.149414062 397.767578125 288.635742188 417.510742188 c 0
 280.174804688 425.973632812 273.123046875 435.844726562 266.072265625 445.716796875 c 0
 257.611328125 455.587890625 251.969726562 468.280273438 242.098632812 476.7421875 c 0
 233.635742188 489.434570312 226.584960938 502.126953125 218.123046875 514.818359375 c 0
 208.251953125 530.33203125 201.200195312 547.254882812 191.329101562 562.767578125 c 0
 185.688476562 574.049804688 182.8671875 586.7421875 181.456054688 599.434570312 c 0
 180.045898438 606.485351562 185.688476562 610.716796875 189.918945312 613.537109375 c 0
EndSplineSet
Validated: 1
MultipleSubs2: "Mehrfache Substitution in Lateinisch Nachschlagetabelle 5-1" alaTok cartTok
Ligature2: "'liga' Standard-Ligaturen in Lateinisch Nachschlagetabelle 1 Glyphen-Daten 1" a l a
Ligature2: "'liga' Standard-Ligaturen in Lateinisch Nachschlagetabelle 1 Glyphen-Daten 0" a l a space
EndChar

StartChar: alasaTok
Encoding: 259 989443 3
Width: 845
VWidth: 968
Flags: W
HStem: 316.928 47.5117<172.998 274.227 322.637 447.552> 326.581 45.1279<352.327 447.552 499.381 509.031> 519.786 49.3584<326.801 391.205>
VStem: 254.68 50.3848<40.3655 210.108> 273.497 44.248<104.058 314.968 420.421 501.334>
LayerCount: 2
Fore
SplineSet
359.0390625 319.529296875 m 0x70
 346.345703125 319.529296875 335.063476562 319.529296875 322.37109375 318.119140625 c 1
 316.729492188 311.067382812 318.140625 302.606445312 319.55078125 294.14453125 c 0
 319.55078125 281.453125 315.3203125 270.169921875 316.729492188 258.888671875 c 0
 316.729492188 241.965820312 313.909179688 225.04296875 313.909179688 208.119140625 c 0
 311.088867188 186.965820312 309.6796875 164.401367188 308.268554688 141.836914062 c 0
 307.127929688 129.286132812 305.064453125 116.734375 305.064453125 103.435546875 c 0
 305.064453125 100.298828125 305.1796875 97.119140625 305.448242188 93.888671875 c 1
 311.088867188 96.708984375 315.3203125 102.349609375 320.9609375 105.169921875 c 0
 332.243164062 113.6328125 340.705078125 123.50390625 351.986328125 130.555664062 c 0
 359.0390625 136.196289062 364.6796875 141.836914062 370.3203125 147.478515625 c 0
 377.37109375 153.119140625 383.013671875 158.759765625 387.243164062 165.811523438 c 0
 395.705078125 174.2734375 402.756835938 184.14453125 408.397460938 194.016601562 c 0
 415.448242188 203.888671875 418.268554688 213.759765625 425.3203125 222.22265625 c 0
 430.9609375 230.68359375 433.782226562 239.14453125 436.602539062 249.016601562 c 0
 439.422851562 257.478515625 443.654296875 264.529296875 446.474609375 272.991210938 c 0
 449.294921875 282.86328125 450.705078125 292.734375 452.116210938 302.606445312 c 0
 453.525390625 311.067382812 456.345703125 319.529296875 453.525390625 326.581054688 c 1
 422.5 325.169921875 390.063476562 322.349609375 359.0390625 319.529296875 c 0x70
326.602539062 518.375976562 m 0
 323.782226562 512.734375 320.9609375 507.09375 318.140625 501.453125 c 0
 317.858398438 498.9140625 317.745117188 496.318359375 317.745117188 493.677734375 c 0x68
 317.745117188 483.118164062 319.55078125 471.836914062 319.55078125 460.555664062 c 0
 320.9609375 429.529296875 322.37109375 398.50390625 322.37109375 367.478515625 c 1
 328.013671875 366.067382812 335.063476562 366.067382812 340.705078125 366.067382812 c 0
 344.327148438 365.809570312 347.94921875 365.692382812 351.571289062 365.692382812 c 0
 367.692382812 365.692382812 383.813476562 367.99609375 399.936523438 370.298828125 c 0
 408.397460938 373.119140625 416.859375 370.298828125 423.909179688 371.708984375 c 0
 432.37109375 373.119140625 440.833984375 371.708984375 447.883789062 373.119140625 c 1
 447.883789062 384.401367188 442.243164062 395.68359375 439.422851562 405.555664062 c 0
 435.19140625 422.478515625 429.55078125 436.581054688 422.5 452.09375 c 0
 421.088867188 460.555664062 414.0390625 466.196289062 411.217773438 473.247070312 c 0
 402.756835938 488.759765625 390.063476562 501.453125 374.55078125 508.50390625 c 0
 363.268554688 515.555664062 350.577148438 516.965820312 339.294921875 519.786132812 c 0
 335.063476562 519.786132812 330.833984375 519.786132812 326.602539062 518.375976562 c 0
295.577148438 569.14453125 m 0
 301.217773438 574.786132812 309.6796875 571.965820312 316.729492188 570.555664062 c 0
 323.782226562 569.14453125 332.243164062 569.14453125 339.294921875 569.14453125 c 0
 353.397460938 567.734375 366.088867188 562.09375 380.19140625 557.86328125 c 0
 390.063476562 555.04296875 397.116210938 547.991210938 406.986328125 542.349609375 c 0
 412.627929688 539.529296875 415.448242188 532.478515625 421.088867188 528.247070312 c 0
 430.9609375 522.606445312 433.782226562 512.734375 440.833984375 504.2734375 c 0
 446.474609375 498.6328125 449.294921875 491.581054688 453.525390625 484.529296875 c 0
 460.577148438 473.247070312 464.806640625 460.555664062 470.448242188 446.453125 c 0
 477.5 432.349609375 481.729492188 415.426757812 487.37109375 399.9140625 c 0
 490.19140625 391.453125 491.602539062 382.991210938 494.422851562 375.939453125 c 1
 515.577148438 375.939453125 536.729492188 374.529296875 557.883789062 371.708984375 c 0
 564.936523438 370.298828125 571.986328125 370.298828125 579.0390625 368.888671875 c 0
 586.088867188 367.478515625 591.729492188 371.708984375 597.37109375 374.529296875 c 1
 593.140625 377.349609375 588.909179688 380.169921875 586.088867188 382.991210938 c 0
 579.0390625 391.453125 569.166015625 398.50390625 559.294921875 404.14453125 c 0
 553.654296875 408.375976562 546.602539062 411.196289062 542.37109375 416.836914062 c 0
 538.140625 423.888671875 533.909179688 430.939453125 529.6796875 437.991210938 c 1
 531.088867188 445.04296875 532.5 450.68359375 536.729492188 456.32421875 c 0
 540.9609375 459.14453125 546.602539062 461.965820312 550.833984375 461.965820312 c 0
 571.986328125 454.9140625 586.088867188 440.811523438 603.013671875 429.529296875 c 0
 607.243164062 426.708984375 610.063476562 421.067382812 614.294921875 418.247070312 c 0
 622.756835938 414.016601562 629.806640625 406.965820312 638.268554688 401.32421875 c 0
 642.5 398.50390625 648.140625 399.9140625 652.37109375 398.50390625 c 0
 658.013671875 394.2734375 662.243164062 387.22265625 666.474609375 381.581054688 c 0
 669.294921875 377.349609375 673.525390625 371.708984375 673.525390625 366.067382812 c 0
 673.525390625 357.606445312 666.474609375 351.965820312 663.654296875 344.9140625 c 0
 656.602539062 332.22265625 646.729492188 319.529296875 636.859375 306.836914062 c 0
 632.627929688 299.786132812 626.986328125 295.555664062 622.756835938 289.9140625 c 0
 619.936523438 285.68359375 618.525390625 281.453125 615.705078125 278.6328125 c 0
 608.654296875 270.169921875 603.013671875 260.298828125 595.9609375 251.836914062 c 0
 591.729492188 246.196289062 587.5 239.14453125 583.268554688 232.09375 c 0
 579.0390625 225.04296875 569.166015625 220.811523438 560.705078125 217.991210938 c 0
 557.883789062 219.401367188 555.063476562 223.6328125 552.243164062 226.453125 c 0
 548.013671875 229.2734375 545.19140625 234.9140625 543.782226562 240.555664062 c 0
 542.37109375 250.426757812 545.19140625 258.888671875 549.422851562 265.939453125 c 0
 555.063476562 278.6328125 564.936523438 285.68359375 570.577148438 296.965820312 c 0
 576.217773438 304.016601562 581.859375 311.067382812 586.088867188 319.529296875 c 1
 576.217773438 320.939453125 566.345703125 322.349609375 556.474609375 322.349609375 c 0
 540.700195312 323.563476562 524.924804688 326.865234375 509.151367188 326.865234375 c 0
 506.592773438 326.865234375 504.033203125 326.778320312 501.474609375 326.581054688 c 0x68
 498.654296875 318.119140625 500.063476562 308.247070312 498.654296875 301.196289062 c 0
 494.422851562 288.50390625 494.422851562 275.811523438 490.19140625 264.529296875 c 0
 483.140625 243.375976562 474.6796875 223.6328125 464.806640625 203.888671875 c 0
 461.986328125 198.247070312 460.577148438 192.606445312 457.756835938 186.965820312 c 0
 453.525390625 178.50390625 447.883789062 168.6328125 440.833984375 160.169921875 c 0
 435.19140625 150.298828125 429.55078125 139.016601562 421.088867188 130.555664062 c 0
 408.397460938 116.453125 394.294921875 105.169921875 381.602539062 92.478515625 c 0
 367.5 79.7861328125 351.986328125 67.09375 333.654296875 60.04296875 c 0
 326.602539062 57.22265625 320.9609375 52.9912109375 313.909179688 51.5810546875 c 0
 311.088867188 50.169921875 308.268554688 50.169921875 304.0390625 48.759765625 c 0
 298.397460938 43.119140625 295.577148438 33.2470703125 287.116210938 29.0166015625 c 0
 282.883789062 26.1962890625 277.243164062 27.6064453125 271.602539062 30.4267578125 c 0
 268.782226562 33.2470703125 265.9609375 38.888671875 261.729492188 41.708984375 c 0
 260.3203125 44.529296875 254.6796875 45.939453125 254.6796875 50.169921875 c 0
 254.6796875 58.6328125 254.6796875 68.50390625 257.5 76.9658203125 c 0
 258.909179688 85.4267578125 257.5 93.888671875 258.909179688 102.349609375 c 0
 260.3203125 113.6328125 260.3203125 126.32421875 261.729492188 137.606445312 c 0
 263.140625 146.067382812 261.729492188 153.119140625 263.140625 161.581054688 c 0
 267.37109375 182.734375 267.37109375 205.298828125 270.19140625 226.453125 c 0
 270.19140625 233.50390625 270.19140625 240.555664062 270.19140625 247.606445312 c 0
 273.013671875 263.119140625 273.013671875 278.6328125 274.422851562 294.14453125 c 0
 275.833984375 301.196289062 277.243164062 308.247070312 274.422851562 315.298828125 c 0
 270.25 316.491210938 265.57421875 316.927734375 260.713867188 316.927734375 c 0
 254.07421875 316.927734375 247.090820312 316.11328125 240.577148438 315.298828125 c 0
 232.115234375 315.298828125 223.301757812 314.946289062 214.487304688 314.946289062 c 0
 205.672851562 314.946289062 196.859375 315.298828125 188.397460938 316.708984375 c 0
 184.166015625 316.708984375 182.756835938 322.349609375 179.936523438 325.169921875 c 0
 177.116210938 332.22265625 171.474609375 337.86328125 171.474609375 346.32421875 c 0
 171.474609375 351.965820312 172.883789062 357.606445312 177.116210938 360.426757812 c 0
 184.166015625 363.247070312 194.0390625 364.657226562 202.5 364.657226562 c 0
 216.602539062 364.657226562 230.705078125 364.657226562 243.397460938 366.067382812 c 0
 250.724609375 365.25390625 257.58203125 364.439453125 264.512695312 364.439453125 c 0xb0
 269.586914062 364.439453125 274.69921875 364.875976562 280.063476562 366.067382812 c 1
 280.063476562 375.092773438 278.258789062 384.1171875 278.258789062 393.141601562 c 0
 278.258789062 395.399414062 278.372070312 397.657226562 278.654296875 399.9140625 c 0
 279.33203125 406.357421875 279.602539062 412.881835938 279.602539062 419.448242188 c 0
 279.602539062 440.19140625 276.904296875 461.357421875 275.833984375 481.708984375 c 0
 274.181640625 490.798828125 273.497070312 499.88671875 273.497070312 508.974609375 c 0
 273.497070312 515.399414062 273.838867188 521.823242188 274.422851562 528.247070312 c 0
 274.422851562 533.888671875 281.474609375 535.298828125 284.294921875 539.529296875 c 0
 287.116210938 549.401367188 287.116210938 562.09375 295.577148438 569.14453125 c 0
EndSplineSet
Validated: 33
MultipleSubs2: "Mehrfache Substitution in Lateinisch Nachschlagetabelle 5-1" alasaTok cartTok
Ligature2: "'liga' Standard-Ligaturen in Lateinisch Nachschlagetabelle 1 Glyphen-Daten 1" a l a s a
Ligature2: "'liga' Standard-Ligaturen in Lateinisch Nachschlagetabelle 1 Glyphen-Daten 0" a l a s a space
EndChar

StartChar: aleTok
Encoding: 260 989444 4
Width: 845
VWidth: 1011
Flags: W
HStem: 186.294 52.1211<523.613 661.505>
VStem: 91.168 42.4258<227.635 344.08>
LayerCount: 2
Fore
SplineSet
571.909179688 362.80078125 m 0
 566.268554688 358.569335938 559.216796875 355.749023438 554.986328125 351.518554688 c 0
 549.345703125 345.877929688 542.29296875 341.647460938 536.65234375 336.005859375 c 0
 526.78125 326.134765625 516.909179688 317.672851562 507.038085938 309.2109375 c 0
 497.166015625 303.569335938 490.115234375 296.518554688 481.65234375 289.467773438 c 1
 491.525390625 278.185546875 504.216796875 272.544921875 516.909179688 264.083007812 c 0
 532.421875 254.2109375 550.755859375 248.569335938 569.088867188 242.928710938 c 0
 583.649414062 241.715820312 597.166015625 238.415039062 611.434570312 238.415039062 c 0
 613.75 238.415039062 616.0859375 238.501953125 618.448242188 238.698242188 c 0
 633.959960938 240.108398438 648.0625 241.518554688 662.166015625 247.159179688 c 0
 667.806640625 249.98046875 670.626953125 254.2109375 674.858398438 257.03125 c 0
 686.139648438 265.493164062 691.78125 276.775390625 698.83203125 289.467773438 c 0
 700.2421875 293.698242188 704.47265625 299.338867188 703.0625 304.98046875 c 0
 701.65234375 313.44140625 698.83203125 320.493164062 696.01171875 328.955078125 c 0
 687.549804688 344.467773438 673.448242188 354.338867188 659.345703125 364.2109375 c 0
 647.9765625 370.52734375 635.477539062 375.7109375 621.848632812 375.7109375 c 0
 620.259765625 375.7109375 618.657226562 375.640625 617.038085938 375.493164062 c 0
 601.525390625 375.493164062 584.6015625 372.672851562 571.909179688 362.80078125 c 0
175.626953125 383.955078125 m 0
 169.986328125 382.544921875 162.935546875 381.134765625 158.704101562 375.493164062 c 0
 150.2421875 365.62109375 137.549804688 357.159179688 134.729492188 344.467773438 c 0
 133.942382812 336.198242188 133.59375 328.038085938 133.59375 319.95703125 c 0
 133.59375 299.099609375 135.911132812 278.771484375 138.959960938 258.44140625 c 0
 141.78125 242.928710938 150.2421875 228.826171875 162.935546875 220.365234375 c 0
 169.986328125 216.134765625 179.858398438 216.134765625 188.319335938 216.134765625 c 0
 192.458007812 215.1796875 196.524414062 214.799804688 200.55078125 214.799804688 c 0
 214.364257812 214.799804688 227.71484375 219.2734375 241.909179688 220.365234375 c 0
 257.421875 221.775390625 271.525390625 226.005859375 285.626953125 230.236328125 c 0
 292.678710938 234.467773438 301.139648438 237.288085938 308.19140625 240.108398438 c 0
 315.2421875 244.338867188 322.29296875 248.569335938 329.345703125 251.390625 c 0
 344.858398438 257.03125 358.959960938 268.313476562 373.0625 276.775390625 c 0
 380.115234375 279.595703125 385.755859375 283.826171875 391.396484375 288.057617188 c 1
 374.47265625 299.338867188 356.139648438 307.80078125 337.806640625 314.8515625 c 0
 332.166015625 319.083007812 326.525390625 321.903320312 320.8828125 324.724609375 c 0
 312.421875 328.955078125 303.959960938 334.595703125 295.499023438 338.826171875 c 0
 287.038085938 343.057617188 278.576171875 345.877929688 270.115234375 350.108398438 c 0
 254.6015625 358.569335938 237.678710938 367.03125 223.576171875 376.903320312 c 0
 216.525390625 379.724609375 210.8828125 383.955078125 205.2421875 385.365234375 c 0
 195.37109375 386.775390625 185.499023438 386.775390625 175.626953125 383.955078125 c 0
171.396484375 434.724609375 m 0
 177.374023438 435.579101562 183.3515625 436.044921875 189.290039062 436.044921875 c 0
 202.965820312 436.044921875 216.43359375 433.573242188 229.216796875 427.672851562 c 0
 253.19140625 414.98046875 277.166015625 399.467773438 302.549804688 388.185546875 c 0
 313.83203125 381.134765625 323.704101562 374.083007812 336.396484375 369.8515625 c 0
 347.678710938 365.62109375 358.959960938 359.98046875 368.83203125 352.928710938 c 0
 380.115234375 347.288085938 394.216796875 343.057617188 405.499023438 334.595703125 c 0
 409.729492188 331.775390625 415.37109375 330.365234375 421.01171875 327.544921875 c 0
 426.65234375 324.724609375 430.8828125 320.493164062 436.525390625 319.083007812 c 0
 443.576171875 320.493164062 447.806640625 323.313476562 452.038085938 327.544921875 c 0
 459.088867188 333.185546875 466.139648438 338.826171875 473.19140625 344.467773438 c 0
 480.2421875 351.518554688 484.47265625 359.98046875 490.115234375 365.62109375 c 0
 495.755859375 371.262695312 502.806640625 375.493164062 507.038085938 381.134765625 c 0
 512.678710938 389.595703125 523.959960938 393.826171875 532.421875 400.877929688 c 0
 540.8828125 407.928710938 550.755859375 412.159179688 562.038085938 416.390625 c 0
 576.139648438 422.03125 587.421875 431.903320312 601.525390625 433.313476562 c 0
 622.678710938 431.903320312 642.421875 424.8515625 662.166015625 422.03125 c 0
 670.626953125 419.2109375 681.909179688 416.390625 687.549804688 409.338867188 c 0
 694.6015625 402.288085938 703.0625 398.057617188 710.115234375 391.005859375 c 0
 712.935546875 385.365234375 718.576171875 381.134765625 724.216796875 375.493164062 c 0
 735.499023438 358.569335938 743.959960938 340.236328125 748.19140625 319.083007812 c 0
 749.6015625 314.8515625 752.421875 309.2109375 753.83203125 303.569335938 c 0
 753.83203125 296.518554688 752.421875 288.057617188 748.19140625 281.005859375 c 0
 743.959960938 275.365234375 742.549804688 266.903320312 738.319335938 259.8515625 c 0
 735.499023438 255.62109375 732.678710938 248.569335938 729.858398438 244.338867188 c 0
 718.576171875 228.826171875 705.8828125 214.724609375 691.78125 202.03125 c 0
 687.549804688 199.2109375 680.499023438 197.80078125 674.858398438 193.569335938 c 0
 663.576171875 186.518554688 649.47265625 189.338867188 636.78125 187.928710938 c 0
 625.499023438 186.518554688 614.216796875 186.518554688 601.525390625 186.518554688 c 0
 599.979492188 186.364257812 598.416992188 186.293945312 596.840820312 186.293945312 c 0
 584.038085938 186.293945312 570.36328125 190.903320312 557.806640625 192.159179688 c 0
 545.115234375 194.98046875 532.421875 200.62109375 519.729492188 204.8515625 c 0
 508.448242188 210.493164062 498.576171875 216.134765625 488.704101562 224.595703125 c 0
 483.0625 228.826171875 476.01171875 233.057617188 468.959960938 237.288085938 c 0
 459.088867188 244.338867188 450.626953125 255.62109375 439.345703125 259.8515625 c 1
 430.8828125 258.44140625 422.421875 252.80078125 415.37109375 248.569335938 c 0
 404.088867188 240.108398438 391.396484375 231.647460938 380.115234375 223.185546875 c 0
 373.0625 220.365234375 366.01171875 214.724609375 358.959960938 210.493164062 c 0
 342.038085938 202.03125 326.525390625 194.98046875 309.6015625 186.518554688 c 0
 302.549804688 183.698242188 295.499023438 182.288085938 288.448242188 180.877929688 c 0
 278.576171875 176.647460938 267.29296875 172.416015625 256.01171875 172.416015625 c 0
 237.678710938 169.595703125 219.345703125 165.365234375 201.01171875 163.955078125 c 1
 178.448242188 168.185546875 154.47265625 165.365234375 136.139648438 180.877929688 c 0
 130.499023438 185.108398438 126.268554688 190.749023438 120.626953125 196.390625 c 0
 110.755859375 206.262695312 106.525390625 220.365234375 102.29296875 233.057617188 c 0
 96.65234375 248.569335938 95.2421875 265.493164062 92.421875 281.005859375 c 0
 91.4814453125 286.176757812 91.16796875 291.34765625 91.16796875 296.518554688 c 0
 91.16796875 306.860351562 92.421875 317.202148438 92.421875 327.544921875 c 0
 92.421875 336.005859375 89.6015625 344.467773438 92.421875 352.928710938 c 0
 95.2421875 365.62109375 96.65234375 379.724609375 105.115234375 389.595703125 c 0
 117.806640625 405.108398438 133.319335938 417.80078125 150.2421875 427.672851562 c 0
 155.8828125 431.903320312 164.345703125 433.313476562 171.396484375 434.724609375 c 0
EndSplineSet
Validated: 1
MultipleSubs2: "Mehrfache Substitution in Lateinisch Nachschlagetabelle 5-1" aleTok cartTok
Ligature2: "'liga' Standard-Ligaturen in Lateinisch Nachschlagetabelle 1 Glyphen-Daten 1" a l i
Ligature2: "'liga' Standard-Ligaturen in Lateinisch Nachschlagetabelle 1 Glyphen-Daten 1" a l e
Ligature2: "'liga' Standard-Ligaturen in Lateinisch Nachschlagetabelle 1 Glyphen-Daten 0" a l i space
Ligature2: "'liga' Standard-Ligaturen in Lateinisch Nachschlagetabelle 1 Glyphen-Daten 0" a l e space
EndChar

StartChar: anpaTok
Encoding: 261 989445 5
Width: 845
VWidth: 986
Flags: W
HStem: 243.189 51.543<233.47 265.925 267.28 557.163> 250.593 52.4053<435.454 476.12 476.587 611.152>
VStem: 191.162 46.5391<396.971 485.972> 193.982 50.7695<293.826 472.818> 380.805 74.8125<88.9617 147.277> 617.687 48.7314<310.154 513.98>
LayerCount: 2
Fore
SplineSet
404.111328125 165.9765625 m 0x0c
 409.751953125 167.387695312 415.392578125 164.56640625 421.034179688 163.15625 c 0
 430.905273438 158.92578125 440.77734375 156.10546875 449.23828125 147.643554688 c 0
 454.111328125 139.84765625 455.6171875 130.705078125 455.6171875 121.610351562 c 0
 455.6171875 117.544921875 455.31640625 113.48828125 454.880859375 109.56640625 c 0
 453.469726562 98.28515625 443.59765625 89.8232421875 433.725585938 85.5927734375 c 0
 426.674804688 82.7724609375 416.802734375 79.9521484375 409.751953125 84.1826171875 c 0
 402.701171875 88.4130859375 397.059570312 92.6435546875 391.41796875 98.28515625 c 0
 385.637695312 106.376953125 380.8046875 116.365234375 380.8046875 126.6953125 c 0
 380.8046875 128.966796875 381.038085938 131.25390625 381.546875 133.541992188 c 0
 385.77734375 146.233398438 391.41796875 160.3359375 404.111328125 165.9765625 c 0x0c
625.521484375 514.310546875 m 0
 629.751953125 518.541992188 638.213867188 518.541992188 643.854492188 517.131835938 c 0
 652.315429688 512.900390625 662.1875 507.258789062 666.41796875 498.797851562 c 0
 669.239257812 484.6953125 666.41796875 472.002929688 669.239257812 457.900390625 c 0
 669.521484375 455.080078125 669.633789062 452.260742188 669.633789062 449.44140625 c 0
 669.633789062 438.158203125 667.828125 426.875 667.828125 415.592773438 c 0
 668.110351562 412.20703125 668.223632812 408.764648438 668.223632812 405.2890625 c 0
 668.223632812 391.389648438 666.41796875 376.950195312 666.41796875 363.413085938 c 0
 666.41796875 353.541992188 666.41796875 342.258789062 666.41796875 330.9765625 c 0
 666.41796875 323.92578125 666.065429688 316.521484375 666.065429688 308.94140625 c 0
 666.065429688 301.361328125 666.41796875 293.60546875 667.828125 285.848632812 c 0
 667.828125 277.387695312 669.239257812 268.92578125 665.0078125 261.875 c 0
 659.3671875 252.002929688 653.725585938 243.541992188 642.444335938 240.720703125 c 0
 638.213867188 239.310546875 632.572265625 237.900390625 626.931640625 237.900390625 c 0
 617.059570312 240.720703125 607.1875 246.362304688 595.905273438 246.362304688 c 0
 586.034179688 247.772460938 576.162109375 250.592773438 566.291015625 250.592773438 c 0x5c
 547.95703125 250.592773438 531.034179688 246.362304688 514.111328125 246.362304688 c 0
 504.23828125 246.362304688 494.3671875 246.362304688 484.495117188 244.952148438 c 0
 481.8125 244.654296875 479.130859375 244.544921875 476.461914062 244.544921875 c 0
 469.170898438 244.544921875 461.978515625 245.359375 455.157226562 245.359375 c 0
 452.66015625 245.359375 450.212890625 245.25 447.828125 244.952148438 c 0
 440.77734375 243.541992188 434.078125 243.189453125 427.379882812 243.189453125 c 0
 420.681640625 243.189453125 413.982421875 243.541992188 406.931640625 243.541992188 c 0
 391.41796875 243.541992188 377.315429688 240.720703125 361.802734375 240.720703125 c 0
 357.267578125 241.098632812 352.631835938 241.274414062 347.94921875 241.274414062 c 0
 335.15625 241.274414062 322.01171875 239.96484375 309.624023438 237.900390625 c 0
 295.518554688 237.900390625 281.060546875 237.546875 266.602539062 237.546875 c 0
 252.150390625 237.546875 237.698242188 237.899414062 223.59765625 239.310546875 c 0
 209.495117188 239.310546875 195.392578125 243.541992188 185.521484375 253.413085938 c 0
 179.880859375 259.0546875 177.059570312 267.515625 175.649414062 274.56640625 c 0
 174.23828125 283.028320312 178.469726562 290.079101562 179.880859375 298.541992188 c 0
 182.701171875 312.643554688 186.931640625 325.3359375 188.341796875 339.438476562 c 0
 189.751953125 356.362304688 193.982421875 373.28515625 193.982421875 390.208007812 c 0x9c
 193.982421875 405.720703125 193.982421875 419.823242188 192.572265625 435.3359375 c 0
 191.162109375 448.028320312 191.162109375 460.720703125 191.162109375 473.413085938 c 0
 192.572265625 479.0546875 192.572265625 483.28515625 195.392578125 486.10546875 c 0
 202.444335938 491.74609375 210.905273438 491.74609375 217.95703125 490.3359375 c 0
 230.649414062 488.92578125 236.291015625 477.643554688 237.701171875 466.362304688 c 0xac
 240.521484375 442.387695312 244.751953125 419.823242188 244.751953125 395.848632812 c 0
 244.751953125 381.74609375 241.931640625 367.643554688 240.521484375 352.131835938 c 0
 239.111328125 332.387695312 236.291015625 312.643554688 233.469726562 292.900390625 c 1
 250.422851562 291.90234375 266.669921875 290.905273438 283.209960938 290.905273438 c 0
 290.060546875 290.905273438 296.9609375 291.076171875 303.982421875 291.489257812 c 0
 308.494140625 291.20703125 312.94921875 291.094726562 317.37109375 291.094726562 c 0
 335.0625 291.094726562 352.212890625 292.900390625 370.264648438 292.900390625 c 0
 380.13671875 294.310546875 388.59765625 295.720703125 397.059570312 294.310546875 c 0
 402.701171875 292.900390625 408.341796875 292.900390625 412.572265625 294.310546875 c 0
 415.447265625 294.629882812 418.250976562 294.732421875 420.998046875 294.732421875 c 0x9c
 425.897460938 294.732421875 430.618164062 294.40625 435.254882812 294.40625 c 0
 439.493164062 294.40625 443.661132812 294.678710938 447.828125 295.720703125 c 0
 460.521484375 297.131835938 471.802734375 295.720703125 483.084960938 298.541992188 c 0
 492.95703125 299.952148438 501.41796875 298.541992188 511.291015625 299.952148438 c 0
 526.521484375 302.490234375 542.259765625 302.998046875 557.896484375 302.998046875 c 0x5c
 568.321289062 302.998046875 578.700195312 302.772460938 588.854492188 302.772460938 c 0
 597.315429688 301.362304688 605.77734375 304.182617188 611.41796875 309.823242188 c 0
 612.828125 316.875 612.828125 323.92578125 614.239257812 330.9765625 c 0
 617.059570312 345.079101562 614.239257812 359.182617188 617.059570312 371.875 c 0
 617.529296875 376.10546875 617.686523438 380.178710938 617.686523438 384.1484375 c 0
 617.686523438 392.087890625 617.059570312 399.609375 617.059570312 407.131835938 c 0
 617.059570312 417.002929688 619.880859375 425.46484375 619.880859375 435.3359375 c 0
 619.17578125 443.091796875 618.822265625 450.848632812 618.822265625 458.428710938 c 0
 618.822265625 466.008789062 619.17578125 473.413085938 619.880859375 480.46484375 c 0
 619.880859375 484.091796875 619.765625 487.604492188 619.765625 491.001953125 c 0
 619.765625 499.490234375 620.485351562 507.259765625 625.521484375 514.310546875 c 0
EndSplineSet
Validated: 33
MultipleSubs2: "Mehrfache Substitution in Lateinisch Nachschlagetabelle 5-1" anpaTok cartTok
Ligature2: "'liga' Standard-Ligaturen in Lateinisch Nachschlagetabelle 1 Glyphen-Daten 1" a n p a
Ligature2: "'liga' Standard-Ligaturen in Lateinisch Nachschlagetabelle 1 Glyphen-Daten 0" a n p a space
EndChar

StartChar: anteTok
Encoding: 262 989446 6
Width: 845
VWidth: 958
Flags: W
HStem: 204.615 56.4102<392.441 414.674> 523.334 50.7686<623.985 672.552>
LayerCount: 2
Fore
SplineSet
403.58984375 261.025390625 m 0
 407.8203125 261.025390625 410.640625 265.256835938 414.87109375 266.666992188 c 0
 420.512695312 265.256835938 426.153320312 263.845703125 430.383789062 259.615234375 c 0
 437.435546875 252.564453125 448.717773438 248.333984375 457.1796875 241.282226562 c 0
 467.05078125 232.821289062 478.333007812 225.76953125 486.793945312 217.30859375 c 0
 502.307617188 203.205078125 519.23046875 191.922851562 534.743164062 179.231445312 c 0
 550.255859375 167.94921875 561.538085938 155.256835938 577.05078125 145.384765625 c 0
 586.922851562 139.744140625 593.973632812 132.692382812 602.435546875 127.051757812 c 0
 623.58984375 111.5390625 643.333007812 93.205078125 664.486328125 76.2822265625 c 0
 671.538085938 70.6416015625 682.8203125 67.8212890625 687.05078125 59.359375 c 0
 691.28125 55.12890625 695.512695312 46.6669921875 689.87109375 42.435546875 c 0
 680 32.564453125 668.717773438 21.2822265625 654.614257812 21.2822265625 c 0
 647.563476562 21.2822265625 641.922851562 25.5126953125 634.87109375 28.333984375 c 0
 622.1796875 35.384765625 615.127929688 48.078125 605.255859375 56.5390625 c 0
 582.69140625 73.4619140625 560.127929688 88.974609375 538.973632812 107.30859375 c 0
 523.4609375 120 507.948242188 131.282226562 492.435546875 143.974609375 c 0
 483.973632812 153.845703125 471.28125 158.078125 462.8203125 167.94921875 c 0
 447.307617188 182.051757812 430.383789062 193.333984375 412.05078125 204.615234375 c 0
 406.41015625 207.435546875 402.1796875 201.794921875 397.948242188 198.974609375 c 0
 373.973632812 176.411132812 344.358398438 159.48828125 317.563476562 138.333984375 c 0
 310.512695312 132.692382812 300.640625 129.872070312 293.58984375 124.231445312 c 0
 282.307617188 115.76953125 269.614257812 107.30859375 258.333007812 98.845703125 c 0
 245.640625 88.974609375 230.127929688 83.333984375 218.845703125 72.0517578125 c 0
 210.383789062 67.8212890625 201.922851562 63.58984375 193.4609375 59.359375 c 0
 187.8203125 56.5390625 182.1796875 59.359375 177.948242188 63.58984375 c 0
 172.307617188 67.8212890625 175.127929688 76.2822265625 175.127929688 81.9228515625 c 1
 190.640625 90.384765625 203.333007812 104.48828125 217.435546875 114.359375 c 0
 251.28125 134.102539062 280.897460938 158.078125 311.922851562 179.231445312 c 0
 320.383789062 184.872070312 327.435546875 193.333984375 334.486328125 198.974609375 c 0
 341.538085938 203.205078125 347.1796875 206.025390625 351.41015625 211.666992188 c 0
 361.28125 222.94921875 371.153320312 230 378.204101562 241.282226562 c 0
 383.845703125 246.922851562 385.255859375 255.384765625 392.307617188 259.615234375 c 0
 395.127929688 261.025390625 399.358398438 261.025390625 403.58984375 261.025390625 c 0
172.307617188 575.512695312 m 0
 177.948242188 576.922851562 182.1796875 579.744140625 187.8203125 578.333984375 c 0
 199.102539062 578.333984375 208.973632812 572.692382812 218.845703125 567.051757812 c 0
 225.897460938 564.231445312 232.948242188 561.411132812 240 557.1796875 c 0
 251.28125 548.71875 263.973632812 543.078125 275.255859375 534.615234375 c 0
 285.127929688 526.154296875 295 517.692382812 304.87109375 509.231445312 c 0
 326.024414062 495.12890625 342.948242188 478.205078125 361.28125 461.282226562 c 0
 372.563476562 450 383.845703125 438.71875 396.538085938 428.845703125 c 0
 406.41015625 421.794921875 414.87109375 411.922851562 424.743164062 404.872070312 c 1
 441.666015625 416.154296875 452.948242188 433.078125 468.4609375 445.76953125 c 0
 476.922851562 451.411132812 485.383789062 459.872070312 493.845703125 466.922851562 c 0
 512.1796875 482.435546875 530.512695312 495.12890625 548.845703125 510.641601562 c 0
 564.358398438 521.922851562 579.87109375 533.205078125 595.383789062 543.078125 c 0
 606.666015625 550.12890625 612.307617188 562.821289062 623.58984375 568.461914062 c 0
 632.05078125 571.282226562 639.102539062 574.102539062 647.563476562 574.102539062 c 0
 654.614257812 572.692382812 658.845703125 567.051757812 664.486328125 562.821289062 c 0
 671.538085938 557.1796875 675.768554688 548.71875 672.948242188 540.256835938 c 0
 668.717773438 534.615234375 664.486328125 527.564453125 657.435546875 523.333984375 c 0
 646.153320312 517.692382812 636.28125 513.461914062 626.41015625 506.411132812 c 0
 616.538085938 500.76953125 606.666015625 495.12890625 598.204101562 488.078125 c 0
 589.743164062 479.615234375 579.87109375 475.384765625 571.41015625 466.922851562 c 0
 562.948242188 459.872070312 553.076171875 455.641601562 546.024414062 448.58984375 c 0
 533.333007812 437.30859375 520.640625 426.025390625 507.948242188 414.744140625 c 0
 500.897460938 409.102539062 495.255859375 400.641601562 488.204101562 395 c 0
 474.102539062 382.30859375 464.23046875 366.794921875 451.538085938 354.102539062 c 0
 443.076171875 347.051757812 431.793945312 341.411132812 420.512695312 340 c 0
 406.41015625 341.411132812 396.538085938 354.102539062 388.076171875 363.974609375 c 0
 364.102539062 383.71875 342.948242188 406.282226562 320.383789062 426.025390625 c 0
 302.05078125 442.94921875 283.717773438 459.872070312 263.973632812 475.384765625 c 0
 244.23046875 492.30859375 223.076171875 509.231445312 199.102539062 520.512695312 c 0
 189.23046875 524.744140625 177.948242188 527.564453125 166.666015625 531.794921875 c 0
 159.419921875 535.416992188 152.41015625 540.408203125 152.41015625 546.16015625 c 0
 152.41015625 559.184570312 160.540039062 571.590820312 172.307617188 575.512695312 c 0
EndSplineSet
Validated: 1
MultipleSubs2: "Mehrfache Substitution in Lateinisch Nachschlagetabelle 5-1" anteTok cartTok
Ligature2: "'liga' Standard-Ligaturen in Lateinisch Nachschlagetabelle 1 Glyphen-Daten 1" a n t e
Ligature2: "'liga' Standard-Ligaturen in Lateinisch Nachschlagetabelle 1 Glyphen-Daten 0" a n t e space
EndChar

StartChar: anuTok
Encoding: 263 989447 7
Width: 845
VWidth: 955
Flags: W
VStem: 403.399 51.1914<-5.0901 299.076>
LayerCount: 2
Fore
SplineSet
597.026367188 609.444335938 m 0
 604.077148438 613.674804688 609.71875 608.034179688 616.770507812 605.213867188 c 0
 621.000976562 603.803710938 625.231445312 602.393554688 629.462890625 598.163085938 c 0
 632.283203125 591.111328125 635.103515625 581.239257812 630.873046875 574.1875 c 0
 621.000976562 561.49609375 609.71875 548.803710938 599.846679688 534.701171875 c 0
 597.026367188 527.649414062 592.795898438 520.59765625 588.564453125 514.95703125 c 0
 574.462890625 495.213867188 561.770507812 475.469726562 550.487304688 454.31640625 c 0
 539.206054688 430.341796875 525.103515625 407.77734375 513.821289062 383.803710938 c 0
 506.770507812 371.111328125 499.71875 357.008789062 492.666992188 342.90625 c 0
 487.026367188 333.034179688 481.384765625 324.573242188 477.154296875 314.701171875 c 0
 468.693359375 297.77734375 454.590820312 282.264648438 453.180664062 262.521484375 c 0
 453.180664062 241.3671875 453.180664062 218.803710938 454.590820312 197.649414062 c 0
 451.770507812 166.624023438 454.590820312 134.1875 451.770507812 103.163085938 c 0
 451.770507812 89.0595703125 453.180664062 74.95703125 453.180664062 62.2646484375 c 0
 453.180664062 49.5732421875 456.000976562 38.2900390625 460.231445312 27.0087890625 c 0
 460.231445312 22.77734375 463.051757812 19.95703125 461.641601562 15.7265625 c 0
 460.231445312 5.8544921875 456.000976562 -5.4267578125 446.12890625 -8.2470703125 c 0
 439.077148438 -13.888671875 430.616210938 -9.658203125 424.974609375 -5.4267578125 c 0
 413.693359375 1.6240234375 410.873046875 17.13671875 406.641601562 28.4189453125 c 0
 403.821289062 38.2900390625 406.641601562 48.1630859375 405.231445312 58.0341796875 c 0
 402.411132812 67.90625 403.821289062 77.77734375 403.821289062 86.2392578125 c 0
 402.411132812 97.521484375 402.411132812 108.803710938 402.411132812 120.0859375 c 0
 403.821289062 130.663085938 404.173828125 141.592773438 404.173828125 152.698242188 c 0
 404.173828125 163.803710938 403.821289062 175.0859375 403.821289062 186.3671875 c 0
 403.501953125 190.201171875 403.399414062 194.107421875 403.399414062 198.069335938 c 0
 403.399414062 205.13671875 403.724609375 212.381835938 403.724609375 219.711914062 c 0
 403.724609375 226.413085938 403.453125 233.185546875 402.411132812 239.95703125 c 0
 402.411132812 247.008789062 402.411132812 255.469726562 401.000976562 263.931640625 c 0
 398.180664062 275.213867188 391.12890625 285.0859375 385.487304688 293.546875 c 0
 372.795898438 310.469726562 362.923828125 327.393554688 353.051757812 345.7265625 c 0
 348.821289062 354.1875 341.770507812 361.239257812 336.12890625 368.290039062 c 0
 331.897460938 378.163085938 324.846679688 386.624023438 319.206054688 396.49609375 c 0
 310.744140625 406.3671875 303.693359375 419.059570312 298.051757812 431.752929688 c 0
 281.12890625 452.90625 267.026367188 478.290039062 252.923828125 500.854492188 c 0
 241.641601562 516.3671875 231.770507812 531.879882812 221.897460938 548.803710938 c 0
 212.872070312 556.701171875 211.969726562 569.111328125 211.969726562 580.98046875 c 0
 211.969726562 583.947265625 212.026367188 586.880859375 212.026367188 589.701171875 c 0
 216.256835938 591.111328125 221.897460938 592.521484375 226.12890625 588.290039062 c 0
 233.180664062 581.239257812 243.051757812 581.239257812 250.103515625 577.008789062 c 0
 261.384765625 564.31640625 269.846679688 550.213867188 278.307617188 536.111328125 c 0
 286.770507812 524.829101562 292.411132812 512.13671875 300.873046875 502.264648438 c 0
 305.103515625 498.034179688 306.513671875 493.803710938 309.333984375 489.573242188 c 0
 310.744140625 483.931640625 316.384765625 479.701171875 319.206054688 475.469726562 c 0
 331.897460938 458.546875 341.770507812 440.213867188 353.051757812 424.701171875 c 0
 361.513671875 410.59765625 371.384765625 397.90625 379.846679688 385.213867188 c 0
 395.360351562 366.879882812 406.641601562 345.7265625 422.154296875 327.393554688 c 1
 424.974609375 330.213867188 429.206054688 331.624023438 430.616210938 335.854492188 c 0
 439.077148438 354.1875 451.770507812 369.701171875 460.231445312 388.034179688 c 0
 461.641601562 392.264648438 463.051757812 395.0859375 465.873046875 399.31640625 c 0
 472.923828125 407.77734375 475.744140625 417.649414062 481.384765625 426.111328125 c 0
 485.616210938 433.163085938 487.026367188 440.213867188 489.846679688 445.854492188 c 0
 494.077148438 455.7265625 502.5390625 462.77734375 506.770507812 474.059570312 c 0
 512.411132812 486.752929688 522.283203125 498.034179688 529.333984375 510.7265625 c 0
 533.564453125 519.1875 539.206054688 524.829101562 542.026367188 531.879882812 c 0
 544.846679688 537.521484375 550.487304688 543.163085938 553.307617188 548.803710938 c 0
 558.94921875 558.674804688 567.411132812 565.7265625 571.641601562 577.008789062 c 0
 574.462890625 585.469726562 582.923828125 591.111328125 587.154296875 599.573242188 c 0
 588.564453125 603.803710938 591.384765625 609.444335938 597.026367188 609.444335938 c 0
EndSplineSet
Validated: 33
MultipleSubs2: "Mehrfache Substitution in Lateinisch Nachschlagetabelle 5-1" anuTok cartTok
Ligature2: "'liga' Standard-Ligaturen in Lateinisch Nachschlagetabelle 1 Glyphen-Daten 1" a n u
Ligature2: "'liga' Standard-Ligaturen in Lateinisch Nachschlagetabelle 1 Glyphen-Daten 0" a n u space
EndChar

StartChar: awenTok
Encoding: 264 989448 8
Width: 845
VWidth: 973
Flags: W
HStem: 49.3643 62.0508<103.781 182.755> 53.5947 53.5898<77.5266 202.233> 59.4619 59.3584<601.215 760.63>
LayerCount: 2
Fore
SplineSet
356.216796875 545.774414062 m 0x80
 362.9765625 549.154296875 370.2421875 550.635742188 377.59765625 550.635742188 c 0
 394.793945312 550.635742188 412.477539062 542.537109375 425.319335938 531.671875 c 0
 440.83203125 514.749023438 452.114257812 493.594726562 463.395507812 472.44140625 c 0
 469.037109375 455.518554688 476.087890625 440.004882812 481.729492188 423.08203125 c 0
 485.9609375 411.80078125 491.6015625 400.518554688 495.83203125 389.236328125 c 0
 498.65234375 377.954101562 504.293945312 368.08203125 508.524414062 356.80078125 c 0
 509.934570312 348.338867188 514.165039062 338.467773438 518.395507812 330.004882812 c 0
 526.857421875 304.62109375 539.55078125 279.236328125 550.83203125 255.26171875 c 0
 556.473632812 239.749023438 562.114257812 225.646484375 569.165039062 211.543945312 c 0
 574.806640625 197.44140625 579.037109375 184.749023438 586.087890625 172.056640625 c 0
 591.729492188 159.364257812 597.37109375 146.671875 604.421875 135.390625 c 0
 607.2421875 129.749023438 608.65234375 124.108398438 612.883789062 121.288085938 c 0
 619.93359375 119.172851562 626.983398438 118.8203125 634.033203125 118.8203125 c 0
 637.561523438 118.8203125 641.08984375 118.908203125 644.618164062 118.908203125 c 0
 648.142578125 118.908203125 651.666992188 118.8203125 655.19140625 118.467773438 c 0
 665.0625 117.056640625 674.934570312 117.056640625 684.806640625 118.467773438 c 0
 694.677734375 119.877929688 703.139648438 115.646484375 713.01171875 118.467773438 c 0
 721.473632812 118.467773438 729.934570312 121.288085938 736.985351562 118.467773438 c 0
 746.857421875 117.056640625 753.909179688 108.594726562 760.9609375 101.543945312 c 0
 765.19140625 94.4921875 769.421875 86.03125 768.01171875 76.1591796875 c 0
 763.78125 67.6982421875 756.729492188 59.236328125 746.857421875 56.4150390625 c 0
 743.877929688 55.2978515625 740.8984375 54.869140625 737.918945312 54.869140625 c 0
 729.6171875 54.869140625 721.314453125 58.1982421875 713.01171875 59.236328125 c 0
 706.430664062 59.7060546875 699.692382812 59.86328125 692.90234375 59.86328125 c 0
 679.322265625 59.86328125 665.533203125 59.236328125 652.37109375 59.236328125 c 0
 647.294921875 59.236328125 641.9921875 59.4619140625 636.645507812 59.4619140625 c 0x20
 628.623046875 59.4619140625 620.499023438 58.9541015625 612.883789062 56.4150390625 c 0
 604.897460938 55.2744140625 596.91015625 53.2109375 588.176757812 53.2109375 c 0
 586.115234375 53.2109375 584.01171875 53.3251953125 581.857421875 53.5947265625 c 0
 570.575195312 74.7490234375 562.114257812 97.3125 553.65234375 118.467773438 c 0
 549.421875 131.159179688 540.9609375 142.44140625 536.729492188 156.543945312 c 0
 529.677734375 173.467773438 524.037109375 191.80078125 514.165039062 208.723632812 c 0
 505.704101562 225.646484375 500.0625 243.979492188 493.01171875 262.3125 c 0
 484.55078125 277.826171875 478.909179688 294.749023438 471.857421875 311.671875 c 0
 467.626953125 327.184570312 460.575195312 341.288085938 454.934570312 356.80078125 c 0
 449.293945312 382.184570312 435.19140625 403.338867188 428.139648438 427.3125 c 0
 423.909179688 438.594726562 418.267578125 448.467773438 414.037109375 459.749023438 c 0
 408.395507812 469.62109375 404.165039062 482.3125 392.883789062 487.954101562 c 0
 390.0625 485.133789062 388.65234375 482.3125 387.2421875 479.4921875 c 0
 381.6015625 466.80078125 377.37109375 452.698242188 370.319335938 440.004882812 c 0
 364.677734375 430.133789062 363.267578125 417.44140625 359.037109375 407.569335938 c 0
 354.806640625 399.108398438 351.985351562 390.646484375 349.165039062 382.184570312 c 0
 344.934570312 366.671875 337.883789062 352.569335938 335.0625 337.056640625 c 0
 332.2421875 321.543945312 325.19140625 308.8515625 320.9609375 294.749023438 c 0
 316.729492188 283.467773438 313.909179688 270.774414062 309.677734375 258.08203125 c 0
 299.806640625 232.698242188 291.344726562 205.90234375 284.293945312 179.108398438 c 0
 280.0625 165.004882812 275.83203125 150.90234375 273.01171875 136.80078125 c 0
 267.37109375 117.056640625 260.319335938 97.3125 256.087890625 77.5693359375 c 0
 254.677734375 70.5185546875 249.037109375 64.8779296875 241.985351562 63.4677734375 c 0
 226.473632812 56.4150390625 210.9609375 60.646484375 195.447265625 57.826171875 c 0
 175.704101562 55.0048828125 154.55078125 56.4150390625 133.395507812 53.5947265625 c 0x40
 123.524414062 53.5947265625 113.65234375 49.3642578125 103.78125 49.3642578125 c 0x80
 92.498046875 53.5947265625 82.626953125 63.4677734375 76.9853515625 74.7490234375 c 0
 75.5751953125 84.62109375 79.806640625 94.4921875 85.447265625 101.543945312 c 0
 96.7294921875 108.594726562 109.421875 105.774414062 120.704101562 107.184570312 c 0x40
 125.780273438 107.184570312 130.857421875 106.958984375 135.84375 106.958984375 c 0
 143.32421875 106.958984375 150.6015625 107.466796875 157.37109375 110.004882812 c 0
 165.83203125 114.236328125 174.293945312 110.004882812 182.754882812 111.415039062 c 0
 189.806640625 112.826171875 196.857421875 114.236328125 202.498046875 115.646484375 c 0
 206.729492188 118.467773438 208.139648438 122.698242188 209.55078125 126.928710938 c 0
 215.19140625 142.44140625 220.83203125 157.954101562 226.473632812 173.467773438 c 0
 229.293945312 183.338867188 234.934570312 193.2109375 236.344726562 203.08203125 c 0
 237.754882812 211.543945312 240.575195312 220.004882812 244.806640625 228.467773438 c 0
 247.626953125 238.338867188 249.037109375 248.2109375 253.267578125 256.671875 c 0
 257.498046875 265.133789062 261.729492188 276.415039062 264.55078125 286.288085938 c 0
 268.78125 298.979492188 274.421875 310.26171875 278.65234375 321.543945312 c 0
 280.0625 330.004882812 282.883789062 337.056640625 285.704101562 345.518554688 c 0
 291.344726562 362.44140625 292.754882812 380.774414062 301.216796875 397.698242188 c 0
 305.447265625 408.979492188 308.267578125 423.08203125 315.319335938 434.364257812 c 0
 320.9609375 445.646484375 320.9609375 458.338867188 326.6015625 468.2109375 c 0
 333.65234375 487.954101562 340.704101562 509.108398438 349.165039062 530.26171875 c 0
 351.985351562 534.4921875 351.985351562 541.543945312 356.216796875 545.774414062 c 0x80
EndSplineSet
Validated: 1
MultipleSubs2: "Mehrfache Substitution in Lateinisch Nachschlagetabelle 5-1" awenTok cartTok
Ligature2: "'liga' Standard-Ligaturen in Lateinisch Nachschlagetabelle 1 Glyphen-Daten 1" a w e n
Ligature2: "'liga' Standard-Ligaturen in Lateinisch Nachschlagetabelle 1 Glyphen-Daten 0" a w e n space
EndChar

StartChar: eTok
Encoding: 265 989449 9
Width: 845
VWidth: 951
Flags: W
VStem: 704.578 63.4609<288.597 353.103>
LayerCount: 2
Fore
SplineSet
93.9365234375 579.6953125 m 0
 103.80859375 581.106445312 115.090820312 582.516601562 122.141601562 574.0546875 c 0
 148.936523438 545.849609375 182.782226562 524.6953125 212.3984375 499.311523438 c 0
 233.551757812 485.208984375 250.474609375 465.46484375 271.62890625 448.541992188 c 0
 280.090820312 441.491210938 289.961914062 434.439453125 298.423828125 425.978515625 c 0
 309.705078125 418.926757812 316.756835938 407.64453125 328.0390625 400.59375 c 0
 343.551757812 389.311523438 354.833984375 375.208984375 368.936523438 362.516601562 c 0
 377.3984375 356.875 381.62890625 347.00390625 388.6796875 339.952148438 c 0
 394.321289062 330.081054688 398.551757812 321.619140625 402.782226562 311.748046875 c 0
 403.548828125 308.424804688 403.8984375 305.1015625 403.8984375 301.794921875 c 0
 403.8984375 286.860351562 396.762695312 272.26953125 388.6796875 259.568359375 c 0
 374.578125 238.4140625 356.244140625 221.491210938 337.911132812 203.158203125 c 0
 330.859375 194.6953125 323.80859375 187.64453125 316.756835938 180.59375 c 0
 304.064453125 163.670898438 287.141601562 148.158203125 271.62890625 134.0546875 c 0
 261.756835938 125.59375 254.705078125 115.721679688 244.833984375 107.259765625 c 0
 229.321289062 95.978515625 216.62890625 80.46484375 201.115234375 69.1826171875 c 0
 171.500976562 48.029296875 143.294921875 22.64453125 108.0390625 11.3623046875 c 0
 105.857421875 10.69140625 103.716796875 10.3798828125 101.641601562 10.3798828125 c 0
 87.662109375 10.3798828125 76.6796875 24.5283203125 76.6796875 38.30859375 c 0
 76.6796875 49.2197265625 76.6796875 49.2197265625 98.16796875 63.5419921875 c 0
 117.911132812 74.82421875 136.244140625 87.5166015625 154.578125 101.619140625 c 0
 182.782226562 121.362304688 209.578125 143.926757812 233.551757812 167.901367188 c 0
 249.064453125 184.82421875 267.3984375 198.926757812 281.500976562 217.259765625 c 0
 294.192382812 232.772460938 308.294921875 245.46484375 319.578125 260.978515625 c 0
 328.0390625 270.849609375 335.090820312 280.721679688 342.141601562 292.00390625 c 0
 346.372070312 297.64453125 349.192382812 304.6953125 346.372070312 311.748046875 c 0
 340.731445312 321.619140625 335.090820312 330.081054688 326.62890625 338.541992188 c 0
 318.16796875 347.00390625 309.705078125 355.46484375 299.833984375 362.516601562 c 0
 291.372070312 368.158203125 285.731445312 376.619140625 278.6796875 382.259765625 c 0
 263.16796875 394.952148438 249.064453125 406.234375 234.961914062 418.926757812 c 0
 223.6796875 433.029296875 206.756835938 442.901367188 192.654296875 455.59375 c 0
 165.859375 476.748046875 140.474609375 496.491210938 112.26953125 514.82421875 c 0
 103.80859375 521.875 91.115234375 526.106445312 85.474609375 535.978515625 c 0
 81.5009765625 541.541015625 79.767578125 547.999023438 79.767578125 554.596679688 c 0
 79.767578125 559.70703125 80.8076171875 564.899414062 82.654296875 569.82421875 c 0
 84.064453125 575.46484375 88.294921875 579.6953125 93.9365234375 579.6953125 c 0
354.833984375 614.952148438 m 0
 359.064453125 619.182617188 364.705078125 623.4140625 370.346679688 627.64453125 c 1
 377.3984375 627.64453125 384.44921875 626.234375 388.6796875 622.00390625 c 0
 399.961914062 612.131835938 409.833984375 603.670898438 419.705078125 592.388671875 c 0
 429.578125 581.106445312 440.859375 572.64453125 450.731445312 562.772460938 c 0
 464.833984375 550.081054688 480.346679688 540.208984375 495.859375 527.516601562 c 0
 518.423828125 512.00390625 540.98828125 493.670898438 564.961914062 479.568359375 c 0
 574.833984375 473.926757812 583.294921875 466.875 593.16796875 461.234375 c 0
 629.833984375 444.311523438 662.26953125 423.158203125 696.115234375 403.4140625 c 0
 704.578125 399.182617188 711.62890625 392.131835938 718.6796875 386.491210938 c 0
 732.782226562 376.619140625 745.474609375 363.926757812 753.936523438 349.82421875 c 0
 759.578125 341.362304688 768.0390625 334.311523438 768.0390625 324.439453125 c 0
 769.44921875 318.798828125 765.21875 314.568359375 762.3984375 310.337890625 c 0
 755.346679688 299.0546875 751.115234375 287.772460938 742.654296875 276.491210938 c 0
 722.911132812 253.926757812 705.98828125 229.952148438 686.244140625 207.388671875 c 0
 674.961914062 196.106445312 667.911132812 183.4140625 656.62890625 172.131835938 c 0
 650.98828125 165.081054688 646.756835938 158.029296875 639.705078125 150.978515625 c 0
 619.961914062 132.64453125 605.859375 107.259765625 586.115234375 88.9267578125 c 0
 570.602539062 76.234375 559.321289062 60.7216796875 545.21875 48.029296875 c 0
 532.526367188 31.1064453125 517.012695312 17.00390625 504.321289062 0.0810546875 c 0
 500.090820312 -6.970703125 493.0390625 -9.791015625 487.3984375 -15.431640625 c 0
 481.756835938 -19.662109375 477.526367188 -23.8935546875 470.474609375 -26.71484375 c 0
 462.012695312 -29.53515625 453.551757812 -25.3046875 446.500976562 -22.4833984375 c 1
 444.872070312 -16.7841796875 443.243164062 -10.6142578125 443.243164062 -4.517578125 c 0
 443.243164062 -0.0546875 444.116210938 4.3701171875 446.500976562 8.5419921875 c 0
 454.961914062 24.0546875 466.244140625 38.158203125 477.526367188 50.849609375 c 0
 484.578125 62.1318359375 495.859375 69.1826171875 502.911132812 80.46484375 c 0
 517.012695312 93.158203125 529.705078125 107.259765625 542.3984375 122.772460938 c 0
 560.731445312 141.106445312 576.244140625 162.259765625 594.578125 180.59375 c 0
 601.62890625 189.0546875 608.6796875 197.516601562 615.731445312 205.978515625 c 0
 632.654296875 222.901367188 643.936523438 242.64453125 659.44921875 259.568359375 c 0
 672.141601562 272.259765625 682.012695312 286.362304688 690.474609375 300.46484375 c 0
 696.115234375 310.337890625 704.578125 318.798828125 704.578125 330.081054688 c 1
 697.526367188 342.772460938 684.833984375 352.64453125 672.141601562 361.106445312 c 0
 656.62890625 370.978515625 641.115234375 380.849609375 624.192382812 389.311523438 c 0
 603.0390625 400.59375 583.294921875 413.28515625 562.141601562 424.568359375 c 0
 555.090820312 427.388671875 549.44921875 431.619140625 543.80859375 435.849609375 c 0
 536.756835938 442.901367188 528.294921875 445.721679688 521.244140625 451.362304688 c 0
 509.961914062 459.82421875 497.26953125 466.875 485.98828125 475.337890625 c 0
 481.756835938 479.568359375 476.115234375 482.388671875 471.884765625 485.208984375 c 0
 457.782226562 493.670898438 445.090820312 504.952148438 432.3984375 514.82421875 c 0
 419.705078125 523.28515625 409.833984375 533.158203125 399.961914062 543.029296875 c 0
 391.500976562 550.081054688 384.44921875 559.952148438 375.98828125 565.59375 c 0
 366.115234375 572.64453125 356.244140625 581.106445312 354.833984375 592.388671875 c 0
 354.833984375 600.849609375 352.012695312 607.901367188 354.833984375 614.952148438 c 0
EndSplineSet
Validated: 1
MultipleSubs2: "Mehrfache Substitution in Lateinisch Nachschlagetabelle 5-1" eTok cartTok
Ligature2: "'liga' Standard-Ligaturen in Lateinisch Nachschlagetabelle 1 Glyphen-Daten 1" e
Ligature2: "'liga' Standard-Ligaturen in Lateinisch Nachschlagetabelle 1 Glyphen-Daten 0" e space
EndChar

StartChar: enTok
Encoding: 266 989450 10
Width: 845
VWidth: 982
Flags: W
HStem: 269.778 51.5527<205.161 399.179 450.278 609.594> 273.382 55<199.387 357.488 484.655 650.667>
VStem: 407.905 42.3076<62.8057 251.744 324.13 534.011>
LayerCount: 2
Fore
SplineSet
405.084960938 534.279296875 m 0xa0
 410.725585938 539.919921875 420.59765625 538.509765625 427.649414062 535.689453125 c 0
 434.700195312 531.458984375 441.751953125 524.408203125 445.982421875 515.946289062 c 0
 450.212890625 510.305664062 447.392578125 503.252929688 448.802734375 497.612304688 c 0
 450.212890625 484.919921875 450.212890625 470.818359375 450.212890625 458.125976562 c 0
 451.623046875 448.958984375 451.975585938 439.791992188 451.975585938 430.625976562 c 0
 451.975585938 421.458984375 451.623046875 412.29296875 451.623046875 403.125976562 c 0
 451.623046875 387.612304688 451.623046875 370.689453125 450.212890625 355.176757812 c 0
 450.212890625 343.895507812 450.212890625 332.612304688 451.623046875 321.331054688 c 1xa0
 462.905273438 321.331054688 474.1875 319.919921875 484.059570312 319.919921875 c 0
 496.751953125 321.331054688 509.444335938 321.331054688 522.135742188 322.741210938 c 0
 551.751953125 324.151367188 581.366210938 325.561523438 610.982421875 332.612304688 c 0
 619.444335938 332.612304688 627.905273438 331.202148438 634.956054688 328.381835938 c 0
 643.418945312 321.331054688 651.879882812 311.458984375 651.879882812 298.766601562 c 0
 653.290039062 294.536132812 654.700195312 287.485351562 649.059570312 284.6640625 c 0
 643.100585938 278.704101562 635.125976562 272.745117188 625.98828125 272.745117188 c 0
 624.314453125 272.745117188 622.6015625 272.9453125 620.854492188 273.381835938 c 0
 617.534179688 274.119140625 614.118164062 274.375 610.655273438 274.375 c 0
 602.872070312 274.375 594.857421875 273.084960938 587.182617188 273.084960938 c 0
 585.217773438 273.084960938 583.276367188 273.169921875 581.366210938 273.381835938 c 0x60
 568.674804688 271.971679688 555.982421875 270.561523438 544.700195312 270.561523438 c 0
 542.015625 270.767578125 539.360351562 270.853515625 536.731445312 270.853515625 c 0
 524.0390625 270.853515625 511.948242188 268.859375 499.9609375 268.859375 c 0
 497.478515625 268.859375 495 268.9453125 492.521484375 269.151367188 c 0
 484.059570312 269.151367188 475.59765625 269.778320312 467.13671875 269.778320312 c 0xa0
 462.905273438 269.778320312 458.674804688 269.62109375 454.444335938 269.151367188 c 0
 451.623046875 267.741210938 448.802734375 267.741210938 447.392578125 264.919921875 c 0
 447.19140625 262.099609375 447.104492188 259.307617188 447.104492188 256.537109375 c 0
 447.104492188 239.91015625 450.212890625 224.022460938 450.212890625 207.099609375 c 0
 449.930664062 204.279296875 449.818359375 201.458984375 449.818359375 198.626953125 c 0
 449.818359375 187.299804688 451.623046875 175.79296875 451.623046875 163.381835938 c 0
 451.623046875 152.099609375 451.975585938 140.818359375 451.975585938 129.53515625 c 0
 451.975585938 118.25390625 451.623046875 106.970703125 450.212890625 95.689453125 c 0
 450.212890625 87.228515625 447.392578125 78.7666015625 443.162109375 71.7158203125 c 0
 441.751953125 67.4853515625 438.931640625 63.2529296875 434.700195312 61.8427734375 c 0
 424.829101562 63.2529296875 414.956054688 64.6640625 409.315429688 73.1259765625 c 0
 405.084960938 78.7666015625 409.315429688 84.408203125 407.905273438 90.048828125 c 0
 405.084960938 112.612304688 405.084960938 136.586914062 402.264648438 160.561523438 c 0
 400.854492188 180.305664062 400.854492188 201.458984375 399.444335938 221.202148438 c 0
 399.444335938 231.544921875 398.190429688 241.88671875 398.190429688 252.228515625 c 0
 398.190429688 257.399414062 398.50390625 262.5703125 399.444335938 267.741210938 c 1
 393.802734375 269.151367188 386.751953125 269.151367188 381.110351562 269.151367188 c 0
 334.572265625 269.151367188 289.444335938 271.971679688 244.315429688 273.381835938 c 0
 235.854492188 273.381835938 224.572265625 269.151367188 216.110351562 273.381835938 c 0
 209.059570312 274.791992188 203.418945312 277.612304688 199.1875 283.252929688 c 0
 194.956054688 291.715820312 190.725585938 301.586914062 192.135742188 311.458984375 c 0
 193.545898438 318.509765625 196.366210938 325.561523438 204.829101562 328.381835938 c 0x60
 211.879882812 331.202148438 220.341796875 326.971679688 227.392578125 325.561523438 c 0
 248.545898438 322.741210938 271.110351562 322.741210938 292.264648438 322.741210938 c 0
 313.418945312 321.331054688 335.982421875 321.331054688 358.545898438 321.331054688 c 0
 372.649414062 321.331054688 386.751953125 321.331054688 400.854492188 322.741210938 c 1
 402.264648438 352.356445312 402.264648438 383.381835938 405.084960938 412.997070312 c 1
 403.674804688 445.432617188 402.264648438 476.458984375 398.033203125 508.895507812 c 0
 396.623046875 517.356445312 398.033203125 528.638671875 405.084960938 534.279296875 c 0xa0
EndSplineSet
Validated: 1
MultipleSubs2: "Mehrfache Substitution in Lateinisch Nachschlagetabelle 5-1" enTok cartTok
LCarets2: 2 102 102
Ligature2: "'liga' Standard-Ligaturen in Lateinisch Nachschlagetabelle 1 Glyphen-Daten 1" e n
Ligature2: "'liga' Standard-Ligaturen in Lateinisch Nachschlagetabelle 1 Glyphen-Daten 0" e n space
EndChar

StartChar: esunTok
Encoding: 267 989451 11
Width: 845
VWidth: 984
Flags: W
HStem: 74.4082 65.126<539.348 640.727> 106.717 50.9561<246.62 370.323> 214.977 52.8906<249.36 383.994> 339.79 45.1279<444.866 537.159>
VStem: 389.965 50.4229<393.164 429.547> 398.816 50.3789<248.258 339.625> 556.141 44.21<405.02 474.77>
LayerCount: 2
Fore
SplineSet
263.041015625 205.81640625 m 0x72
 253.169921875 201.584960938 247.528320312 193.124023438 246.118164062 183.251953125 c 0
 244.708007812 179.021484375 243.297851562 174.790039062 247.528320312 171.969726562 c 0
 255.990234375 164.91796875 268.682617188 164.91796875 278.5546875 162.09765625 c 0
 287.745117188 158.815429688 296.934570312 157.672851562 306.125 157.672851562 c 0
 316.677734375 157.672851562 327.231445312 159.1796875 337.78515625 160.6875 c 0
 343.426757812 162.09765625 347.657226562 166.328125 353.297851562 167.73828125 c 0
 358.938476562 170.559570312 364.580078125 173.379882812 368.810546875 177.611328125 c 0
 374.451171875 184.662109375 381.50390625 191.713867188 384.32421875 200.174804688 c 1
 377.272460938 204.405273438 370.220703125 205.81640625 361.759765625 207.2265625 c 0
 345.736328125 213.235351562 329.002929688 214.9765625 312.0625 214.9765625 c 0
 305.146484375 214.9765625 298.197265625 214.686523438 291.247070312 214.27734375 c 0
 281.375 214.27734375 272.9140625 208.63671875 263.041015625 205.81640625 c 0x72
519.708007812 473.764648438 m 0
 505.60546875 466.713867188 492.9140625 459.662109375 481.630859375 451.200195312 c 0
 470.349609375 445.559570312 459.067382812 438.5078125 450.60546875 430.046875 c 0
 443.517578125 419.4140625 440.387695312 406.802734375 440.387695312 393.869140625 c 0x3a
 440.387695312 391.36328125 440.505859375 388.845703125 440.734375 386.328125 c 0
 446.375 384.91796875 452.016601562 384.91796875 459.067382812 384.91796875 c 0
 475.990234375 384.91796875 492.9140625 387.73828125 508.426757812 391.969726562 c 0
 519.708007812 394.790039062 529.580078125 400.431640625 538.041015625 407.482421875 c 0
 543.682617188 413.124023438 549.32421875 418.764648438 552.14453125 427.2265625 c 0
 554.892578125 433.271484375 556.140625 439.744140625 556.140625 446.228515625 c 0
 556.140625 456.384765625 553.078125 466.568359375 547.9140625 475.174804688 c 1
 538.041015625 480.81640625 528.169921875 476.584960938 519.708007812 473.764648438 c 0
518.297851562 524.534179688 m 0
 528.169921875 525.944335938 538.041015625 525.944335938 547.9140625 524.534179688 c 0
 557.78515625 524.534179688 563.426757812 517.482421875 570.477539062 513.251953125 c 0
 576.118164062 510.431640625 578.938476562 503.379882812 583.169921875 497.73828125 c 0
 595.5859375 484.08203125 600.350585938 464.959960938 600.350585938 447.107421875 c 0
 600.350585938 444.681640625 600.262695312 442.280273438 600.09375 439.91796875 c 0
 600.09375 421.584960938 595.861328125 403.251953125 583.169921875 389.149414062 c 0
 578.938476562 382.09765625 571.887695312 376.45703125 566.247070312 370.81640625 c 0
 557.78515625 362.354492188 547.9140625 353.893554688 536.630859375 351.072265625 c 0
 526.759765625 348.251953125 518.297851562 346.841796875 509.836914062 342.611328125 c 0
 505.60546875 339.790039062 501.375 342.611328125 497.14453125 339.790039062 c 0
 492.9140625 336.969726562 487.272460938 341.200195312 481.630859375 339.790039062 c 0
 478.340820312 337.91015625 474.736328125 337.283203125 471.028320312 337.283203125 c 0
 463.611328125 337.283203125 455.776367188 339.790039062 449.1953125 339.790039062 c 0
 444.96484375 339.790039062 442.14453125 335.559570312 443.5546875 331.328125 c 0
 446.375 304.534179688 449.1953125 277.73828125 449.1953125 249.534179688 c 0
 449.1953125 241.072265625 447.78515625 232.611328125 447.78515625 224.149414062 c 1
 452.016601562 219.91796875 459.067382812 217.09765625 463.297851562 212.8671875 c 0
 474.580078125 202.995117188 487.272460938 195.944335938 498.5546875 187.482421875 c 0
 502.78515625 184.662109375 505.60546875 181.841796875 509.836914062 177.611328125 c 0
 519.708007812 170.559570312 529.580078125 160.6875 542.272460938 155.046875 c 0
 546.50390625 152.2265625 550.734375 147.995117188 554.96484375 145.174804688 c 0
 564.836914062 136.713867188 576.118164062 132.482421875 587.400390625 128.251953125 c 0
 593.041015625 125.431640625 598.682617188 128.251953125 604.32421875 129.662109375 c 0
 612.78515625 132.482421875 618.426757812 136.713867188 625.477539062 139.534179688 c 0
 631.118164062 139.534179688 635.349609375 139.534179688 640.990234375 140.944335938 c 1
 646.630859375 136.713867188 649.451171875 129.662109375 650.861328125 122.611328125 c 0
 652.272460938 118.379882812 649.451171875 114.149414062 649.451171875 109.91796875 c 0
 648.041015625 105.6875 648.041015625 100.046875 643.810546875 97.2265625 c 0
 636.759765625 91.5849609375 631.118164062 84.5341796875 622.657226562 80.3037109375 c 0
 613.94140625 76.8173828125 604.686523438 74.408203125 595.55859375 74.408203125 c 0xb6
 589.916992188 74.408203125 584.325195312 75.328125 578.938476562 77.482421875 c 0
 569.067382812 81.7138671875 557.78515625 83.1240234375 549.32421875 90.1748046875 c 0
 543.682617188 92.9951171875 538.041015625 97.2265625 530.990234375 101.45703125 c 0
 519.708007812 107.09765625 509.836914062 118.379882812 498.5546875 125.431640625 c 0
 491.50390625 129.662109375 487.272460938 136.713867188 480.220703125 140.944335938 c 0
 475.990234375 145.174804688 471.759765625 149.405273438 466.118164062 152.2265625 c 0
 459.067382812 159.27734375 449.1953125 163.5078125 442.14453125 170.559570312 c 0
 439.32421875 173.379882812 436.50390625 176.200195312 432.272460938 174.790039062 c 0
 428.041015625 166.328125 420.990234375 157.8671875 415.349609375 147.995117188 c 0
 411.118164062 140.944335938 402.657226562 138.124023438 397.016601562 132.482421875 c 0
 388.5546875 125.431640625 378.682617188 121.200195312 370.220703125 115.559570312 c 0
 354.532226562 110.330078125 337.227539062 106.716796875 319.971679688 106.716796875 c 0
 309.306640625 106.716796875 298.661132812 108.096679688 288.426757812 111.328125 c 0
 270.09375 114.149414062 251.759765625 119.790039062 234.836914062 126.841796875 c 0
 219.32421875 132.482421875 203.810546875 140.944335938 198.169921875 156.45703125 c 0
 194.887695312 162.365234375 193.744140625 168.884765625 193.744140625 175.73046875 c 0
 193.744140625 183.591796875 195.251953125 191.8828125 196.759765625 200.174804688 c 0
 198.169921875 208.63671875 203.810546875 215.6875 208.041015625 222.73828125 c 0
 212.272460938 231.200195312 220.734375 238.251953125 226.375 246.713867188 c 0
 236.247070312 256.584960938 248.938476562 259.405273438 260.220703125 263.63671875 c 0
 275.734375 265.046875 291.247070312 267.8671875 305.349609375 267.8671875 c 0
 318.041015625 267.8671875 329.32421875 266.45703125 340.60546875 263.63671875 c 0
 360.349609375 260.81640625 378.682617188 252.354492188 397.016601562 248.124023438 c 0
 401.247070312 250.944335938 401.247070312 256.584960938 399.836914062 260.81640625 c 0
 399.057617188 264.32421875 398.81640625 267.83203125 398.81640625 271.33984375 c 0x76
 398.81640625 277.016601562 399.447265625 282.692382812 399.447265625 288.369140625 c 0
 399.447265625 291.876953125 399.206054688 295.385742188 398.426757812 298.893554688 c 0
 395.60546875 311.584960938 394.1953125 322.8671875 394.1953125 335.559570312 c 0
 392.78515625 338.379882812 394.1953125 344.021484375 389.96484375 346.841796875 c 0
 382.9140625 348.251953125 374.451171875 348.251953125 367.400390625 351.072265625 c 0
 360.349609375 353.893554688 353.297851562 353.893554688 346.247070312 355.303710938 c 0
 339.1953125 358.124023438 332.14453125 359.534179688 325.09375 362.354492188 c 0
 309.580078125 366.584960938 295.477539062 373.63671875 279.96484375 379.27734375 c 0
 264.451171875 387.73828125 248.938476562 396.200195312 234.836914062 408.893554688 c 0
 229.1953125 414.534179688 226.375 421.584960938 224.96484375 430.046875 c 0
 223.5546875 435.6875 217.9140625 442.73828125 220.734375 448.379882812 c 0
 223.5546875 456.841796875 234.836914062 454.021484375 240.477539062 449.790039062 c 0
 251.759765625 438.5078125 264.451171875 431.45703125 278.5546875 425.81640625 c 0
 287.016601562 420.174804688 298.297851562 417.354492188 306.759765625 413.124023438 c 0
 315.220703125 410.303710938 323.682617188 408.893554688 332.14453125 406.072265625 c 0
 339.1953125 403.251953125 346.247070312 401.841796875 353.297851562 399.021484375 c 0
 364.255859375 396.5859375 374.162109375 393.099609375 384.833007812 393.099609375 c 0
 386.521484375 393.099609375 388.23046875 393.1875 389.96484375 393.379882812 c 0
 391.375 410.303710938 391.375 428.63671875 398.426757812 444.149414062 c 0
 402.657226562 452.611328125 409.708007812 456.841796875 413.938476562 463.893554688 c 0
 420.990234375 472.354492188 433.682617188 477.995117188 443.5546875 483.63671875 c 0
 452.016601562 489.27734375 463.297851562 493.5078125 471.759765625 500.559570312 c 0
 475.990234375 504.790039062 483.041015625 506.200195312 488.682617188 510.431640625 c 0
 498.5546875 516.072265625 507.016601562 521.713867188 518.297851562 524.534179688 c 0
EndSplineSet
Validated: 1
MultipleSubs2: "Mehrfache Substitution in Lateinisch Nachschlagetabelle 5-1" esunTok cartTok
Ligature2: "'liga' Standard-Ligaturen in Lateinisch Nachschlagetabelle 1 Glyphen-Daten 1" e s u n
Ligature2: "'liga' Standard-Ligaturen in Lateinisch Nachschlagetabelle 1 Glyphen-Daten 0" e s u n space
EndChar

StartChar: ijoTok
Encoding: 268 989452 12
Width: 845
VWidth: 961
Flags: W
HStem: -3.80859 51.1221<274.294 485.424>
VStem: 125.191 42.1562<145.428 310.837> 669.038 47.9492<236.667 428.895>
LayerCount: 2
Fore
SplineSet
485.705078125 543.37109375 m 0
 477.244140625 541.959960938 467.37109375 540.549804688 458.91015625 536.319335938 c 0
 446.217773438 530.677734375 432.115234375 530.677734375 419.423828125 523.626953125 c 0
 409.55078125 517.985351562 399.6796875 513.754882812 389.807617188 508.114257812 c 0
 375.705078125 498.2421875 360.192382812 488.37109375 344.6796875 479.908203125 c 0
 333.397460938 472.857421875 322.115234375 462.985351562 310.833984375 454.524414062 c 0
 300.9609375 448.8828125 293.91015625 439.01171875 284.038085938 431.959960938 c 0
 268.525390625 420.677734375 255.833984375 405.165039062 240.3203125 391.0625 c 1
 231.858398438 376.959960938 217.756835938 367.087890625 210.705078125 351.575195312 c 0
 193.78125 323.37109375 176.858398438 293.754882812 172.627929688 261.319335938 c 0
 169.211914062 249.36328125 167.34765625 236.373046875 167.34765625 223.6015625 c 0
 167.34765625 215.282226562 168.138671875 207.055664062 169.807617188 199.267578125 c 0
 171.217773438 185.165039062 176.858398438 173.8828125 181.08984375 161.19140625 c 0
 186.73046875 145.677734375 195.192382812 132.985351562 206.474609375 120.293945312 c 0
 216.346679688 109.01171875 229.038085938 97.7294921875 240.3203125 87.857421875 c 0
 251.602539062 79.3955078125 265.705078125 73.7548828125 276.987304688 66.7041015625 c 0
 285.448242188 62.47265625 295.3203125 61.0625 303.78125 56.83203125 c 0
 312.244140625 52.6015625 320.705078125 52.6015625 329.166992188 49.78125 c 0
 336.217773438 47.666015625 343.62109375 47.3134765625 351.201171875 47.3134765625 c 0
 354.990234375 47.3134765625 358.823242188 47.4013671875 362.677734375 47.4013671875 c 0
 366.53515625 47.4013671875 370.415039062 47.3134765625 374.294921875 46.9599609375 c 0
 376.881835938 46.701171875 379.469726562 46.5849609375 382.047851562 46.5849609375 c 0
 393.524414062 46.5849609375 404.828125 48.888671875 415.192382812 51.19140625 c 0
 441.987304688 55.421875 468.78125 62.47265625 494.166992188 72.3447265625 c 0
 501.217773438 73.7548828125 506.858398438 77.9853515625 512.5 80.8056640625 c 0
 522.37109375 83.626953125 530.833984375 92.087890625 540.705078125 97.7294921875 c 0
 556.217773438 106.19140625 570.3203125 120.293945312 583.012695312 132.985351562 c 0
 591.474609375 141.447265625 598.525390625 151.319335938 605.577148438 159.78125 c 0
 618.268554688 173.8828125 626.73046875 187.985351562 633.78125 203.498046875 c 0
 639.423828125 217.6015625 646.474609375 230.293945312 649.294921875 245.805664062 c 0
 653.525390625 265.549804688 663.397460938 285.293945312 664.807617188 306.447265625 c 0
 667.627929688 327.6015625 669.038085938 348.754882812 669.038085938 369.908203125 c 0
 666.217773438 388.2421875 659.166992188 403.754882812 652.115234375 419.267578125 c 0
 645.064453125 434.78125 635.192382812 448.8828125 623.91015625 461.575195312 c 0
 616.858398438 470.037109375 608.397460938 474.267578125 604.166992188 484.139648438 c 0
 594.294921875 498.2421875 585.833984375 512.344726562 573.140625 523.626953125 c 0
 564.6796875 529.267578125 554.807617188 530.677734375 546.346679688 536.319335938 c 0
 531.703125 541.549804688 517.059570312 544.452148438 501.840820312 544.452148438 c 0
 496.540039062 544.452148438 491.169921875 544.099609375 485.705078125 543.37109375 c 0
505.448242188 601.19140625 m 0
 512.5 602.6015625 519.55078125 605.421875 526.602539062 602.6015625 c 0
 547.756835938 596.959960938 568.91015625 591.319335938 588.654296875 580.037109375 c 0
 595.705078125 577.215820312 597.115234375 567.344726562 604.166992188 563.114257812 c 0
 611.217773438 557.47265625 614.038085938 547.6015625 619.6796875 540.549804688 c 0
 626.73046875 532.087890625 633.78125 522.215820312 640.833984375 513.754882812 c 0
 647.884765625 503.8828125 657.756835938 496.83203125 664.807617188 488.37109375 c 0
 670.448242188 479.908203125 677.5 471.447265625 684.55078125 462.985351562 c 0
 688.78125 457.344726562 691.602539062 448.8828125 694.423828125 441.83203125 c 0
 701.474609375 427.729492188 709.935546875 415.037109375 714.166992188 399.524414062 c 0
 718.397460938 376.959960938 718.397460938 354.395507812 719.807617188 333.2421875 c 0
 718.397460938 324.78125 716.987304688 316.319335938 716.987304688 307.857421875 c 0
 716.987304688 295.165039062 709.935546875 282.47265625 709.935546875 269.78125 c 0
 709.935546875 261.319335938 705.705078125 252.857421875 704.294921875 244.395507812 c 0
 701.474609375 231.704101562 700.064453125 217.6015625 694.423828125 206.319335938 c 0
 690.192382812 195.037109375 688.78125 183.754882812 683.140625 173.8828125 c 0
 674.6796875 151.319335938 660.577148438 132.985351562 645.064453125 116.0625 c 0
 636.602539062 104.78125 628.140625 94.908203125 616.858398438 86.447265625 c 0
 597.115234375 68.1142578125 574.55078125 52.6015625 551.987304688 39.908203125 c 0
 532.244140625 28.626953125 512.5 20.1650390625 489.935546875 14.5244140625 c 0
 465.9609375 6.0625 440.577148438 3.2421875 415.192382812 -0.98828125 c 0
 410.9609375 -2.3984375 405.3203125 -3.80859375 399.6796875 -3.80859375 c 0
 385.577148438 -2.3984375 370.064453125 -3.80859375 355.9609375 -2.3984375 c 0
 327.756835938 1.83203125 299.55078125 6.0625 272.756835938 18.7548828125 c 0
 262.884765625 22.9853515625 253.012695312 28.626953125 241.73046875 34.267578125 c 0
 234.6796875 37.087890625 229.038085938 44.1396484375 221.987304688 48.37109375 c 0
 214.935546875 54.01171875 207.884765625 58.2421875 202.244140625 65.2939453125 c 0
 199.423828125 68.1142578125 196.602539062 68.1142578125 193.78125 69.5244140625 c 0
 186.73046875 82.2158203125 176.858398438 90.677734375 168.397460938 101.959960938 c 0
 158.525390625 114.65234375 150.064453125 128.754882812 143.012695312 142.857421875 c 0
 141.602539062 151.319335938 138.78125 159.78125 135.9609375 166.83203125 c 0
 128.91015625 183.754882812 128.91015625 203.498046875 126.08984375 220.421875 c 0
 125.471679688 225.369140625 125.19140625 230.248046875 125.19140625 235.07421875 c 0
 125.19140625 252.26171875 128.736328125 268.77734375 133.140625 285.293945312 c 0
 134.55078125 295.165039062 138.78125 303.626953125 141.602539062 312.087890625 c 0
 143.012695312 323.37109375 148.654296875 333.2421875 152.884765625 343.114257812 c 0
 161.346679688 362.857421875 174.038085938 382.6015625 186.73046875 399.524414062 c 0
 195.192382812 410.805664062 206.474609375 422.087890625 214.935546875 433.37109375 c 0
 219.166992188 439.01171875 223.397460938 441.83203125 229.038085938 447.47265625 c 0
 234.6796875 451.704101562 238.91015625 460.165039062 245.9609375 464.395507812 c 0
 254.423828125 470.037109375 262.884765625 478.498046875 271.346679688 484.139648438 c 0
 288.268554688 499.65234375 306.602539062 510.934570312 324.935546875 523.626953125 c 0
 346.08984375 536.319335938 368.654296875 550.421875 391.217773438 560.293945312 c 0
 401.08984375 564.524414062 410.9609375 568.754882812 422.244140625 572.985351562 c 0
 429.294921875 574.395507812 434.935546875 580.037109375 441.987304688 584.267578125 c 0
 454.6796875 588.498046875 467.37109375 592.729492188 480.064453125 598.37109375 c 0
 488.525390625 601.19140625 496.987304688 599.78125 505.448242188 601.19140625 c 0
EndSplineSet
Validated: 33
MultipleSubs2: "Mehrfache Substitution in Lateinisch Nachschlagetabelle 5-1" ijoTok cartTok
Ligature2: "'liga' Standard-Ligaturen in Lateinisch Nachschlagetabelle 1 Glyphen-Daten 1" i j o
Ligature2: "'liga' Standard-Ligaturen in Lateinisch Nachschlagetabelle 1 Glyphen-Daten 0" i j o space
EndChar

StartChar: ikeTok
Encoding: 269 989453 13
Width: 845
VWidth: 981
Flags: W
HStem: 358.334 55.3838<359.739 508.986>
VStem: 208.423 52.1797<192.256 254.342> 586.372 46.5381<190.95 233.704>
LayerCount: 2
Fore
SplineSet
407.26953125 413.333984375 m 0
 410.500976562 413.602539062 413.783203125 413.717773438 417.09765625 413.717773438 c 0
 431.142578125 413.717773438 445.7578125 411.653320312 459.44921875 410.512695312 c 0
 474.9609375 407.692382812 490.473632812 400.641601562 505.987304688 396.411132812 c 0
 515.859375 393.58984375 522.91015625 387.948242188 531.372070312 383.717773438 c 0
 548.294921875 372.435546875 565.217773438 362.564453125 579.3203125 349.872070312 c 0
 596.243164062 332.948242188 611.756835938 313.205078125 620.217773438 290.641601562 c 0
 628.6796875 272.307617188 632.91015625 253.974609375 637.140625 234.231445312 c 0
 637.140625 222.948242188 635.73046875 213.077148438 632.91015625 201.794921875 c 0
 630.08984375 194.744140625 623.0390625 190.512695312 614.577148438 190.512695312 c 0
 606.116210938 189.102539062 600.473632812 196.154296875 593.422851562 198.974609375 c 0
 589.192382812 201.794921875 587.782226562 206.025390625 586.372070312 210.255859375 c 0
 584.9609375 217.307617188 583.55078125 222.948242188 582.140625 230 c 0
 579.3203125 244.102539062 573.6796875 258.205078125 568.0390625 272.307617188 c 0
 565.217773438 280.768554688 560.987304688 290.641601562 553.936523438 297.692382812 c 0
 546.883789062 304.744140625 541.243164062 313.205078125 534.192382812 320.255859375 c 0
 520.08984375 331.538085938 503.166992188 340 486.243164062 348.461914062 c 0
 480.602539062 349.872070312 473.55078125 354.102539062 466.5 355.512695312 c 0
 456.627929688 356.922851562 446.756835938 359.744140625 436.883789062 358.333984375 c 0
 425.602539062 356.922851562 414.3203125 356.922851562 404.44921875 354.102539062 c 0
 393.166992188 351.282226562 383.294921875 348.461914062 373.422851562 344.231445312 c 0
 355.08984375 334.358398438 336.756835938 323.077148438 322.653320312 307.564453125 c 0
 317.012695312 300.512695312 309.9609375 296.282226562 305.73046875 289.231445312 c 0
 298.6796875 276.538085938 287.397460938 266.666992188 281.756835938 252.564453125 c 0
 271.883789062 235.641601562 267.653320312 215.897460938 260.602539062 197.564453125 c 0
 257.782226562 190.512695312 252.140625 186.282226562 245.08984375 186.282226562 c 0
 238.0390625 186.282226562 229.577148438 189.102539062 222.526367188 191.922851562 c 0
 214.063476562 198.974609375 207.012695312 210.255859375 208.422851562 221.538085938 c 1
 205.602539062 231.411132812 214.063476562 238.461914062 218.294921875 245.512695312 c 0
 226.756835938 262.435546875 229.577148438 280.768554688 238.0390625 296.282226562 c 0
 245.08984375 306.154296875 253.55078125 316.025390625 260.602539062 325.897460938 c 0
 266.243164062 334.358398438 274.705078125 341.411132812 283.166992188 349.872070312 c 0
 287.397460938 354.102539062 293.0390625 356.922851562 298.6796875 362.564453125 c 0
 314.192382812 382.307617188 338.166992188 393.58984375 360.73046875 402.051757812 c 0
 376.243164062 406.282226562 391.756835938 410.512695312 407.26953125 413.333984375 c 0
EndSplineSet
Validated: 33
MultipleSubs2: "Mehrfache Substitution in Lateinisch Nachschlagetabelle 5-1" ikeTok cartTok
LCarets2: 3 102 102 102
Ligature2: "'liga' Standard-Ligaturen in Lateinisch Nachschlagetabelle 1 Glyphen-Daten 1" i k e
Ligature2: "'liga' Standard-Ligaturen in Lateinisch Nachschlagetabelle 1 Glyphen-Daten 0" i k e space
EndChar

StartChar: iloTok
Encoding: 270 989454 14
Width: 845
VWidth: 982
Flags: W
HStem: 278.027 45.5684<322.464 368.276 368.866 399.428> 291.826 48.21<445.759 581.201> 486.06 44.8438<270.329 395.12 529.974 551.123 552.182 572.62>
VStem: 211.979 43.7188<323.265 469.427> 400.954 43.7178<102.78 276.661 335.208 485.113> 582.051 43.542<337.853 487.181>
LayerCount: 2
Fore
SplineSet
357.236328125 481.544921875 m 0xbc
 334.671875 477.313476562 312.108398438 474.493164062 290.954101562 470.262695312 c 0
 281.08203125 468.852539062 271.2109375 470.262695312 261.338867188 467.442382812 c 1
 258.518554688 457.5703125 258.518554688 447.69921875 258.518554688 437.826171875 c 0
 258.518554688 429.365234375 257.108398438 420.903320312 258.518554688 412.442382812 c 0
 258.518554688 402.5703125 255.698242188 394.109375 255.698242188 384.236328125 c 0
 257.108398438 375.775390625 255.698242188 367.313476562 255.698242188 357.442382812 c 0
 255.698242188 347.5703125 255.698242188 336.2890625 255.698242188 326.416015625 c 1
 264.989257812 324.3515625 274.280273438 323.04296875 283.018554688 323.04296875 c 0
 286.217773438 323.04296875 289.341796875 323.217773438 292.365234375 323.595703125 c 0
 296.595703125 324.065429688 300.669921875 324.22265625 304.638671875 324.22265625 c 0
 312.578125 324.22265625 320.099609375 323.595703125 327.62109375 323.595703125 c 0
 336.08203125 323.595703125 344.543945312 325.005859375 353.005859375 323.595703125 c 0
 367.108398438 323.595703125 381.2109375 325.005859375 395.313476562 326.416015625 c 0
 399.543945312 326.416015625 400.954101562 330.647460938 400.954101562 333.467773438 c 0
 400.954101562 348.98046875 399.543945312 363.083007812 399.543945312 378.595703125 c 0
 398.133789062 391.2890625 399.543945312 405.391601562 398.133789062 418.083007812 c 0
 396.723632812 426.544921875 398.133789062 433.595703125 396.723632812 442.057617188 c 0
 393.90234375 456.16015625 396.723632812 471.672851562 392.4921875 485.775390625 c 0
 390.719726562 485.97265625 388.975585938 486.059570312 387.254882812 486.059570312 c 0
 376.649414062 486.059570312 366.943359375 482.7578125 357.236328125 481.544921875 c 0xbc
441.8515625 490.005859375 m 1
 441.8515625 484.365234375 443.26171875 478.724609375 441.8515625 473.083007812 c 0
 440.44140625 463.211914062 441.8515625 454.75 441.8515625 444.877929688 c 0
 443.26171875 415.262695312 441.8515625 385.647460938 444.671875 356.032226562 c 0
 444.671875 348.98046875 446.08203125 341.9296875 447.4921875 334.877929688 c 1
 455.954101562 334.877929688 463.005859375 337.69921875 470.056640625 339.109375 c 0
 479.403320312 339.693359375 488.5078125 340.036132812 497.470703125 340.036132812 c 0x7c
 510.145507812 340.036132812 522.537109375 339.3515625 534.928710938 337.69921875 c 0
 544.799804688 339.109375 553.26171875 336.2890625 563.133789062 339.109375 c 0
 568.775390625 340.51953125 575.826171875 339.109375 581.466796875 337.69921875 c 1
 582.876953125 347.5703125 580.056640625 357.442382812 581.466796875 365.903320312 c 0
 581.879882812 369.62109375 582.05078125 373.338867188 582.05078125 377.055664062 c 0
 582.05078125 386.03125 581.053710938 395.005859375 580.056640625 403.98046875 c 0
 580.056640625 425.134765625 577.236328125 447.69921875 571.595703125 468.852539062 c 0
 567.365234375 477.313476562 564.543945312 488.595703125 554.671875 490.005859375 c 0
 546.209960938 492.543945312 537.749023438 493.051757812 529.591796875 493.051757812 c 0
 524.154296875 493.051757812 518.8515625 492.826171875 513.775390625 492.826171875 c 0
 489.799804688 492.826171875 465.826171875 492.826171875 441.8515625 490.005859375 c 1
503.90234375 540.775390625 m 0
 519.416015625 542.185546875 536.338867188 542.185546875 551.8515625 542.185546875 c 0
 558.90234375 540.775390625 565.954101562 537.955078125 573.005859375 536.544921875 c 0
 581.466796875 533.724609375 585.698242188 528.083007812 592.749023438 522.442382812 c 0
 604.03125 513.98046875 608.26171875 499.877929688 613.90234375 487.185546875 c 0
 619.543945312 471.672851562 623.775390625 456.16015625 623.775390625 440.647460938 c 0
 623.775390625 432.185546875 625.185546875 425.134765625 625.185546875 416.672851562 c 0
 624.887695312 413.692382812 624.778320312 410.649414062 624.778320312 407.5703125 c 0
 624.778320312 399.15625 625.592773438 390.471679688 625.592773438 382.057617188 c 0
 625.592773438 378.978515625 625.483398438 375.935546875 625.185546875 372.955078125 c 0
 625.185546875 360.262695312 626.595703125 347.5703125 629.416015625 334.877929688 c 0
 630.826171875 329.236328125 632.236328125 322.185546875 633.646484375 316.544921875 c 0
 632.236328125 310.903320312 629.416015625 306.672851562 626.595703125 301.032226562 c 0
 625.185546875 295.391601562 618.133789062 293.98046875 613.90234375 289.75 c 0
 609.671875 285.51953125 605.44140625 278.467773438 599.799804688 278.467773438 c 0
 592.749023438 275.647460938 585.698242188 278.467773438 580.056640625 281.2890625 c 0
 573.005859375 282.69921875 564.543945312 281.2890625 557.4921875 282.69921875 c 0
 547.62109375 284.109375 537.749023438 286.9296875 527.876953125 286.9296875 c 0
 517.30078125 286.9296875 507.702148438 291.826171875 497.452148438 291.826171875 c 0x7c
 495.40234375 291.826171875 493.326171875 291.629882812 491.2109375 291.16015625 c 0
 484.159179688 289.75 475.698242188 291.16015625 468.646484375 289.75 c 0
 461.595703125 288.33984375 454.543945312 286.9296875 447.4921875 285.51953125 c 1
 444.671875 277.057617188 446.08203125 268.595703125 446.08203125 260.134765625 c 0
 444.94140625 235.03515625 442.876953125 209.010742188 442.876953125 183.55859375 c 0
 442.876953125 177.549804688 442.9921875 171.573242188 443.26171875 165.647460938 c 0
 443.26171875 158.595703125 444.671875 151.544921875 444.671875 143.083007812 c 0
 445.376953125 135.327148438 445.729492188 127.5703125 445.729492188 119.814453125 c 0
 445.729492188 112.057617188 445.376953125 104.301757812 444.671875 96.544921875 c 0
 446.08203125 88.0830078125 444.671875 79.6220703125 441.8515625 72.5703125 c 0
 440.44140625 69.75 440.44140625 66.9296875 437.62109375 65.51953125 c 0
 430.569335938 62.69921875 423.518554688 55.6474609375 416.466796875 58.4677734375 c 0
 409.416015625 59.8779296875 406.595703125 65.51953125 403.775390625 71.16015625 c 0
 400.954101562 75.3916015625 396.723632812 78.2119140625 393.90234375 82.4423828125 c 0
 391.08203125 88.0830078125 392.4921875 95.134765625 392.4921875 102.185546875 c 0
 392.4921875 114.877929688 393.90234375 127.5703125 395.313476562 138.852539062 c 0
 395.313476562 145.903320312 395.313476562 151.544921875 395.313476562 158.595703125 c 0
 396.723632812 165.647460938 395.313476562 172.69921875 395.313476562 179.75 c 0
 396.723632812 198.083007812 398.133789062 215.005859375 398.133789062 233.33984375 c 0
 399.543945312 238.98046875 399.543945312 246.032226562 399.543945312 251.672851562 c 0
 399.543945312 260.134765625 400.954101562 268.595703125 399.543945312 277.057617188 c 0
 397.076171875 277.762695312 394.51953125 278.02734375 391.919921875 278.02734375 c 0xbc
 384.119140625 278.02734375 375.921875 275.647460938 368.518554688 275.647460938 c 0
 363.34765625 276.1171875 358.176757812 276.274414062 353.005859375 276.274414062 c 0
 342.663085938 276.274414062 332.321289062 275.647460938 321.979492188 275.647460938 c 0
 309.288085938 272.826171875 298.005859375 275.647460938 285.313476562 272.826171875 c 0
 278.5703125 271.86328125 271.169921875 269.583984375 264.010742188 269.583984375 c 0
 260.6875 269.583984375 257.416992188 270.075195312 254.288085938 271.416015625 c 0
 248.646484375 272.826171875 247.236328125 278.467773438 244.416015625 282.69921875 c 1
 240.185546875 281.2890625 235.954101562 279.877929688 231.723632812 281.2890625 c 0
 226.08203125 282.69921875 227.4921875 289.75 224.671875 292.5703125 c 0
 221.8515625 295.391601562 217.62109375 298.211914062 214.799804688 302.442382812 c 0
 211.979492188 312.313476562 211.979492188 322.185546875 211.979492188 332.057617188 c 0
 210.569335938 337.69921875 211.979492188 344.75 211.979492188 350.391601562 c 0
 211.979492188 391.2890625 216.2109375 430.775390625 216.2109375 471.672851562 c 0
 216.530273438 474.227539062 216.6328125 476.7109375 216.6328125 479.153320312 c 0
 216.6328125 483.513671875 216.306640625 487.747070312 216.306640625 492.041992188 c 0
 216.306640625 495.966796875 216.579101562 499.94140625 217.62109375 504.109375 c 0
 217.62109375 511.16015625 224.671875 516.801757812 231.723632812 519.622070312 c 0
 237.365234375 521.032226562 244.416015625 523.852539062 251.466796875 522.442382812 c 0
 257.108398438 519.622070312 262.749023438 519.622070312 269.799804688 519.622070312 c 0
 281.08203125 519.622070312 292.365234375 519.622070312 303.646484375 522.442382812 c 0
 317.749023438 522.442382812 331.8515625 525.262695312 345.954101562 529.493164062 c 0
 351.595703125 530.903320312 357.236328125 530.903320312 361.466796875 530.903320312 c 0
 371.338867188 532.313476562 381.2109375 535.134765625 389.671875 535.134765625 c 0
 398.133789062 535.134765625 406.595703125 536.544921875 413.646484375 536.544921875 c 0
 424.928710938 537.955078125 434.799804688 537.955078125 446.08203125 537.955078125 c 0
 454.543945312 537.955078125 463.005859375 537.955078125 471.466796875 539.365234375 c 0
 482.749023438 540.775390625 494.03125 539.365234375 503.90234375 540.775390625 c 0
EndSplineSet
Validated: 33
MultipleSubs2: "Mehrfache Substitution in Lateinisch Nachschlagetabelle 5-1" iloTok cartTok
Ligature2: "'liga' Standard-Ligaturen in Lateinisch Nachschlagetabelle 1 Glyphen-Daten 1" i l o
Ligature2: "'liga' Standard-Ligaturen in Lateinisch Nachschlagetabelle 1 Glyphen-Daten 0" i l o space
EndChar

StartChar: insaTok
Encoding: 271 989455 15
Width: 845
VWidth: 1013
Flags: W
HStem: 190.483 49.4561<197.423 626.36> 311.766 76.1543<404.864 441.066>
VStem: 150.885 46.5381<237.417 354.829> 158.162 43.8438<237.417 415.791> 396.27 53.5898<324.991 383.425> 642.711 43.1455<228.666 412.843>
LayerCount: 2
Fore
SplineSet
413.192382812 387.919921875 m 0xcc
 421.653320312 387.919921875 431.525390625 386.509765625 438.577148438 383.689453125 c 0
 444.217773438 378.048828125 448.44921875 372.407226562 449.859375 365.35546875 c 0
 449.859375 351.252929688 449.859375 335.740234375 441.397460938 324.458984375 c 0
 434.346679688 317.407226562 425.884765625 310.35546875 414.602539062 311.765625 c 0
 411.782226562 311.765625 407.55078125 313.17578125 404.73046875 315.997070312 c 0
 399.08984375 324.458984375 396.26953125 334.330078125 393.44921875 342.791992188 c 0
 390.62890625 349.842773438 394.859375 355.483398438 396.26953125 362.53515625 c 0
 397.6796875 366.765625 394.859375 372.407226562 396.26953125 376.637695312 c 0
 400.5 382.279296875 406.140625 389.330078125 413.192382812 387.919921875 c 0xcc
648.705078125 423.17578125 m 0
 650.115234375 430.227539062 658.577148438 434.458984375 665.62890625 434.458984375 c 0
 671.26953125 434.458984375 679.73046875 434.458984375 683.961914062 430.227539062 c 0
 691.012695312 425.997070312 693.833007812 418.9453125 696.653320312 413.3046875 c 0
 699.473632812 403.432617188 691.012695312 394.970703125 689.602539062 386.509765625 c 0
 688.192382812 373.817382812 688.192382812 362.53515625 686.782226562 349.842773438 c 0
 685.372070312 344.202148438 686.782226562 338.560546875 686.782226562 332.919921875 c 0
 686.198242188 323.57421875 685.856445312 314.227539062 685.856445312 304.880859375 c 0
 685.856445312 291.663085938 686.540039062 278.446289062 688.192382812 265.227539062 c 0
 689.602539062 258.17578125 688.192382812 251.125 689.602539062 242.663085938 c 0
 691.012695312 237.022460938 691.012695312 229.970703125 691.012695312 222.919921875 c 0
 691.012695312 214.458984375 696.653320312 207.407226562 695.243164062 198.9453125 c 0
 696.653320312 193.3046875 693.833007812 189.073242188 691.012695312 183.432617188 c 0
 688.192382812 174.970703125 679.73046875 170.740234375 672.6796875 166.509765625 c 0
 665.62890625 163.689453125 658.577148438 167.919921875 652.936523438 167.919921875 c 0
 643.063476562 166.509765625 633.192382812 170.740234375 624.73046875 173.560546875 c 0
 609.217773438 179.202148438 593.705078125 180.612304688 578.192382812 184.842773438 c 0
 561.26953125 189.073242188 542.936523438 190.483398438 524.602539062 191.893554688 c 0
 508.620117188 191.893554688 492.009765625 192.521484375 475.609375 192.521484375 c 0
 467.409179688 192.521484375 459.260742188 192.364257812 451.26953125 191.893554688 c 0
 443.748046875 191.893554688 436.2265625 192.521484375 428.287109375 192.521484375 c 0
 424.317382812 192.521484375 420.243164062 192.364257812 416.012695312 191.893554688 c 0
 408.961914062 190.483398438 401.91015625 191.893554688 394.859375 190.483398438 c 0
 368.063476562 190.483398438 339.859375 190.483398438 313.063476562 190.483398438 c 0
 304.602539062 190.483398438 297.55078125 193.3046875 289.08984375 191.893554688 c 0
 284.921875 190.852539062 280.754882812 190.580078125 276.586914062 190.580078125 c 2
 255.243164062 190.483398438 l 2
 243.961914062 190.483398438 232.6796875 189.073242188 221.397460938 189.073242188 c 0
 210.115234375 189.073242188 198.833007812 189.073242188 188.961914062 189.073242188 c 0
 181.91015625 189.073242188 174.859375 186.252929688 169.217773438 186.252929688 c 0
 163.577148438 187.663085938 159.346679688 191.893554688 157.936523438 197.53515625 c 0
 153.705078125 204.5859375 149.473632812 213.048828125 148.063476562 221.509765625 c 0
 146.653320312 228.560546875 150.884765625 234.202148438 150.884765625 241.252929688 c 0xec
 153.705078125 260.997070312 155.115234375 282.150390625 156.525390625 301.893554688 c 0
 157.936523438 311.765625 157.936523438 321.637695312 157.936523438 331.509765625 c 0
 157.936523438 339.40625 158.162109375 347.302734375 158.162109375 355.19921875 c 0
 158.162109375 367.045898438 157.654296875 378.893554688 155.115234375 390.740234375 c 0
 155.115234375 397.791992188 152.294921875 407.663085938 155.115234375 414.71484375 c 0
 157.936523438 420.35546875 163.577148438 424.5859375 169.217773438 425.997070312 c 0
 177.6796875 425.997070312 187.55078125 423.17578125 193.192382812 416.125 c 0
 198.833007812 409.073242188 200.243164062 397.791992188 200.243164062 387.919921875 c 0
 201.653320312 378.047851562 202.005859375 367.471679688 202.005859375 356.89453125 c 0xdc
 202.005859375 346.317382812 201.653320312 335.741210938 201.653320312 325.869140625 c 0
 200.243164062 303.3046875 198.833007812 282.150390625 197.422851562 259.5859375 c 0
 197.422851562 253.9453125 197.422851562 246.893554688 197.422851562 239.842773438 c 1xec
 206.1796875 238.870117188 214.264648438 237.2265625 222.604492188 237.2265625 c 0
 226.353515625 237.2265625 230.154296875 237.55859375 234.08984375 238.432617188 c 0
 241.611328125 238.903320312 249.131835938 239.059570312 256.653320312 239.059570312 c 0
 271.696289062 239.059570312 286.739257812 238.432617188 301.782226562 238.432617188 c 0
 313.063476562 238.432617188 324.346679688 239.842773438 337.0390625 239.842773438 c 0
 343.109375 240.163085938 349.178710938 240.264648438 355.265625 240.264648438 c 0
 366.12109375 240.264648438 377.029296875 239.939453125 388.083007812 239.939453125 c 0
 398.188476562 239.939453125 408.4140625 240.211914062 418.833007812 241.252929688 c 0
 424.00390625 241.723632812 429.33203125 241.879882812 434.711914062 241.879882812 c 0
 445.471679688 241.879882812 456.440429688 241.252929688 466.782226562 241.252929688 c 0
 485.115234375 241.252929688 502.0390625 242.663085938 518.961914062 242.663085938 c 0
 528.833007812 242.663085938 538.705078125 239.842773438 548.577148438 239.842773438 c 0
 575.372070312 237.022460938 602.166992188 229.970703125 627.55078125 227.150390625 c 0
 633.192382812 227.150390625 640.243164062 224.330078125 644.473632812 228.560546875 c 0
 644.755859375 230.818359375 644.869140625 233.075195312 644.869140625 235.33203125 c 0
 644.869140625 244.357421875 643.063476562 253.3828125 643.063476562 262.407226562 c 0
 643.063476562 275.8046875 642.7109375 289.202148438 642.7109375 302.599609375 c 0
 642.7109375 315.997070312 643.063476562 329.39453125 644.473632812 342.791992188 c 0
 645.884765625 355.483398438 647.294921875 368.17578125 648.705078125 380.869140625 c 0
 648.705078125 390.270507812 647.451171875 399.671875 647.451171875 409.073242188 c 0
 647.451171875 413.774414062 647.764648438 418.475585938 648.705078125 423.17578125 c 0
EndSplineSet
Validated: 1
MultipleSubs2: "Mehrfache Substitution in Lateinisch Nachschlagetabelle 5-1" insaTok cartTok
Ligature2: "'liga' Standard-Ligaturen in Lateinisch Nachschlagetabelle 1 Glyphen-Daten 1" i n s a
Ligature2: "'liga' Standard-Ligaturen in Lateinisch Nachschlagetabelle 1 Glyphen-Daten 0" i n s a space
EndChar

StartChar: jakiTok
Encoding: 272 989456 16
Width: 845
VWidth: 958
Flags: W
HStem: 12.8057 41.6826<230.382 335.213> 93.7383 49.0293<430.907 458.418> 506.614 35.2568<391.096 452.857 453.484 553.261>
VStem: 387.169 43.667<149.282 198.826>
LayerCount: 2
Fore
SplineSet
296.63671875 170.973632812 m 0
 279.712890625 165.33203125 264.200195312 156.87109375 247.27734375 149.819335938 c 0
 235.995117188 144.177734375 228.944335938 134.306640625 219.072265625 125.844726562 c 0
 216.251953125 123.024414062 213.431640625 118.793945312 212.021484375 114.563476562 c 0
 212.021484375 108.921875 214.841796875 103.28125 216.251953125 99.0498046875 c 0
 220.482421875 90.587890625 224.712890625 82.126953125 230.354492188 75.076171875 c 0
 237.405273438 68.0244140625 245.8671875 62.3837890625 254.329101562 58.1533203125 c 0
 261.481445312 55.470703125 268.633789062 54.48828125 276.146484375 54.48828125 c 0
 280.483398438 54.48828125 284.939453125 54.8154296875 289.584960938 55.33203125 c 0
 299.45703125 53.921875 307.918945312 59.5634765625 316.379882812 63.7939453125 c 0
 329.072265625 70.8447265625 343.174804688 79.306640625 354.45703125 90.587890625 c 0
 361.508789062 97.6396484375 369.969726562 106.1015625 374.200195312 115.973632812 c 1
 369.969726562 120.204101562 364.329101562 123.024414062 358.688476562 127.254882812 c 0
 343.174804688 139.947265625 324.841796875 149.819335938 310.739257812 165.33203125 c 0
 306.508789062 169.563476562 302.27734375 173.793945312 296.63671875 170.973632812 c 0
338.944335938 186.486328125 m 1
 345.995117188 180.844726562 353.046875 173.793945312 361.508789062 168.153320312 c 0
 369.969726562 163.921875 378.431640625 158.28125 386.892578125 155.4609375 c 1
 387.081054688 157.5390625 387.168945312 159.591796875 387.168945312 161.623046875 c 0
 387.168945312 174.751953125 383.505859375 186.96484375 379.841796875 199.177734375 c 1
 365.739257812 196.357421875 353.046875 190.716796875 338.944335938 186.486328125 c 1
519.45703125 254.177734375 m 0
 487.021484375 241.486328125 454.584960938 227.383789062 422.149414062 213.28125 c 1
 422.149414062 201.999023438 426.379882812 192.126953125 427.790039062 180.844726562 c 0
 430.328125 173.231445312 430.8359375 165.6171875 430.8359375 158.002929688 c 0
 430.8359375 152.924804688 430.610351562 147.846679688 430.610351562 142.767578125 c 1
 440.482421875 141.357421875 450.354492188 141.357421875 458.815429688 145.587890625 c 0
 465.8671875 149.819335938 470.098632812 156.87109375 475.739257812 161.1015625 c 0
 478.559570312 165.33203125 481.379882812 168.153320312 484.200195312 172.383789062 c 0
 489.841796875 179.434570312 496.892578125 186.486328125 502.533203125 194.947265625 c 0
 518.046875 218.921875 536.379882812 238.666015625 546.251953125 264.049804688 c 1
 536.379882812 262.639648438 527.918945312 258.409179688 519.45703125 254.177734375 c 0
322.021484375 258.409179688 m 0
 313.559570312 254.177734375 303.688476562 249.947265625 295.225585938 245.716796875 c 1
 296.63671875 237.254882812 302.27734375 228.793945312 306.508789062 221.743164062 c 1
 319.200195312 223.153320312 330.482421875 228.793945312 341.764648438 233.024414062 c 0
 348.815429688 235.844726562 355.8671875 237.254882812 362.918945312 238.666015625 c 1
 358.688476562 248.537109375 353.046875 256.999023438 347.405273438 266.87109375 c 1
 338.944335938 265.4609375 329.072265625 262.639648438 322.021484375 258.409179688 c 0
405.225585938 493.921875 m 0
 389.712890625 489.69140625 375.610351562 482.639648438 362.918945312 475.587890625 c 0
 351.63671875 469.947265625 340.354492188 461.486328125 331.892578125 451.614257812 c 0
 326.251953125 445.973632812 317.790039062 443.153320312 316.379882812 434.69140625 c 0
 316.379882812 429.049804688 319.200195312 421.999023438 322.021484375 416.357421875 c 0
 323.431640625 412.126953125 323.431640625 406.486328125 326.251953125 402.254882812 c 0
 333.302734375 386.743164062 338.944335938 371.229492188 347.405273438 355.716796875 c 0
 353.046875 344.434570312 358.688476562 333.153320312 365.739257812 323.28125 c 1
 388.302734375 324.69140625 410.8671875 333.153320312 434.841796875 338.793945312 c 0
 440.482421875 338.793945312 447.533203125 340.204101562 453.174804688 343.024414062 c 0
 468.688476562 350.076171875 485.610351562 354.306640625 502.533203125 359.947265625 c 0
 520.8671875 366.999023438 540.610351562 369.819335938 556.123046875 381.1015625 c 0
 563.174804688 385.33203125 571.63671875 383.921875 578.688476562 386.743164062 c 0
 592.790039062 392.383789062 606.892578125 400.844726562 619.584960938 409.306640625 c 0
 622.405273438 410.716796875 626.63671875 413.537109375 629.45703125 416.357421875 c 0
 632.27734375 421.999023438 628.046875 427.639648438 625.225585938 433.28125 c 0
 608.302734375 455.844726562 585.739257812 475.587890625 558.944335938 486.87109375 c 0
 549.072265625 491.1015625 537.790039062 493.921875 527.918945312 498.153320312 c 0
 508.174804688 503.793945312 487.021484375 506.614257812 465.8671875 506.614257812 c 0
 446.123046875 505.204101562 424.969726562 500.973632812 405.225585938 493.921875 c 0
353.046875 584.177734375 m 0
 361.508789062 588.409179688 374.200195312 588.409179688 381.251953125 582.767578125 c 0
 385.482421875 579.947265625 388.302734375 578.537109375 388.302734375 574.306640625 c 0
 388.302734375 565.844726562 389.712890625 555.973632812 384.072265625 551.743164062 c 0
 377.021484375 546.1015625 368.559570312 544.69140625 361.508789062 540.4609375 c 0
 348.815429688 534.819335938 337.533203125 526.357421875 329.072265625 515.076171875 c 0
 322.021484375 506.614257812 314.969726562 499.563476562 310.739257812 489.69140625 c 0
 307.918945312 484.049804688 306.508789062 476.999023438 305.098632812 469.947265625 c 1
 312.149414062 478.409179688 317.790039062 486.87109375 326.251953125 493.921875 c 0
 331.892578125 498.153320312 336.123046875 505.204101562 343.174804688 509.434570312 c 0
 357.27734375 517.896484375 371.379882812 524.947265625 385.482421875 530.587890625 c 0
 402.405273438 533.409179688 417.918945312 540.4609375 436.251953125 541.87109375 c 0
 441.69140625 543.68359375 447.390625 544.202148438 453.125976562 544.202148438 c 0
 460.7734375 544.202148438 468.486328125 543.28125 475.739257812 543.28125 c 0
 485.610351562 544.69140625 495.482421875 541.87109375 503.944335938 539.049804688 c 0
 515.225585938 536.229492188 527.918945312 533.409179688 539.200195312 531.999023438 c 0
 550.482421875 530.587890625 561.764648438 527.767578125 571.63671875 522.126953125 c 0
 580.098632812 516.486328125 589.969726562 515.076171875 597.021484375 509.434570312 c 0
 601.251953125 508.024414062 605.482421875 505.204101562 609.712890625 502.383789062 c 0
 619.584960938 498.153320312 626.63671875 491.1015625 633.688476562 484.049804688 c 0
 643.559570312 476.999023438 652.021484375 467.126953125 660.482421875 457.254882812 c 0
 667.533203125 448.793945312 673.174804688 437.51171875 674.584960938 426.229492188 c 0
 674.584960938 418.9765625 675.505859375 411.723632812 675.505859375 404.734375 c 0
 675.505859375 399.4921875 674.98828125 394.3984375 673.174804688 389.563476562 c 0
 668.944335938 382.51171875 660.482421875 378.28125 654.841796875 374.049804688 c 0
 643.559570312 368.409179688 633.688476562 359.947265625 620.995117188 357.126953125 c 0
 601.251953125 347.254882812 580.098632812 338.793945312 558.944335938 333.153320312 c 0
 553.302734375 330.33203125 546.251953125 327.51171875 539.200195312 324.69140625 c 0
 534.969726562 324.69140625 530.739257812 323.28125 526.508789062 321.87109375 c 0
 510.995117188 316.229492188 492.662109375 311.999023438 477.149414062 306.357421875 c 0
 463.046875 302.126953125 448.944335938 297.896484375 436.251953125 293.666015625 c 0
 423.559570312 289.434570312 412.27734375 286.614257812 399.584960938 282.383789062 c 0
 396.764648438 280.973632812 392.533203125 279.563476562 389.712890625 278.153320312 c 0
 392.533203125 269.69140625 398.174804688 262.639648438 400.995117188 254.177734375 c 1
 408.046875 255.587890625 416.508789062 256.999023438 423.559570312 261.229492188 c 0
 436.251953125 266.87109375 448.944335938 269.69140625 461.63671875 275.33203125 c 0
 475.739257812 283.793945312 492.662109375 286.614257812 506.764648438 295.076171875 c 0
 526.508789062 307.767578125 549.072265625 311.999023438 568.815429688 324.69140625 c 0
 576.373046875 328.469726562 586.180664062 333.374023438 596.229492188 333.374023438 c 0
 597.430664062 333.374023438 598.63671875 333.303710938 599.841796875 333.153320312 c 0
 605.482421875 330.33203125 612.533203125 327.51171875 616.764648438 321.87109375 c 0
 619.584960938 316.229492188 619.584960938 309.177734375 619.584960938 303.537109375 c 0
 618.174804688 295.076171875 612.533203125 288.024414062 608.302734375 280.973632812 c 0
 598.431640625 261.229492188 587.149414062 242.896484375 575.8671875 223.153320312 c 0
 565.995117188 204.819335938 551.892578125 187.896484375 539.200195312 169.563476562 c 0
 534.969726562 162.51171875 529.329101562 155.4609375 523.688476562 148.409179688 c 0
 519.45703125 142.767578125 516.63671875 137.126953125 510.995117188 131.486328125 c 0
 502.533203125 121.614257812 495.482421875 110.33203125 484.200195312 101.87109375 c 0
 475.833007812 96.640625 465.138671875 93.73828125 454.993164062 93.73828125 c 0
 451.458984375 93.73828125 447.9921875 94.0908203125 444.712890625 94.8193359375 c 0
 436.251953125 94.8193359375 429.200195312 99.0498046875 420.739257812 99.0498046875 c 0
 415.098632812 96.2294921875 413.688476562 90.587890625 410.8671875 84.947265625 c 0
 403.815429688 73.666015625 393.944335938 63.7939453125 384.072265625 55.33203125 c 0
 369.969726562 44.0498046875 357.27734375 34.177734375 341.764648438 27.126953125 c 0
 329.072265625 22.896484375 316.379882812 15.8447265625 302.27734375 14.4345703125 c 0
 294.94921875 13.6201171875 287.151367188 12.8056640625 279.42578125 12.8056640625 c 0
 273.770507812 12.8056640625 268.154296875 13.2421875 262.790039062 14.4345703125 c 0
 250.098632812 15.8447265625 237.405273438 18.666015625 227.533203125 27.126953125 c 0
 220.482421875 32.767578125 212.021484375 36.9990234375 206.379882812 44.0498046875 c 0
 196.508789062 55.33203125 189.45703125 68.0244140625 180.995117188 80.716796875 c 0
 175.354492188 90.587890625 169.712890625 101.87109375 171.123046875 113.153320312 c 0
 169.712890625 121.614257812 168.302734375 130.076171875 171.123046875 137.126953125 c 0
 175.354492188 146.999023438 183.815429688 155.4609375 190.8671875 162.51171875 c 0
 200.739257812 172.383789062 214.841796875 178.024414062 224.712890625 186.486328125 c 0
 233.174804688 192.126953125 244.45703125 194.947265625 252.918945312 199.177734375 c 0
 257.149414062 201.999023438 261.379882812 203.409179688 265.610351562 206.229492188 c 1
 261.379882812 218.921875 254.329101562 230.204101562 250.098632812 244.306640625 c 0
 248.688476562 251.357421875 248.688476562 258.409179688 247.27734375 266.87109375 c 0
 247.27734375 271.1015625 250.098632812 276.743164062 254.329101562 278.153320312 c 0
 265.610351562 282.383789062 275.482421875 288.024414062 286.764648438 292.254882812 c 0
 298.046875 297.896484375 312.149414062 303.537109375 324.841796875 309.177734375 c 1
 316.379882812 326.1015625 309.329101562 344.434570312 299.45703125 359.947265625 c 0
 293.815429688 369.819335938 290.995117188 381.1015625 286.764648438 390.973632812 c 0
 281.123046875 400.844726562 279.712890625 412.126953125 276.892578125 421.999023438 c 0
 269.841796875 438.921875 267.021484375 455.844726562 264.200195312 472.767578125 c 0
 264.200195312 479.819335938 265.610351562 486.87109375 267.021484375 495.33203125 c 0
 271.251953125 508.024414062 276.892578125 520.716796875 286.764648438 529.177734375 c 0
 295.225585938 537.639648438 300.8671875 547.51171875 309.329101562 554.563476562 c 0
 316.379882812 560.204101562 320.610351562 568.666015625 327.662109375 572.896484375 c 0
 331.892578125 575.716796875 337.533203125 575.716796875 341.764648438 578.537109375 c 0
 345.995117188 578.537109375 348.815429688 581.357421875 353.046875 584.177734375 c 0
EndSplineSet
Validated: 33
AlternateSubs2: "'rand' Zuf+AOQA-llig in Lateinisch Nachschlagetabelle 10-1" jaki0Tok jaki1Tok jaki2Tok jaki3Tok jaki4Tok
MultipleSubs2: "Mehrfache Substitution in Lateinisch Nachschlagetabelle 5-1" jakiTok cartTok
LCarets2: 4 102 102 102 102
Ligature2: "'liga' Standard-Ligaturen in Lateinisch Nachschlagetabelle 1 Glyphen-Daten 1" j a k i
Ligature2: "'liga' Standard-Ligaturen in Lateinisch Nachschlagetabelle 1 Glyphen-Daten 0" j a k i space
EndChar

StartChar: janTok
Encoding: 273 989457 17
Width: 845
VWidth: 929
Flags: W
HStem: 43.0566 47.708<331.33 479.956>
VStem: 139.269 38.0771<219.583 420.757> 661.064 33.8457<297.093 489.325>
LayerCount: 2
Fore
SplineSet
460.807617188 629.482421875 m 1
 460.807617188 628.072265625 459.397460938 626.662109375 459.397460938 625.251953125 c 0
 466.448242188 619.611328125 470.678710938 609.73828125 467.858398438 601.27734375 c 0
 463.627929688 598.45703125 459.397460938 597.046875 456.577148438 594.225585938 c 0
 450.935546875 595.635742188 445.294921875 598.45703125 439.654296875 597.046875 c 0
 438.244140625 598.45703125 436.833984375 598.45703125 435.422851562 599.8671875 c 0
 430.734375 597.783203125 426.046875 597.23828125 421.358398438 597.23828125 c 0
 416.228515625 597.23828125 411.099609375 597.889648438 405.970703125 597.889648438 c 0
 403.095703125 597.889648438 400.220703125 597.685546875 397.345703125 597.046875 c 0
 390.294921875 594.225585938 388.884765625 585.764648438 383.244140625 582.944335938 c 0
 379.012695312 580.124023438 373.372070312 578.713867188 369.141601562 578.713867188 c 0
 363.5 578.713867188 360.678710938 584.354492188 356.448242188 587.174804688 c 0
 349.397460938 585.764648438 345.166992188 580.124023438 339.525390625 577.302734375 c 0
 333.884765625 571.662109375 325.422851562 570.251953125 319.782226562 566.021484375 c 0
 307.08984375 557.55859375 294.397460938 547.6875 283.115234375 536.405273438 c 0
 270.422851562 525.124023438 259.141601562 512.431640625 246.448242188 501.1484375 c 0
 236.577148438 491.27734375 229.525390625 478.584960938 221.064453125 467.302734375 c 0
 211.192382812 453.200195312 202.731445312 437.6875 197.08984375 422.174804688 c 0
 191.448242188 412.302734375 188.627929688 401.021484375 185.807617188 389.73828125 c 0
 181.577148438 377.046875 180.166992188 362.944335938 177.345703125 348.841796875 c 0
 175.935546875 338.969726562 177.345703125 330.5078125 177.345703125 320.635742188 c 0
 177.345703125 307.944335938 177.345703125 295.251953125 180.166992188 282.55859375 c 0
 182.987304688 272.6875 182.987304688 259.995117188 187.217773438 250.124023438 c 0
 191.448242188 234.611328125 195.678710938 219.09765625 202.731445312 203.584960938 c 0
 206.961914062 193.713867188 211.192382812 183.841796875 218.244140625 175.379882812 c 0
 226.705078125 162.6875 237.987304688 149.995117188 247.858398438 137.302734375 c 0
 260.551757812 127.431640625 273.244140625 116.1484375 287.345703125 107.6875 c 1
 295.807617188 113.328125 304.268554688 114.73828125 312.731445312 111.91796875 c 0
 319.782226562 107.6875 324.012695312 99.2255859375 331.064453125 93.5849609375 c 0
 336.705078125 90.7646484375 343.755859375 92.1748046875 350.807617188 90.7646484375 c 0
 360.678710938 89.3544921875 370.551757812 90.7646484375 380.422851562 90.7646484375 c 0
 385.005859375 90.412109375 389.58984375 90.2353515625 394.150390625 90.2353515625 c 0
 407.834960938 90.2353515625 421.3203125 91.822265625 434.012695312 94.9951171875 c 0
 449.525390625 97.8154296875 463.627929688 103.45703125 479.141601562 107.6875 c 0
 507.345703125 117.55859375 532.731445312 135.892578125 553.884765625 155.635742188 c 0
 569.397460938 168.328125 582.08984375 185.251953125 593.372070312 200.764648438 c 0
 600.422851562 212.046875 608.884765625 223.328125 615.935546875 234.611328125 c 0
 624.397460938 247.302734375 630.038085938 261.405273438 635.678710938 275.5078125 c 0
 639.91015625 286.790039062 645.551757812 296.662109375 646.961914062 309.354492188 c 0
 648.372070312 317.815429688 652.602539062 326.27734375 654.012695312 336.1484375 c 0
 654.012695312 347.431640625 656.833984375 357.302734375 658.244140625 368.584960938 c 0
 658.244140625 381.27734375 661.064453125 392.55859375 662.474609375 406.662109375 c 0
 663.884765625 413.713867188 661.064453125 420.764648438 661.064453125 429.225585938 c 0
 661.064453125 437.6875 658.244140625 447.55859375 656.833984375 457.431640625 c 0
 652.602539062 474.354492188 644.141601562 489.8671875 635.678710938 505.379882812 c 0
 627.217773438 519.482421875 617.345703125 529.354492188 608.884765625 542.046875 c 0
 599.012695312 554.73828125 586.3203125 564.611328125 576.448242188 577.302734375 c 0
 570.807617188 582.944335938 567.987304688 589.995117188 560.935546875 594.225585938 c 0
 553.884765625 601.27734375 548.244140625 609.73828125 539.782226562 615.379882812 c 0
 529.91015625 621.021484375 515.807617188 623.841796875 504.525390625 628.072265625 c 0
 497.474609375 630.892578125 489.012695312 629.482421875 481.961914062 629.482421875 c 0
 474.91015625 630.892578125 467.858398438 629.482421875 460.807617188 629.482421875 c 1
449.525390625 671.790039062 m 0
 459.397460938 673.200195312 470.678710938 673.200195312 480.551757812 676.021484375 c 1
 490.422851562 674.611328125 503.115234375 676.021484375 512.987304688 673.200195312 c 0
 521.448242188 671.790039062 528.5 667.55859375 536.961914062 666.1484375 c 0
 544.012695312 664.73828125 548.244140625 659.09765625 553.884765625 656.27734375 c 0
 569.397460938 649.225585938 582.08984375 636.534179688 594.782226562 623.841796875 c 0
 601.833984375 615.379882812 608.884765625 605.5078125 617.345703125 597.046875 c 0
 627.217773438 585.764648438 638.5 574.482421875 648.372070312 563.200195312 c 0
 656.833984375 547.6875 669.525390625 534.995117188 677.987304688 518.072265625 c 0
 683.627929688 508.200195312 690.678710938 496.91796875 693.5 485.635742188 c 0
 700.551757812 470.124023438 699.141601562 453.200195312 701.961914062 437.6875 c 0
 703.372070312 429.225585938 707.602539062 420.764648438 704.782226562 412.302734375 c 0
 703.372070312 403.841796875 704.782226562 395.379882812 703.372070312 386.91796875 c 0
 701.961914062 377.046875 701.961914062 367.174804688 700.551757812 355.892578125 c 0
 699.141601562 344.611328125 696.3203125 334.73828125 694.91015625 323.45703125 c 0
 694.91015625 312.174804688 690.678710938 302.302734375 687.858398438 292.431640625 c 0
 686.448242188 288.200195312 686.448242188 282.55859375 685.038085938 278.328125 c 0
 680.807617188 269.8671875 679.397460938 261.405273438 675.166992188 252.944335938 c 0
 669.525390625 236.021484375 659.654296875 219.09765625 649.782226562 203.584960938 c 0
 645.551757812 196.534179688 642.731445312 189.482421875 637.08984375 182.431640625 c 0
 634.268554688 178.200195312 631.448242188 172.55859375 627.217773438 168.328125 c 0
 617.345703125 158.45703125 608.884765625 147.174804688 600.422851562 137.302734375 c 0
 594.782226562 131.662109375 590.551757812 123.200195312 584.91015625 118.969726562 c 0
 566.577148438 103.45703125 548.244140625 87.9443359375 527.08984375 75.251953125 c 1
 531.3203125 66.7900390625 536.961914062 59.73828125 542.602539062 51.27734375 c 0
 548.244140625 45.6357421875 549.654296875 38.5849609375 555.294921875 32.9443359375 c 0
 563.755859375 23.072265625 570.807617188 10.3798828125 582.08984375 0.5078125 c 0
 589.141601562 -7.953125 594.782226562 -17.8251953125 600.422851562 -27.697265625 c 0
 603.244140625 -33.337890625 606.064453125 -38.978515625 607.474609375 -44.6201171875 c 1
 601.833984375 -47.44140625 599.012695312 -50.26171875 594.782226562 -53.08203125 c 0
 590.551757812 -55.90234375 584.91015625 -54.4921875 580.678710938 -53.08203125 c 0
 573.627929688 -51.671875 567.987304688 -47.44140625 563.755859375 -43.2099609375 c 0
 553.884765625 -34.748046875 546.833984375 -24.8759765625 538.372070312 -17.8251953125 c 0
 531.3203125 -10.7744140625 524.268554688 -3.72265625 520.038085938 4.73828125 c 0
 515.807617188 10.3798828125 511.577148438 14.611328125 507.345703125 20.251953125 c 0
 500.294921875 34.3544921875 493.244140625 48.45703125 480.551757812 56.91796875 c 1
 467.858398438 51.27734375 453.755859375 51.27734375 439.654296875 47.046875 c 0
 423.698242188 45.0517578125 406.333007812 43.056640625 389.052734375 43.056640625 c 0
 381.895507812 43.056640625 374.752929688 43.3994140625 367.731445312 44.2255859375 c 0
 357.858398438 45.6357421875 346.577148438 44.2255859375 336.705078125 47.046875 c 0
 328.244140625 48.45703125 319.782226562 52.6875 311.3203125 49.8671875 c 0
 307.08984375 45.6357421875 302.858398438 39.9951171875 298.627929688 34.3544921875 c 0
 284.525390625 20.251953125 273.244140625 4.73828125 260.551757812 -9.3642578125 c 0
 252.08984375 -17.8251953125 247.858398438 -26.2861328125 239.397460938 -34.748046875 c 0
 232.345703125 -43.2099609375 223.884765625 -50.26171875 215.422851562 -58.72265625 c 0
 208.372070312 -64.3642578125 201.3203125 -72.8251953125 192.858398438 -75.6455078125 c 0
 184.397460938 -77.0556640625 177.345703125 -74.2353515625 170.294921875 -71.4150390625 c 0
 166.064453125 -70.0048828125 164.654296875 -65.7744140625 166.064453125 -61.54296875 c 0
 167.474609375 -55.90234375 163.244140625 -50.26171875 163.244140625 -46.0302734375 c 0
 168.884765625 -37.568359375 175.935546875 -29.107421875 184.397460938 -20.6455078125 c 0
 191.448242188 -10.7744140625 201.3203125 -2.3125 209.782226562 7.55859375 c 0
 223.884765625 23.072265625 236.577148438 38.5849609375 249.268554688 54.09765625 c 0
 253.5 59.73828125 260.551757812 65.3798828125 263.372070312 73.841796875 c 1
 257.731445312 79.482421875 249.268554688 83.7138671875 242.217773438 87.9443359375 c 0
 236.577148438 90.7646484375 232.345703125 97.8154296875 228.115234375 102.046875 c 0
 208.372070312 118.969726562 194.268554688 141.534179688 180.166992188 164.09765625 c 0
 171.705078125 178.200195312 164.654296875 193.713867188 160.422851562 210.635742188 c 0
 154.782226562 223.328125 150.551757812 236.021484375 149.141601562 248.713867188 c 0
 147.731445312 258.584960938 143.5 268.45703125 142.08984375 278.328125 c 0
 139.268554688 302.302734375 139.268554688 324.8671875 139.268554688 348.841796875 c 0
 139.268554688 360.124023438 142.08984375 369.995117188 143.5 381.27734375 c 0
 144.91015625 392.55859375 149.141601562 402.431640625 151.961914062 413.713867188 c 0
 153.372070312 424.995117188 157.602539062 433.45703125 161.833984375 443.328125 c 0
 166.064453125 456.021484375 173.115234375 468.713867188 180.166992188 481.405273438 c 0
 187.217773438 491.27734375 192.858398438 502.55859375 199.91015625 512.431640625 c 0
 205.551757812 520.892578125 212.602539062 529.354492188 219.654296875 536.405273438 c 0
 222.474609375 540.635742188 228.115234375 543.45703125 232.345703125 549.09765625 c 0
 235.166992188 551.91796875 239.397460938 556.1484375 242.217773438 560.379882812 c 0
 249.268554688 567.431640625 259.141601562 571.662109375 266.192382812 578.713867188 c 0
 270.422851562 584.354492188 276.064453125 587.174804688 281.705078125 592.815429688 c 0
 302.858398438 611.1484375 326.833984375 623.841796875 352.217773438 633.713867188 c 0
 359.268554688 636.534179688 366.3203125 637.944335938 373.372070312 643.584960938 c 0
 379.012695312 649.225585938 387.474609375 653.45703125 393.115234375 659.09765625 c 0
 400.166992188 664.73828125 410.038085938 666.1484375 418.5 668.969726562 c 0
 428.372070312 671.790039062 439.654296875 670.379882812 449.525390625 671.790039062 c 0
EndSplineSet
Validated: 1
MultipleSubs2: "Mehrfache Substitution in Lateinisch Nachschlagetabelle 5-1" janTok cartTok
Ligature2: "'liga' Standard-Ligaturen in Lateinisch Nachschlagetabelle 1 Glyphen-Daten 1" j a n
Ligature2: "'liga' Standard-Ligaturen in Lateinisch Nachschlagetabelle 1 Glyphen-Daten 0" j a n space
EndChar

StartChar: jeloTok
Encoding: 274 989458 18
Width: 845
VWidth: 938
Flags: W
HStem: -64.6885 40.1924<272.473 409.445> 547.551 43.5303<366.729 396.434>
VStem: 396.29 45.127<278.796 329.785 593.901 644.339> 502.517 44.2295<401.259 435.82>
LayerCount: 2
Fore
SplineSet
417.443359375 211.721679688 m 0
 407.572265625 191.978515625 397.700195312 172.234375 386.416992188 153.901367188 c 0
 377.956054688 139.798828125 369.495117188 124.28515625 361.033203125 110.182617188 c 0
 346.930664062 83.388671875 328.596679688 59.4140625 310.263671875 35.439453125 c 0
 306.033203125 28.388671875 301.802734375 22.7470703125 297.572265625 15.6953125 c 0
 289.110351562 3.0029296875 276.416992188 -6.8681640625 272.186523438 -22.380859375 c 1
 277.828125 -23.791015625 283.822265625 -24.49609375 289.991210938 -24.49609375 c 0
 296.161132812 -24.49609375 302.5078125 -23.791015625 308.853515625 -22.380859375 c 0
 321.545898438 -20.970703125 335.6484375 -19.560546875 349.750976562 -16.740234375 c 0
 358.212890625 -13.9189453125 368.083984375 -12.5087890625 377.956054688 -11.0986328125 c 0
 386.416992188 -8.2783203125 396.290039062 -8.2783203125 406.161132812 -5.4580078125 c 0
 418.853515625 -1.2275390625 432.956054688 -2.6376953125 445.6484375 0.1826171875 c 0
 458.340820312 3.0029296875 469.623046875 3.0029296875 482.315429688 4.4140625 c 0
 499.23828125 8.64453125 516.161132812 8.64453125 533.083984375 11.46484375 c 0
 544.366210938 12.875 555.6484375 12.875 566.930664062 14.28515625 c 0
 568.340820312 15.6953125 571.161132812 17.10546875 571.161132812 18.515625 c 0
 569.750976562 31.208984375 566.930664062 43.9013671875 562.700195312 55.1826171875 c 0
 561.290039062 63.64453125 554.23828125 70.6953125 550.006835938 77.7470703125 c 0
 544.366210938 89.029296875 537.315429688 97.4912109375 531.673828125 108.772460938 c 0
 523.212890625 121.46484375 516.161132812 134.158203125 506.290039062 145.439453125 c 0
 486.545898438 169.4140625 468.212890625 194.798828125 448.469726562 218.772460938 c 0
 441.416992188 224.4140625 434.366210938 230.0546875 428.725585938 237.10546875 c 1
 423.083984375 230.0546875 420.263671875 220.182617188 417.443359375 211.721679688 c 0
406.161132812 544.541992188 m 0
 403.770507812 544.063476562 401.419921875 543.869140625 399.102539062 543.869140625 c 0
 389.020507812 543.869140625 379.575195312 547.55078125 370.202148438 547.55078125 c 0
 369.025390625 547.55078125 367.849609375 547.493164062 366.673828125 547.362304688 c 0
 359.623046875 538.901367188 353.982421875 529.029296875 348.340820312 517.747070312 c 0
 342.700195312 505.0546875 339.879882812 492.362304688 337.05859375 479.669921875 c 0
 338.469726562 472.619140625 344.110351562 468.388671875 344.110351562 461.336914062 c 0
 342.700195312 455.6953125 338.469726562 451.46484375 337.05859375 445.82421875 c 0
 338.469726562 438.772460938 341.290039062 430.311523438 344.110351562 423.259765625 c 0
 345.520507812 414.798828125 353.982421875 407.747070312 358.212890625 399.28515625 c 0
 366.673828125 389.4140625 376.545898438 379.541992188 387.828125 373.901367188 c 0
 397.700195312 368.259765625 408.982421875 369.669921875 418.853515625 366.849609375 c 0
 421.09765625 366.401367188 423.305664062 366.202148438 425.484375 366.202148438 c 0
 436.995117188 366.202148438 447.66796875 371.75390625 458.340820312 375.311523438 c 0
 469.623046875 382.362304688 482.315429688 389.4140625 490.776367188 400.6953125 c 0
 498.770507812 412.685546875 502.516601562 426.798828125 502.516601562 441.029296875 c 0
 502.516601562 446.884765625 501.881835938 452.759765625 500.6484375 458.515625 c 0
 493.596679688 481.081054688 479.495117188 500.82421875 462.572265625 516.336914062 c 0
 454.110351562 526.208984375 444.23828125 533.259765625 434.366210938 541.721679688 c 0
 427.315429688 545.952148438 420.263671875 550.182617188 413.212890625 553.002929688 c 0
 410.392578125 550.182617188 408.982421875 547.362304688 406.161132812 544.541992188 c 0
407.572265625 664.4140625 m 0
 411.802734375 665.82421875 416.033203125 664.4140625 420.263671875 664.4140625 c 0
 424.495117188 664.4140625 427.315429688 660.182617188 430.135742188 655.952148438 c 0
 434.366210938 653.131835938 438.596679688 650.311523438 441.416992188 644.669921875 c 0
 442.828125 637.619140625 442.828125 630.568359375 441.416992188 622.10546875 c 0
 441.416992188 612.234375 441.416992188 603.772460938 441.416992188 593.901367188 c 0
 441.416992188 586.849609375 440.006835938 578.388671875 445.6484375 574.158203125 c 0
 455.520507812 567.10546875 466.802734375 561.46484375 475.263671875 553.002929688 c 0
 490.776367188 538.901367188 506.290039062 523.388671875 518.982421875 506.46484375 c 0
 524.623046875 499.4140625 527.443359375 490.952148438 533.083984375 485.311523438 c 1
 544.366210938 485.311523438 555.6484375 489.541992188 566.930664062 489.541992188 c 0
 573.982421875 489.541992188 582.443359375 486.721679688 588.083984375 483.901367188 c 0
 593.725585938 482.491210938 595.135742188 476.849609375 597.956054688 472.619140625 c 0
 600.776367188 469.798828125 605.006835938 466.978515625 607.828125 462.747070312 c 0
 606.416992188 457.10546875 603.596679688 451.46484375 599.366210938 447.234375 c 0
 590.905273438 445.82421875 583.853515625 447.234375 575.392578125 444.4140625 c 0
 565.520507812 441.592773438 555.6484375 441.592773438 547.186523438 435.952148438 c 0
 546.833984375 433.131835938 546.74609375 430.399414062 546.74609375 427.733398438 c 0
 546.74609375 425.06640625 546.833984375 422.466796875 546.833984375 419.911132812 c 0
 546.833984375 414.798828125 546.481445312 409.86328125 544.366210938 404.926757812 c 0
 541.545898438 396.46484375 538.725585938 389.4140625 535.905273438 382.362304688 c 0
 528.853515625 372.491210938 520.392578125 364.029296875 511.930664062 356.978515625 c 0
 497.828125 347.10546875 482.315429688 338.64453125 465.392578125 333.002929688 c 0
 458.340820312 330.182617188 449.879882812 330.182617188 442.828125 327.362304688 c 1
 441.416992188 311.849609375 442.828125 294.926757812 440.006835938 278.002929688 c 1
 449.879882812 270.952148438 454.110351562 261.081054688 462.572265625 252.619140625 c 0
 473.853515625 242.747070312 483.725585938 230.0546875 493.596679688 218.772460938 c 0
 506.290039062 200.439453125 518.982421875 182.10546875 534.495117188 166.592773438 c 0
 545.776367188 151.081054688 557.059570312 136.978515625 565.520507812 120.0546875 c 0
 575.392578125 104.541992188 585.263671875 90.439453125 595.135742188 76.3369140625 c 0
 603.596679688 63.64453125 607.828125 50.9521484375 610.6484375 36.849609375 c 0
 613.469726562 21.3369140625 623.340820312 7.234375 627.572265625 -8.2783203125 c 1
 623.340820312 -16.740234375 617.700195312 -25.201171875 609.23828125 -28.021484375 c 0
 599.366210938 -32.2529296875 589.495117188 -28.021484375 579.623046875 -25.201171875 c 0
 568.744140625 -25.201171875 557.864257812 -28.3095703125 546.985351562 -28.3095703125 c 2
 541.545898438 -28.021484375 l 2
 533.083984375 -29.431640625 523.212890625 -32.2529296875 514.750976562 -32.2529296875 c 0
 492.186523438 -33.6630859375 469.623046875 -37.89453125 447.05859375 -39.3046875 c 0
 440.006835938 -40.71484375 432.956054688 -44.9453125 425.905273438 -43.53515625 c 0
 403.340820312 -44.9453125 383.596679688 -50.5859375 362.443359375 -56.2275390625 c 0
 339.171875 -61.1259765625 315.899414062 -64.9619140625 292.627929688 -64.9619140625 c 2
 282.05859375 -64.6884765625 l 2
 275.006835938 -64.6884765625 267.956054688 -66.0986328125 260.905273438 -63.2783203125 c 0
 249.623046875 -59.0478515625 238.340820312 -51.9970703125 228.469726562 -43.53515625 c 0
 222.828125 -39.3046875 221.416992188 -32.2529296875 218.596679688 -26.611328125 c 0
 215.776367188 -20.970703125 218.596679688 -13.9189453125 221.416992188 -8.2783203125 c 0
 224.23828125 -1.2275390625 229.879882812 4.4140625 234.110351562 10.0546875 c 0
 248.212890625 25.568359375 259.495117188 42.4912109375 272.186523438 59.4140625 c 0
 279.23828125 66.46484375 287.700195312 74.9267578125 293.340820312 84.798828125 c 0
 304.623046875 103.131835938 315.905273438 121.46484375 327.186523438 141.208984375 c 0
 332.828125 151.081054688 338.469726562 162.362304688 346.930664062 170.82421875 c 0
 356.802734375 190.568359375 366.673828125 211.721679688 376.545898438 231.46484375 c 0
 382.186523438 238.515625 386.416992188 246.978515625 389.23828125 255.439453125 c 0
 392.885742188 268.809570312 399.673828125 281.1328125 399.673828125 295.1171875 c 0
 399.673828125 297.357421875 399.5 299.641601562 399.110351562 301.978515625 c 0
 396.290039062 311.849609375 394.879882812 321.721679688 393.469726562 330.182617188 c 1
 387.828125 334.4140625 379.366210938 335.82421875 373.725585938 338.64453125 c 0
 361.033203125 345.6953125 349.750976562 355.568359375 338.469726562 365.439453125 c 0
 331.416992188 373.901367188 322.956054688 383.772460938 315.905273438 392.234375 c 0
 308.853515625 402.10546875 304.623046875 414.798828125 300.392578125 424.669921875 c 0
 296.161132812 433.131835938 296.161132812 441.592773438 291.930664062 450.0546875 c 1
 284.879882812 452.875 277.828125 451.46484375 269.366210938 452.875 c 0
 263.725585938 455.6953125 255.263671875 459.926757812 253.853515625 466.978515625 c 0
 252.443359375 472.619140625 249.623046875 478.259765625 248.212890625 483.901367188 c 0
 251.033203125 489.541992188 252.443359375 493.772460938 256.673828125 498.002929688 c 0
 260.004882812 499.251953125 263.458007812 499.640625 266.962890625 499.640625 c 0
 272.736328125 499.640625 278.646484375 498.5859375 284.369140625 498.5859375 c 0
 286.9375 498.5859375 289.467773438 498.797851562 291.930664062 499.4140625 c 0
 294.750976562 510.6953125 297.572265625 521.978515625 303.212890625 533.259765625 c 0
 307.443359375 547.362304688 314.495117188 560.0546875 322.956054688 571.336914062 c 0
 330.006835938 576.978515625 337.05859375 584.029296875 345.520507812 588.259765625 c 0
 353.982421875 592.491210938 363.853515625 589.669921875 373.725585938 591.081054688 c 0
 380.776367188 592.491210938 389.23828125 593.901367188 396.290039062 593.901367188 c 1
 399.110351562 600.952148438 396.290039062 608.002929688 396.290039062 616.46484375 c 0
 396.290039062 625.491210938 394.485351562 635.418945312 394.485351562 644.805664062 c 0
 394.485351562 647.15234375 394.59765625 649.465820312 394.879882812 651.721679688 c 0
 397.700195312 657.362304688 401.930664062 663.002929688 407.572265625 664.4140625 c 0
EndSplineSet
Validated: 1
MultipleSubs2: "Mehrfache Substitution in Lateinisch Nachschlagetabelle 5-1" jeloTok cartTok
Ligature2: "'liga' Standard-Ligaturen in Lateinisch Nachschlagetabelle 1 Glyphen-Daten 1" j e l o
Ligature2: "'liga' Standard-Ligaturen in Lateinisch Nachschlagetabelle 1 Glyphen-Daten 0" j e l o space
EndChar

StartChar: joTok
Encoding: 275 989459 19
Width: 845
VWidth: 966
Flags: W
HStem: 198.875 53.5898<400.001 514.915> 212.978 42.3076<417.187 514.915> 215.799 55<417.187 516.435> 347.835 50.0713<415.331 479.561>
VStem: 277.926 50.6377<124.331 267.973> 491.84 47.2461<407.003 492.148> 515.378 51.6953<122.505 215.653>
LayerCount: 2
Fore
SplineSet
436.403320312 513.362304688 m 0x1c
 427.94140625 510.541992188 420.890625 511.952148438 413.838867188 506.311523438 c 0
 403.967773438 500.669921875 398.326171875 492.208984375 391.275390625 482.3359375 c 0
 384.223632812 473.875 381.403320312 462.592773438 377.171875 451.311523438 c 0
 374.3515625 442.849609375 374.3515625 432.977539062 375.76171875 424.515625 c 0
 377.171875 410.413085938 385.633789062 399.131835938 394.095703125 389.259765625 c 1
 405.654296875 391.828125 418.3828125 397.90625 431.215820312 397.90625 c 0
 432.474609375 397.90625 433.733398438 397.84765625 434.993164062 397.721679688 c 0
 442.044921875 397.721679688 447.685546875 394.900390625 453.326171875 394.900390625 c 0
 457.557617188 396.311523438 460.377929688 399.131835938 463.198242188 400.541992188 c 0
 471.659179688 407.592773438 478.7109375 416.0546875 482.94140625 425.92578125 c 0
 487.171875 434.387695312 492.813476562 444.259765625 491.403320312 454.131835938 c 0
 491.69921875 456.055664062 491.83984375 457.963867188 491.83984375 459.852539062 c 0
 491.83984375 475.955078125 481.609375 490.571289062 470.249023438 500.669921875 c 0
 463.198242188 506.311523438 458.967773438 511.952148438 451.916015625 516.182617188 c 0
 446.275390625 516.182617188 442.044921875 513.362304688 436.403320312 513.362304688 c 0x1c
423.7109375 557.080078125 m 0
 430.76171875 558.490234375 439.223632812 557.080078125 447.685546875 555.669921875 c 0
 454.737304688 554.259765625 461.788085938 551.439453125 467.428710938 547.208984375 c 0
 481.53125 538.74609375 495.633789062 530.28515625 505.505859375 517.592773438 c 0
 518.198242188 507.721679688 528.0703125 497.849609375 535.12109375 483.74609375 c 0
 537.579101562 475.55078125 539.0859375 466.879882812 539.0859375 458.561523438 c 0x5c
 539.0859375 452.56640625 538.303710938 446.755859375 536.53125 441.439453125 c 0
 532.30078125 427.3359375 526.659179688 411.823242188 519.608398438 399.131835938 c 0
 508.326171875 382.208984375 492.813476562 368.10546875 474.48046875 358.233398438 c 0
 467.428710938 354.002929688 458.967773438 352.592773438 450.505859375 349.772460938 c 0
 446.5 348.270507812 442.31640625 347.834960938 438.081054688 347.834960938 c 0
 432.23828125 347.834960938 426.295898438 348.6640625 420.587890625 348.6640625 c 0
 418.78125 348.6640625 416.998046875 348.581054688 415.249023438 348.362304688 c 0
 411.018554688 346.952148438 406.788085938 342.721679688 402.557617188 339.900390625 c 0
 391.275390625 328.619140625 379.993164062 317.3359375 371.53125 303.233398438 c 0
 363.0703125 291.952148438 357.428710938 279.259765625 350.377929688 267.977539062 c 0
 343.326171875 253.875 337.685546875 239.772460938 332.044921875 225.669921875 c 0
 329.689453125 216.250976562 328.563476562 206.83203125 328.563476562 197.514648438 c 0
 328.563476562 184.513671875 330.756835938 171.7109375 334.865234375 159.387695312 c 0
 340.505859375 132.592773438 357.428710938 111.439453125 378.58203125 94.515625 c 0
 385.633789062 90.28515625 392.685546875 86.0546875 401.147460938 84.64453125 c 0
 411.018554688 83.2333984375 420.890625 81.8232421875 430.76171875 81.8232421875 c 0
 443.455078125 84.64453125 457.557617188 87.46484375 467.428710938 97.3359375 c 0
 478.7109375 102.977539062 485.76171875 111.439453125 492.813476562 121.311523438 c 0
 499.865234375 134.002929688 505.505859375 148.10546875 511.147460938 162.208984375 c 0
 513.967773438 170.669921875 513.967773438 180.541992188 515.377929688 190.413085938 c 0
 516.788085938 198.875 516.788085938 207.3359375 515.377929688 215.798828125 c 1x3a
 505.505859375 215.798828125 495.633789062 212.977539062 485.76171875 212.977539062 c 0x5a
 474.48046875 212.977539062 461.788085938 210.15625 449.095703125 207.3359375 c 0
 439.223632812 205.92578125 430.76171875 197.46484375 419.48046875 198.875 c 0
 411.018554688 198.875 402.557617188 200.28515625 396.916015625 205.92578125 c 0
 392.989257812 211.162109375 390.884765625 217.61328125 390.884765625 224.010742188 c 0
 390.884765625 231.397460938 393.69140625 238.712890625 399.737304688 244.002929688 c 0
 405.377929688 246.823242188 409.608398438 251.0546875 416.659179688 252.46484375 c 0x9a
 427.94140625 252.46484375 437.813476562 255.28515625 449.095703125 255.28515625 c 0x5a
 466.018554688 256.6953125 482.94140625 259.515625 499.865234375 262.3359375 c 0
 506.916015625 265.15625 512.557617188 270.798828125 521.018554688 270.798828125 c 0
 526.659179688 270.798828125 532.30078125 275.029296875 537.94140625 270.798828125 c 0x3a
 544.993164062 263.74609375 554.865234375 259.515625 560.505859375 251.0546875 c 0
 566.147460938 244.002929688 563.326171875 235.541992188 564.737304688 228.490234375 c 0
 566.389648438 221.881835938 567.073242188 215.756835938 567.073242188 209.548828125 c 0
 567.073242188 205.159179688 566.731445312 200.727539062 566.147460938 196.0546875 c 0
 564.737304688 176.311523438 560.505859375 157.977539062 557.685546875 139.64453125 c 0
 552.044921875 124.131835938 544.993164062 108.619140625 536.53125 95.92578125 c 0
 528.0703125 83.2333984375 516.788085938 73.3623046875 505.505859375 64.900390625 c 0
 494.223632812 55.029296875 480.12109375 50.798828125 466.018554688 46.5673828125 c 0
 453.326171875 42.3359375 440.633789062 43.74609375 426.53125 42.3359375 c 0
 411.018554688 43.74609375 395.505859375 45.15625 379.993164062 50.798828125 c 0
 370.12109375 53.619140625 361.659179688 59.259765625 353.198242188 64.900390625 c 0
 340.505859375 70.5419921875 332.044921875 81.8232421875 322.171875 90.28515625 c 0
 315.12109375 97.3359375 310.890625 105.798828125 303.838867188 112.849609375 c 0
 292.557617188 129.772460938 286.916015625 149.515625 282.685546875 169.259765625 c 0
 279.512695312 180.89453125 277.92578125 193.322265625 277.92578125 205.948242188 c 0
 277.92578125 210.157226562 278.102539062 214.387695312 278.455078125 218.619140625 c 0
 281.275390625 231.311523438 284.095703125 244.002929688 288.326171875 255.28515625 c 0x5a
 291.147460938 267.977539062 301.018554688 277.849609375 305.249023438 289.131835938 c 0
 306.659179688 293.362304688 309.48046875 299.002929688 312.30078125 303.233398438 c 0
 319.3515625 313.10546875 326.403320312 322.977539062 333.455078125 332.849609375 c 0
 341.916015625 342.721679688 350.377929688 351.182617188 358.838867188 361.0546875 c 0
 358.838867188 362.46484375 361.659179688 365.28515625 358.838867188 366.6953125 c 0
 351.788085938 376.567382812 341.916015625 385.029296875 336.275390625 396.311523438 c 0
 330.73046875 409.6171875 326.9296875 424.66796875 326.9296875 439.40625 c 0
 326.9296875 443.411132812 327.2109375 447.393554688 327.813476562 451.311523438 c 0
 329.223632812 461.182617188 330.633789062 471.0546875 333.455078125 479.515625 c 0
 340.505859375 493.619140625 347.557617188 506.311523438 358.838867188 516.182617188 c 0
 367.30078125 524.64453125 377.171875 531.6953125 387.044921875 537.3359375 c 0
 395.505859375 541.567382812 403.967773438 541.567382812 412.428710938 544.387695312 c 0
 415.249023438 548.619140625 418.0703125 554.259765625 423.7109375 557.080078125 c 0
EndSplineSet
Validated: 1
MultipleSubs2: "Mehrfache Substitution in Lateinisch Nachschlagetabelle 5-1" joTok cartTok
Ligature2: "'liga' Standard-Ligaturen in Lateinisch Nachschlagetabelle 1 Glyphen-Daten 1" j o
Ligature2: "'liga' Standard-Ligaturen in Lateinisch Nachschlagetabelle 1 Glyphen-Daten 0" j o space
EndChar

StartChar: kalaTok
Encoding: 276 989460 20
Width: 845
VWidth: 999
Flags: W
HStem: 177.17 44.8438<421.955 616.605> 392.938 46.5957<432.479 607.586>
VStem: 150.207 46.5381<152.049 189.465> 648.58 49.0322<241.063 360.572>
LayerCount: 2
Fore
SplineSet
467.514648438 384.477539062 m 0
 453.412109375 380.247070312 439.310546875 374.60546875 425.20703125 367.5546875 c 0
 416.745117188 363.32421875 406.874023438 363.32421875 398.412109375 357.682617188 c 0
 387.130859375 349.220703125 373.02734375 343.580078125 360.334960938 335.118164062 c 0
 349.053710938 329.477539062 339.181640625 322.426757812 329.310546875 313.96484375 c 0
 327.900390625 312.5546875 326.489257812 311.14453125 325.079101562 309.734375 c 1
 332.130859375 304.092773438 339.181640625 298.451171875 344.822265625 292.810546875 c 0
 350.463867188 287.169921875 356.104492188 284.348632812 363.15625 278.708007812 c 0
 374.4375 270.247070312 387.130859375 261.78515625 399.822265625 254.734375 c 0
 406.874023438 249.092773438 415.334960938 247.682617188 422.38671875 243.451171875 c 0
 436.489257812 237.810546875 452.001953125 233.580078125 467.514648438 230.759765625 c 0
 478.796875 229.348632812 490.079101562 226.528320312 501.361328125 226.528320312 c 0
 507.001953125 226.528320312 514.053710938 226.528320312 519.694335938 225.118164062 c 0
 538.02734375 222.297851562 554.951171875 222.297851562 573.284179688 222.297851562 c 0
 574.662109375 222.100585938 576.068359375 222.013671875 577.494140625 222.013671875 c 0
 586.279296875 222.013671875 595.81640625 225.314453125 604.310546875 226.528320312 c 0
 621.233398438 232.169921875 633.924804688 246.272460938 639.56640625 261.78515625 c 0
 642.38671875 271.657226562 646.6171875 281.528320312 648.02734375 291.400390625 c 0
 648.405273438 294.80078125 648.580078125 298.202148438 648.580078125 301.575195312 c 0
 648.580078125 310.79296875 647.271484375 319.807617188 645.20703125 328.067382812 c 0
 642.38671875 339.348632812 636.745117188 350.630859375 628.284179688 359.092773438 c 0
 622.643554688 366.14453125 612.771484375 367.5546875 604.310546875 373.1953125 c 0
 594.4375 377.426757812 584.56640625 378.836914062 574.694335938 383.067382812 c 0
 562.001953125 385.887695312 549.310546875 388.708007812 536.6171875 392.938476562 c 0
 530.9765625 394.348632812 525.334960938 391.528320312 519.694335938 392.938476562 c 0
 514.053710938 394.348632812 507.001953125 395.759765625 501.361328125 394.348632812 c 0
 490.079101562 392.938476562 478.796875 390.118164062 467.514648438 384.477539062 c 0
168.541015625 442.297851562 m 1
 175.591796875 450.759765625 188.284179688 450.759765625 196.745117188 447.938476562 c 0
 209.4375 440.887695312 216.489257812 431.015625 224.951171875 421.14453125 c 0
 229.181640625 415.50390625 233.412109375 409.861328125 239.053710938 405.630859375 c 0
 244.694335938 398.580078125 250.334960938 391.528320312 255.9765625 384.477539062 c 0
 267.2578125 373.1953125 278.541015625 360.50390625 288.412109375 349.220703125 c 1
 308.15625 361.9140625 326.489257812 376.015625 347.643554688 384.477539062 c 1
 361.745117188 395.759765625 378.66796875 402.810546875 394.181640625 409.861328125 c 0
 406.874023438 412.682617188 419.56640625 421.14453125 432.2578125 423.96484375 c 0
 444.951171875 428.1953125 457.643554688 431.015625 468.924804688 435.247070312 c 0
 483.49609375 437.978515625 498.655273438 439.534179688 514.022460938 439.534179688 c 0
 522.452148438 439.534179688 530.9453125 439.06640625 539.4375 438.067382812 c 0
 549.310546875 436.657226562 557.771484375 431.015625 567.643554688 431.015625 c 0
 584.56640625 429.60546875 600.079101562 422.5546875 615.591796875 415.50390625 c 0
 625.463867188 414.092773438 633.924804688 408.451171875 642.38671875 405.630859375 c 0
 650.84765625 401.400390625 655.079101562 394.348632812 662.130859375 388.708007812 c 0
 672.001953125 378.836914062 681.874023438 368.96484375 687.514648438 354.861328125 c 0
 690.334960938 346.400390625 691.745117188 337.938476562 694.56640625 329.477539062 c 0
 697.104492188 320.169921875 697.612304688 310.861328125 697.612304688 301.553710938 c 0
 697.612304688 295.348632812 697.38671875 289.143554688 697.38671875 282.938476562 c 0
 697.38671875 274.477539062 694.56640625 264.60546875 693.15625 256.14453125 c 0
 691.745117188 244.861328125 684.694335938 234.990234375 680.463867188 225.118164062 c 0
 672.001953125 213.836914062 663.541015625 201.14453125 649.4375 195.50390625 c 0
 643.796875 194.092773438 639.56640625 189.861328125 633.924804688 188.451171875 c 0
 614.181640625 181.400390625 594.4375 177.169921875 574.694335938 177.169921875 c 0
 563.412109375 178.580078125 553.541015625 177.169921875 543.66796875 178.580078125 c 0
 535.20703125 179.990234375 528.15625 179.990234375 521.104492188 179.990234375 c 0
 504.181640625 182.810546875 488.66796875 182.810546875 473.15625 185.630859375 c 0
 454.822265625 188.451171875 436.489257812 192.682617188 419.56640625 198.32421875 c 0
 408.284179688 201.14453125 398.412109375 208.1953125 388.541015625 212.426757812 c 0
 382.900390625 215.247070312 377.2578125 219.477539062 371.6171875 222.297851562 c 0
 367.38671875 225.118164062 363.15625 226.528320312 358.924804688 229.348632812 c 0
 346.233398438 237.810546875 332.130859375 244.861328125 320.84765625 256.14453125 c 0
 313.796875 261.78515625 306.745117188 266.015625 301.104492188 273.067382812 c 0
 298.284179688 275.887695312 295.463867188 278.708007812 292.643554688 281.528320312 c 0
 288.412109375 282.938476562 285.591796875 278.708007812 281.361328125 275.887695312 c 0
 277.130859375 271.657226562 268.66796875 270.247070312 265.84765625 264.60546875 c 0
 264.4375 260.375 260.20703125 258.96484375 258.796875 257.5546875 c 0
 244.694335938 244.861328125 233.412109375 230.759765625 222.130859375 216.657226562 c 0
 216.489257812 212.426757812 215.079101562 202.5546875 208.02734375 196.9140625 c 0
 200.9765625 187.041015625 198.15625 172.938476562 196.745117188 160.247070312 c 0
 196.745117188 154.60546875 189.694335938 156.015625 185.463867188 153.1953125 c 0
 178.412109375 148.96484375 171.361328125 150.375 164.310546875 151.78515625 c 0
 158.66796875 157.426757812 154.4375 161.657226562 150.20703125 165.887695312 c 0
 147.38671875 172.938476562 147.38671875 181.400390625 147.38671875 189.861328125 c 0
 147.38671875 198.32421875 153.02734375 206.78515625 155.84765625 215.247070312 c 0
 158.66796875 220.887695312 158.66796875 229.348632812 162.900390625 236.400390625 c 0
 168.541015625 242.041015625 175.591796875 244.861328125 181.233398438 250.50390625 c 0
 189.694335938 260.375 196.745117188 270.247070312 205.20703125 280.118164062 c 0
 216.489257812 292.810546875 230.591796875 305.50390625 244.694335938 318.1953125 c 0
 247.514648438 319.60546875 250.334960938 322.426757812 250.334960938 325.247070312 c 0
 243.284179688 336.528320312 230.591796875 344.990234375 223.541015625 356.272460938 c 0
 220.720703125 361.9140625 213.66796875 364.734375 209.4375 370.375 c 0
 205.20703125 378.836914062 196.745117188 384.477539062 189.694335938 391.528320312 c 0
 184.053710938 399.990234375 177.001953125 407.041015625 169.951171875 415.50390625 c 0
 162.900390625 422.5546875 167.130859375 433.836914062 168.541015625 442.297851562 c 1
EndSplineSet
Validated: 1
MultipleSubs2: "Mehrfache Substitution in Lateinisch Nachschlagetabelle 5-1" kalaTok cartTok
Ligature2: "'liga' Standard-Ligaturen in Lateinisch Nachschlagetabelle 1 Glyphen-Daten 1" k a l a
Ligature2: "'liga' Standard-Ligaturen in Lateinisch Nachschlagetabelle 1 Glyphen-Daten 0" k a l a space
EndChar

StartChar: kalamaTok
Encoding: 277 989461 21
Width: 845
VWidth: 985
Flags: W
HStem: 98.2227 42.2354<345.051 476.572> 281.951 43.7188<289.896 501.035>
VStem: 421.047 44.8525<400.52 499.872> 529.081 75.9404<401.76 472.671>
LayerCount: 2
Fore
SplineSet
457.712890625 286.182617188 m 0
 450.19140625 286.182617188 442.669921875 286.809570312 435.149414062 286.809570312 c 0
 431.388671875 286.809570312 427.627929688 286.65234375 423.8671875 286.182617188 c 0
 406.943359375 284.771484375 390.020507812 284.771484375 374.5078125 281.951171875 c 0
 372.59765625 282.163085938 370.688476562 282.247070312 368.783203125 282.247070312 c 0
 361.33984375 282.247070312 353.969726562 280.958007812 346.958984375 280.958007812 c 0
 343.83984375 280.958007812 340.791992188 281.212890625 337.840820312 281.951171875 c 0
 332.200195312 281.951171875 327.969726562 280.541015625 322.329101562 281.951171875 c 0
 313.8671875 281.951171875 305.40625 281.951171875 298.354492188 283.361328125 c 0
 294.123046875 284.771484375 289.892578125 281.951171875 289.892578125 277.720703125 c 0
 291.302734375 260.797851562 298.354492188 243.875 303.99609375 226.951171875 c 0
 306.81640625 214.259765625 313.8671875 204.387695312 319.5078125 193.10546875 c 0
 327.969726562 176.182617188 340.662109375 162.080078125 356.174804688 153.618164062 c 0
 367.45703125 146.567382812 381.559570312 143.747070312 394.251953125 140.926757812 c 0
 397.990234375 140.615234375 401.763671875 140.458007812 405.551757812 140.458007812 c 0
 436.060546875 140.458007812 467.568359375 150.625 490.149414062 171.951171875 c 0
 507.072265625 190.28515625 518.354492188 212.849609375 525.40625 238.234375 c 0
 531.046875 253.747070312 539.5078125 270.669921875 540.91796875 287.59375 c 1
 536.412109375 289.095703125 531.727539062 289.53125 526.9921875 289.53125 c 0
 520.458007812 289.53125 513.825195312 288.702148438 507.42578125 288.702148438 c 0
 505.400390625 288.702148438 503.3984375 288.78515625 501.430664062 289.00390625 c 0
 492.969726562 289.00390625 485.91796875 287.59375 477.45703125 287.59375 c 0
 470.40625 289.00390625 464.764648438 286.182617188 457.712890625 286.182617188 c 0
275.790039062 335.541015625 m 0
 280.020507812 335.541015625 284.251953125 331.310546875 288.482421875 331.310546875 c 0
 305.40625 331.310546875 322.329101562 325.669921875 339.251953125 325.669921875 c 0
 347.712890625 327.080078125 357.584960938 327.080078125 367.45703125 327.080078125 c 0
 375.91796875 328.490234375 385.790039062 327.080078125 395.662109375 328.490234375 c 0
 416.81640625 331.310546875 439.379882812 329.900390625 461.943359375 332.720703125 c 0
 477.45703125 332.720703125 494.379882812 334.130859375 511.302734375 334.130859375 c 0
 512.712890625 334.130859375 515.533203125 334.130859375 518.354492188 335.541015625 c 0
 526.81640625 335.541015625 533.8671875 332.720703125 540.91796875 334.130859375 c 0
 549.379882812 334.130859375 556.430664062 338.361328125 563.482421875 336.951171875 c 0
 571.943359375 336.951171875 581.81640625 336.951171875 587.45703125 331.310546875 c 0
 593.09765625 325.669921875 595.91796875 318.618164062 598.739257812 311.567382812 c 0
 601.559570312 305.926757812 600.149414062 300.28515625 595.91796875 294.64453125 c 0
 586.046875 283.361328125 586.046875 266.438476562 580.40625 252.336914062 c 0
 573.354492188 234.00390625 567.712890625 215.669921875 560.662109375 197.336914062 c 0
 555.020507812 181.82421875 545.149414062 166.310546875 536.6875 152.208007812 c 0
 522.584960938 135.28515625 505.662109375 124.00390625 485.91796875 114.130859375 c 0
 481.6875 112.720703125 477.45703125 111.310546875 473.2265625 109.900390625 c 0
 459.123046875 102.849609375 445.020507812 101.438476562 429.5078125 98.6181640625 c 0
 423.8671875 97.2080078125 418.2265625 100.028320312 412.584960938 98.6181640625 c 0
 410.328125 98.3359375 408.072265625 98.22265625 405.815429688 98.22265625 c 0
 396.790039062 98.22265625 387.764648438 100.028320312 378.739257812 100.028320312 c 0
 371.6875 101.438476562 366.046875 104.259765625 358.99609375 107.080078125 c 0
 342.072265625 112.720703125 326.559570312 122.59375 312.45703125 135.28515625 c 0
 301.174804688 146.567382812 288.482421875 159.259765625 281.430664062 174.771484375 c 0
 272.969726562 187.46484375 265.91796875 201.567382812 260.27734375 214.259765625 c 0
 257.45703125 225.541015625 253.2265625 236.82421875 250.40625 248.10546875 c 0
 246.174804688 262.208007812 243.354492188 277.720703125 241.943359375 291.82421875 c 0
 240.67578125 296.89453125 239.977539062 302.25 239.977539062 307.634765625 c 0
 239.977539062 314.229492188 241.025390625 320.868164062 243.354492188 327.080078125 c 0
 246.174804688 331.310546875 248.99609375 335.541015625 254.63671875 335.541015625 c 0
 261.6875 335.541015625 268.739257812 335.541015625 275.790039062 335.541015625 c 0
277.200195312 480.797851562 m 0
 284.251953125 482.208007812 292.712890625 482.208007812 299.764648438 480.797851562 c 0
 303.99609375 477.977539062 305.40625 473.747070312 309.63671875 469.515625 c 0
 320.91796875 456.82421875 326.559570312 439.900390625 339.251953125 427.208007812 c 0
 344.892578125 421.567382812 350.533203125 417.336914062 356.174804688 411.6953125 c 0
 361.81640625 407.46484375 364.63671875 399.00390625 363.2265625 391.951171875 c 0
 361.81640625 387.720703125 356.174804688 384.900390625 351.943359375 384.900390625 c 0
 344.892578125 384.900390625 337.840820312 383.490234375 332.200195312 386.310546875 c 0
 322.329101562 390.541015625 315.27734375 397.59375 308.2265625 404.64453125 c 0
 303.99609375 408.875 298.354492188 411.6953125 295.533203125 417.336914062 c 0
 288.482421875 427.208007812 282.840820312 438.490234375 275.790039062 448.361328125 c 0
 270.149414062 456.82421875 268.739257812 466.6953125 271.559570312 476.567382812 c 0
 272.969726562 479.387695312 275.790039062 480.797851562 277.200195312 480.797851562 c 0
421.046875 494.900390625 m 0
 425.27734375 499.130859375 432.329101562 499.130859375 439.379882812 500.541015625 c 0
 445.020507812 500.541015625 450.662109375 497.720703125 453.482421875 492.080078125 c 0
 459.22265625 485.190429688 465.899414062 477.3671875 465.899414062 468.609375 c 0
 465.899414062 466.609375 465.55078125 464.561523438 464.764648438 462.46484375 c 0
 464.185546875 458.12109375 463.962890625 453.77734375 463.962890625 449.446289062 c 0
 463.962890625 435.095703125 466.405273438 420.879882812 466.405273438 407.241210938 c 0
 466.405273438 404.948242188 466.3359375 402.671875 466.174804688 400.4140625 c 0
 463.354492188 397.59375 459.123046875 397.59375 454.892578125 397.59375 c 0
 450.662109375 399.00390625 445.020507812 397.59375 440.790039062 401.82421875 c 0
 436.559570312 404.64453125 430.91796875 408.875 428.09765625 414.515625 c 0
 423.8671875 421.567382812 423.8671875 430.028320312 421.046875 438.490234375 c 0
 418.2265625 448.361328125 419.63671875 458.234375 418.2265625 466.6953125 c 0
 415.40625 476.567382812 416.81640625 486.438476562 421.046875 494.900390625 c 0
564.892578125 497.720703125 m 0
 571.943359375 503.361328125 583.2265625 503.361328125 590.27734375 496.310546875 c 0
 595.91796875 492.080078125 602.969726562 486.438476562 604.379882812 477.977539062 c 0
 604.822265625 476.20703125 605.021484375 474.436523438 605.021484375 472.670898438 c 0
 605.021484375 463.188476562 599.263671875 453.864257812 594.5078125 445.541015625 c 0
 588.8671875 432.849609375 578.99609375 420.157226562 574.764648438 404.64453125 c 0
 571.943359375 396.182617188 569.123046875 387.720703125 564.892578125 379.259765625 c 1
 559.251953125 377.849609375 553.610351562 377.849609375 547.969726562 379.259765625 c 0
 542.329101562 382.080078125 536.6875 384.900390625 531.046875 387.720703125 c 0
 529.779296875 392.158203125 529.081054688 396.880859375 529.081054688 401.759765625 c 0
 529.081054688 407.735351562 530.127929688 413.946289062 532.45703125 420.157226562 c 0
 535.27734375 427.208007812 536.6875 435.669921875 539.5078125 442.720703125 c 0
 546.559570312 455.4140625 550.790039062 468.10546875 556.430664062 480.797851562 c 0
 559.251953125 486.438476562 559.251953125 493.490234375 564.892578125 497.720703125 c 0
EndSplineSet
Validated: 1
MultipleSubs2: "Mehrfache Substitution in Lateinisch Nachschlagetabelle 5-1" kalamaTok cartTok
Ligature2: "'liga' Standard-Ligaturen in Lateinisch Nachschlagetabelle 1 Glyphen-Daten 1" k a l a m a
Ligature2: "'liga' Standard-Ligaturen in Lateinisch Nachschlagetabelle 1 Glyphen-Daten 0" k a l a m a space
EndChar

StartChar: kamaTok
Encoding: 278 989462 22
Width: 845
VWidth: 980
Flags: W
HStem: 64.5889 49.3594<506.611 612.186> 73.0498 49.3594<180.755 308.097 520.56 626.469>
LayerCount: 2
Fore
SplineSet
438.500976562 538.434570312 m 0x40
 442.731445312 541.254882812 448.373046875 538.434570312 454.013671875 537.024414062 c 0
 461.065429688 534.204101562 463.885742188 527.15234375 468.116210938 521.51171875 c 0
 476.578125 503.178710938 486.44921875 484.844726562 497.731445312 467.921875 c 0
 504.783203125 452.409179688 514.655273438 439.715820312 523.116210938 425.614257812 c 0
 535.80859375 408.69140625 547.090820312 390.358398438 559.783203125 372.024414062 c 0
 569.655273438 352.28125 585.16796875 333.948242188 595.0390625 312.793945312 c 0
 602.090820312 301.51171875 610.552734375 290.229492188 616.193359375 277.537109375 c 0
 624.655273438 264.844726562 630.295898438 250.7421875 638.7578125 238.049804688 c 0
 642.98828125 232.409179688 645.80859375 225.358398438 650.0390625 218.305664062 c 0
 658.500976562 204.204101562 664.142578125 188.69140625 674.013671875 173.178710938 c 0
 678.245117188 166.126953125 681.065429688 157.665039062 686.706054688 149.204101562 c 0
 690.936523438 143.5625 695.16796875 137.921875 693.7578125 130.87109375 c 0
 692.346679688 125.229492188 692.346679688 118.178710938 688.116210938 113.948242188 c 0x80
 682.475585938 108.305664062 672.603515625 108.305664062 665.552734375 105.485351562 c 0
 658.500976562 99.8447265625 650.0390625 95.6142578125 641.578125 89.97265625 c 0
 631.706054688 87.15234375 623.245117188 81.51171875 613.373046875 80.1015625 c 0
 604.911132812 78.69140625 597.859375 73.0498046875 589.3984375 73.0498046875 c 0x40
 579.526367188 73.0498046875 569.655273438 70.2294921875 561.193359375 70.2294921875 c 0
 552.731445312 70.2294921875 545.680664062 68.8193359375 537.21875 65.9990234375 c 0
 531.578125 64.5888671875 525.936523438 64.5888671875 520.295898438 64.5888671875 c 0
 516.065429688 67.4091796875 509.013671875 68.8193359375 509.013671875 75.87109375 c 0
 507.603515625 82.921875 504.783203125 91.3828125 504.783203125 98.4345703125 c 0
 504.783203125 105.485351562 510.424804688 111.126953125 517.475585938 113.948242188 c 0x80
 525.936523438 116.768554688 535.80859375 122.409179688 545.680664062 122.409179688 c 0
 566.834960938 123.819335938 587.98828125 125.229492188 606.321289062 133.69140625 c 0
 616.193359375 136.51171875 624.655273438 143.5625 634.526367188 149.204101562 c 1
 626.065429688 170.358398438 616.193359375 191.51171875 604.911132812 211.254882812 c 0
 592.21875 236.639648438 576.706054688 260.614257812 562.603515625 285.999023438 c 0
 558.373046875 294.459960938 554.142578125 302.921875 548.500976562 309.97265625 c 0
 538.62890625 328.305664062 527.346679688 345.229492188 516.065429688 360.7421875 c 0
 509.013671875 373.434570312 501.962890625 384.715820312 493.500976562 395.999023438 c 0
 486.44921875 408.69140625 476.578125 419.97265625 469.526367188 431.254882812 c 0
 463.885742188 442.537109375 458.245117188 453.819335938 451.193359375 463.69140625 c 1
 441.321289062 434.075195312 434.26953125 403.049804688 427.21875 373.434570312 c 0
 422.98828125 360.7421875 422.98828125 348.049804688 418.7578125 335.358398438 c 0
 410.295898438 295.87109375 399.013671875 256.3828125 391.962890625 215.485351562 c 0
 390.552734375 202.793945312 389.142578125 190.1015625 384.911132812 177.409179688 c 0
 380.680664062 160.485351562 375.0390625 144.97265625 367.98828125 129.459960938 c 0
 362.346679688 118.178710938 358.116210938 106.895507812 353.885742188 97.0244140625 c 0
 352.475585938 91.3828125 351.065429688 84.33203125 345.424804688 80.1015625 c 0
 339.783203125 75.87109375 332.731445312 73.0498046875 324.26953125 74.4599609375 c 0
 315.80859375 74.4599609375 307.346679688 71.6396484375 297.475585938 70.2294921875 c 0
 290.423828125 68.8193359375 283.020507812 68.466796875 275.439453125 68.466796875 c 0
 267.859375 68.466796875 260.103515625 68.8193359375 252.346679688 68.8193359375 c 0
 245.295898438 70.2294921875 238.245117188 73.0498046875 231.193359375 73.0498046875 c 0
 221.321289062 73.0498046875 211.44921875 73.0498046875 201.578125 71.6396484375 c 0
 194.526367188 68.8193359375 187.475585938 61.7685546875 180.424804688 60.3583984375 c 0
 173.373046875 61.7685546875 166.321289062 64.5888671875 160.680664062 67.4091796875 c 0
 156.44921875 74.4599609375 155.0390625 81.51171875 152.21875 88.5625 c 0
 152.21875 92.7939453125 149.3984375 95.6142578125 152.21875 99.8447265625 c 0
 157.859375 109.715820312 169.142578125 116.768554688 179.013671875 122.409179688 c 0
 184.654296875 123.349609375 190.452148438 123.663085938 196.301757812 123.663085938 c 0
 208.001953125 123.663085938 219.911132812 122.409179688 231.193359375 122.409179688 c 0
 240.321289062 121.268554688 249.448242188 119.205078125 258.575195312 119.205078125 c 0
 260.729492188 119.205078125 262.884765625 119.319335938 265.0390625 119.588867188 c 0
 280.552734375 119.588867188 294.655273438 120.999023438 308.7578125 126.639648438 c 0
 314.3984375 129.459960938 315.80859375 136.51171875 318.62890625 140.7421875 c 0
 327.090820312 156.254882812 334.142578125 173.178710938 339.783203125 190.1015625 c 0
 346.834960938 211.254882812 349.655273438 232.409179688 353.885742188 252.15234375 c 0
 356.706054688 266.254882812 359.526367188 280.358398438 362.346679688 293.049804688 c 0
 367.98828125 315.614257812 373.62890625 338.178710938 379.26953125 360.7421875 c 0
 382.090820312 381.895507812 389.142578125 403.049804688 394.783203125 424.204101562 c 0
 399.013671875 445.358398438 407.475585938 465.1015625 410.295898438 486.254882812 c 0
 414.526367188 494.715820312 417.346679688 503.178710938 421.578125 511.639648438 c 0
 428.62890625 518.69140625 428.62890625 531.3828125 438.500976562 538.434570312 c 0x40
EndSplineSet
Validated: 1
MultipleSubs2: "Mehrfache Substitution in Lateinisch Nachschlagetabelle 5-1" kamaTok cartTok
Ligature2: "'liga' Standard-Ligaturen in Lateinisch Nachschlagetabelle 1 Glyphen-Daten 1" k a m a
Ligature2: "'liga' Standard-Ligaturen in Lateinisch Nachschlagetabelle 1 Glyphen-Daten 0" k a m a space
EndChar

StartChar: kasiTok
Encoding: 279 989463 23
Width: 845
VWidth: 983
Flags: W
HStem: 260.826 49.3594<307.837 372.019> 329.576 49.0068<473.084 522.428> 397.382 42.5469<262.475 342.61>
VStem: 216.011 43.0713<323.269 397.38> 378.19 53.5898<90.1897 147.63> 392.877 34.915<90.1897 274.488>
LayerCount: 2
Fore
SplineSet
282.29296875 397.622070312 m 0xf0
 276.65234375 399.032226562 271.010742188 394.799804688 268.190429688 389.159179688 c 0
 264.6328125 380.858398438 259.08203125 371.560546875 259.08203125 362.104492188 c 0
 259.08203125 360.314453125 259.280273438 358.518554688 259.729492188 356.723632812 c 0
 261.139648438 345.442382812 268.190429688 338.389648438 273.83203125 329.928710938 c 0
 283.068359375 319.372070312 294.775390625 310.05078125 307.794921875 310.05078125 c 0
 308.690429688 310.05078125 309.590820312 310.094726562 310.498046875 310.185546875 c 0
 318.959960938 310.185546875 327.420898438 310.185546875 334.47265625 313.005859375 c 0
 347.165039062 317.236328125 361.267578125 318.646484375 372.549804688 327.108398438 c 1
 366.909179688 334.159179688 364.087890625 344.032226562 358.447265625 352.493164062 c 0
 354.216796875 359.543945312 349.986328125 365.185546875 345.754882812 372.236328125 c 0
 340.11328125 380.698242188 331.65234375 387.749023438 323.190429688 393.389648438 c 0
 318.047851562 397.248046875 312.025390625 398.174804688 305.658203125 398.174804688 c 0
 299.770507812 398.174804688 293.587890625 397.381835938 287.532226562 397.381835938 c 0
 285.771484375 397.381835938 284.021484375 397.44921875 282.29296875 397.622070312 c 0xf0
537.549804688 462.493164062 m 0
 522.037109375 458.262695312 509.344726562 446.979492188 500.8828125 434.288085938 c 0
 486.780273438 418.775390625 481.139648438 399.032226562 472.677734375 380.698242188 c 1
 480.43359375 379.288085938 488.54296875 378.583007812 496.65234375 378.583007812 c 0
 504.760742188 378.583007812 512.870117188 379.288085938 520.626953125 380.698242188 c 0
 534.729492188 384.928710938 546.010742188 397.622070312 557.29296875 408.903320312 c 0
 567.165039062 418.775390625 577.037109375 428.646484375 584.087890625 442.749023438 c 0
 585.498046875 448.389648438 581.267578125 452.622070312 578.447265625 458.262695312 c 0
 575.626953125 463.903320312 568.576171875 466.723632812 561.5234375 468.133789062 c 0
 553.0625 468.133789062 544.600585938 463.903320312 537.549804688 462.493164062 c 0
544.600585938 516.083007812 m 0
 553.0625 517.493164062 561.5234375 516.083007812 569.986328125 517.493164062 c 1
 578.447265625 514.672851562 585.498046875 513.262695312 592.549804688 509.032226562 c 0
 596.780273438 504.799804688 602.420898438 501.979492188 605.2421875 496.338867188 c 0
 617.934570312 478.005859375 629.216796875 458.262695312 629.216796875 434.288085938 c 0
 629.216796875 427.236328125 630.626953125 418.775390625 624.986328125 411.723632812 c 0
 612.29296875 391.979492188 598.190429688 373.646484375 581.267578125 358.133789062 c 0
 572.806640625 352.493164062 565.754882812 346.852539062 557.29296875 341.2109375 c 0
 548.83203125 332.749023438 536.139648438 329.928710938 524.857421875 329.928710938 c 0
 519.216796875 329.928710938 513.576171875 329.576171875 508.110351562 329.576171875 c 0
 502.645507812 329.576171875 497.357421875 329.928710938 492.420898438 331.338867188 c 0
 481.139648438 335.569335938 469.857421875 338.389648438 459.986328125 344.032226562 c 1
 452.934570312 322.877929688 448.703125 298.903320312 443.0625 276.338867188 c 0
 440.2421875 266.466796875 438.83203125 256.595703125 437.420898438 246.723632812 c 0
 434.600585938 234.032226562 434.600585938 221.338867188 433.190429688 208.646484375 c 0
 430.370117188 191.723632812 431.780273438 174.799804688 428.959960938 157.877929688 c 0
 428.133789062 154.573242188 427.791992188 151.268554688 427.791992188 148 c 0xf4
 427.791992188 140.107421875 429.786132812 132.421875 431.780273438 125.442382812 c 0
 433.190429688 116.979492188 434.600585938 107.108398438 430.370117188 100.056640625 c 0
 428.959960938 95.826171875 426.139648438 90.185546875 421.909179688 90.185546875 c 0
 412.037109375 87.365234375 404.986328125 83.1337890625 395.11328125 83.1337890625 c 0
 392.29296875 83.1337890625 388.0625 81.7236328125 385.2421875 83.1337890625 c 0
 381.010742188 87.365234375 379.600585938 94.416015625 378.190429688 100.056640625 c 0xf8
 375.370117188 107.108398438 379.600585938 112.749023438 381.010742188 118.389648438 c 0
 385.2421875 132.493164062 383.83203125 146.595703125 385.2421875 160.698242188 c 0
 385.2421875 174.799804688 385.2421875 190.313476562 389.47265625 204.416015625 c 0
 390.8828125 217.108398438 390.8828125 229.799804688 392.29296875 241.083007812 c 0
 392.706054688 244.387695312 392.876953125 247.69140625 392.876953125 250.99609375 c 0xf4
 392.876953125 258.973632812 391.879882812 266.951171875 390.8828125 274.928710938 c 1
 386.65234375 273.518554688 383.83203125 274.928710938 379.600585938 273.518554688 c 0
 371.139648438 272.108398438 364.087890625 265.056640625 354.216796875 265.056640625 c 0
 341.5234375 262.236328125 327.420898438 260.826171875 314.729492188 260.826171875 c 0
 304.857421875 263.646484375 294.986328125 262.236328125 286.5234375 266.466796875 c 0
 272.420898438 274.928710938 258.319335938 280.569335938 248.447265625 291.852539062 c 0
 242.806640625 300.313476562 234.344726562 305.955078125 230.11328125 315.826171875 c 0
 225.8828125 324.288085938 221.65234375 334.159179688 218.83203125 344.032226562 c 0
 217.420898438 353.903320312 214.600585938 362.365234375 216.010742188 372.236328125 c 0
 217.420898438 386.338867188 221.65234375 400.442382812 228.703125 411.723632812 c 0
 232.934570312 417.365234375 232.934570312 425.826171875 238.576171875 431.466796875 c 0
 245.626953125 437.108398438 254.087890625 437.108398438 262.549804688 438.518554688 c 0
 275.2421875 439.928710938 287.934570312 438.518554688 300.626953125 439.928710938 c 0
 309.087890625 438.518554688 317.549804688 438.518554688 326.010742188 434.288085938 c 0
 331.65234375 431.466796875 338.703125 431.466796875 344.344726562 427.236328125 c 0
 352.806640625 421.595703125 361.267578125 417.365234375 368.319335938 408.903320312 c 0
 373.959960938 400.442382812 382.420898438 391.979492188 388.0625 382.108398438 c 0
 390.8828125 375.056640625 395.11328125 368.005859375 400.754882812 360.955078125 c 0
 404.986328125 355.313476562 407.806640625 348.262695312 413.447265625 342.622070312 c 1
 417.677734375 355.313476562 421.909179688 368.005859375 424.729492188 380.698242188 c 0
 430.370117188 400.442382812 436.010742188 418.775390625 445.8828125 435.698242188 c 0
 450.11328125 446.979492188 458.576171875 455.442382812 467.037109375 465.313476562 c 0
 481.139648438 483.646484375 499.47265625 500.569335938 520.626953125 509.032226562 c 0
 527.677734375 513.262695312 537.549804688 513.262695312 544.600585938 516.083007812 c 0
EndSplineSet
Validated: 33
MultipleSubs2: "Mehrfache Substitution in Lateinisch Nachschlagetabelle 5-1" kasiTok cartTok
Ligature2: "'liga' Standard-Ligaturen in Lateinisch Nachschlagetabelle 1 Glyphen-Daten 1" k a s i
Ligature2: "'liga' Standard-Ligaturen in Lateinisch Nachschlagetabelle 1 Glyphen-Daten 0" k a s i space
EndChar

